<?xml version="1.0" encoding="utf-8"?>
<!-- Generator: Adobe Illustrator 19.0.0, SVG Export Plug-In . SVG Version: 6.00 Build 0)  -->
<svg version="1.1" id="Layer_1" xmlns="http://www.w3.org/2000/svg" xmlns:xlink="http://www.w3.org/1999/xlink" x="0px" y="0px"
	 viewBox="-991 641.8 400 400" style="enable-background:new -991 641.8 400 400;" xml:space="preserve">
<style type="text/css">
	.st0{fill:#CAAFA5;}
	.st1{fill:none;stroke:#010101;stroke-width:0.5149;stroke-miterlimit:10;}
	.st2{fill:#050505;stroke:#010101;stroke-width:0.5149;stroke-miterlimit:10;}
	.st3{fill:#80544F;stroke:#010101;stroke-width:0.5149;stroke-miterlimit:10;}
	.st4{fill:#683929;}
	.st5{fill:#B4887C;}
	.st6{fill:#815141;stroke:#010101;stroke-width:0.5149;stroke-miterlimit:10;}
	.st7{fill:#B47D6B;stroke:#010101;stroke-width:0.5149;stroke-miterlimit:10;}
	.st8{fill:#C18685;stroke:#010101;stroke-width:0.5149;stroke-miterlimit:10;}
	.st9{fill:#B48D85;stroke:#010101;stroke-width:0.5149;stroke-miterlimit:10;}
	.st10{fill:#050505;}
	.st11{stroke:#010101;stroke-width:0.5149;stroke-miterlimit:10;}
	.st12{fill:#805046;stroke:#010101;stroke-width:0.5149;stroke-miterlimit:10;}
	.st13{fill:#8D604C;stroke:#010101;stroke-width:0.5149;stroke-miterlimit:10;}
	.st14{fill:#9E7369;stroke:#010101;stroke-width:0.5149;stroke-miterlimit:10;}
	.st15{fill:#C19881;stroke:#010101;stroke-width:0.5149;stroke-miterlimit:10;}
	.st16{fill:#020101;}
	.st17{fill:#020101;stroke:#010101;stroke-width:0.5149;stroke-miterlimit:10;}
	.st18{fill:#B48578;stroke:#010101;stroke-width:0.5149;stroke-miterlimit:10;}
	.st19{fill:#B47763;stroke:#010101;stroke-width:0.5149;stroke-miterlimit:10;}
	.st20{fill:#754130;}
	.st21{fill:#A97B77;stroke:#010101;stroke-width:0.5149;stroke-miterlimit:10;}
	.st22{fill:#070000;stroke:#010101;stroke-width:0.5149;stroke-miterlimit:10;}
	.st23{fill:#B49D8A;stroke:#010101;stroke-width:0.5149;stroke-miterlimit:10;}
	.st24{fill:#B8918E;stroke:#010101;stroke-width:0.5149;stroke-miterlimit:10;}
	.st25{opacity:0.77;}
	.st26{opacity:0.66;}
	.st27{opacity:0.41;fill:#050404;stroke:#010101;stroke-width:4.1193;stroke-miterlimit:10;enable-background:new    ;}
	.st28{fill:none;stroke:#010101;stroke-width:4.1193;stroke-miterlimit:10;}
	.st29{opacity:0.7;}
	.st30{fill:#050404;stroke:#010101;stroke-width:4.1193;stroke-miterlimit:10;}
	.st31{fill:#FFFFFF;}
</style>
<g id="face">
	<g id="XMLID_460_">
		<g id="XMLID_31_">
			<path id="XMLID_43_" class="st0" d="M-696.5,821.2c6.5,42.1-39.8,158.2-102.1,157.4c-62-0.8-102-117-102.1-157.4
				c0-1.9,0-17.9,1.4-39.1c1.5-24.4,2.4-38.7,4.8-48.4c8.2-33.1,48.7-72.6,95.9-69.9c47.3,2.7,79.4,46.5,87,75.7
				c2,7.6,5.2,25.2,9.7,50.3C-699.1,805.4-696.9,819-696.5,821.2z"/>
			<path id="XMLID_42_" class="st1" d="M-696.5,821.2c6.5,42.1-39.8,158.2-102.1,157.4c-62-0.8-102-117-102.1-157.4
				c0-1.9,0-17.9,1.4-39.1c1.5-24.4,2.4-38.7,4.8-48.4c8.2-33.1,48.7-72.6,95.9-69.9c47.3,2.7,79.4,46.5,87,75.7
				c2,7.6,5.2,25.2,9.7,50.3C-699.1,805.4-696.9,819-696.5,821.2z"/>
		</g>
	</g>
	<path id="XMLID_459_" class="st2" d="M-710.4,779.5c-1.4-2.4-8.6-14.4-8.6-14.4l-4.8-4.1l-11-2.1h-8.2l-10.6,1.4h-9.6l3.1-3.1h-1.7
		l-1.4-4.1h20.6h13.6l10,4.1l5.5,9.1L-710.4,779.5z"/>
	<polygon id="XMLID_452_" class="st1" points="-729.8,803.4 -738.7,803.4 -744.5,800.8 -750.4,798.6 -755.6,796.8 -749.7,799.6 
		-744.5,802 -740.1,804.2 -736.9,805.1 	"/>
	<path id="XMLID_446_" class="st3" d="M-772.2,792.6l3.4,5.5l5.5,5.1l5.8,5.8l10.5,7.9l-6.9-2.7l-5.7-3.8c-1.3-1.1-2.6-2.1-3.9-3.2
		c-0.4-0.4-0.9-0.9-1.3-1.3l-1.5,3.3l-5.8-1.5l-8.2-6.7l-5-6l6.9-2.4H-772.2L-772.2,792.6z"/>
	<g id="XMLID_447_">
		<g id="XMLID_26_">
			<polygon id="XMLID_38_" class="st4" points="-826.6,856.1 -822.2,857.1 -811.9,852.6 -809.5,851.9 -804,854.5 -797.4,854.5 
				-788.5,853.7 -782.2,854.5 -774.1,855.4 -766.9,854.5 -763.6,849.2 -767.4,844.7 -773.6,842.8 -783.2,840.3 -793.5,843.2 
				-803.3,842.8 -810,838.2 -815.8,841.8 -819.4,841.6 -825.4,843 -829.5,842.8 -831.6,843.2 -831.6,847.6 			"/>
			<polygon id="XMLID_37_" class="st1" points="-826.6,856.1 -822.2,857.1 -811.9,852.6 -809.5,851.9 -804,854.5 -797.4,854.5 
				-788.5,853.7 -782.2,854.5 -774.1,855.4 -766.9,854.5 -763.6,849.2 -767.4,844.7 -773.6,842.8 -783.2,840.3 -793.5,843.2 
				-803.3,842.8 -810,838.2 -815.8,841.8 -819.4,841.6 -825.4,843 -829.5,842.8 -831.6,843.2 -831.6,847.6 			"/>
		</g>
	</g>
	<path id="XMLID_440_" class="st2" d="M-733.7,920.8c-1.3-5.1-11.1-27.2-11.1-27.2l-8.9-14.2l-15.2-13.9l-11.1-6.3l-12.7,4.1
		l-2.5-0.3l-10.4-5.8l-18.3,9.9l-13.3,12.3l-13,19c-4.2,11.5-8.4,23.1-12.6,34.6c2.8,3.9,5.6,7.8,8.5,11.6
		c3.8-14.8,7.6-29.6,11.4-44.4l12.7-17.7l16.9-11.1l4.6-0.6l11,3.8l12.2-3.5l10,2.5l11.8,10.4l7.8,10.4l11.1,21.8l3.2,10.1
		L-733.7,920.8z"/>
	<g id="XMLID_455_">
		<g id="XMLID_21_">
			<polygon id="XMLID_33_" class="st5" points="-838.1,902.2 -825.4,899.7 -810.9,895.2 -805.7,894.4 -797.6,896.8 -785.4,894.4 
				-776.8,894.4 -767.6,896.8 -757.5,898.3 -771.1,912.9 -792.5,914.6 -807,914.5 -821,912.9 			"/>
			<polygon id="XMLID_32_" class="st1" points="-838.1,902.2 -825.4,899.7 -810.9,895.2 -805.7,894.4 -797.6,896.8 -785.4,894.4 
				-776.8,894.4 -767.6,896.8 -757.5,898.3 -771.1,912.9 -792.5,914.6 -807,914.5 -821,912.9 			"/>
		</g>
	</g>
	<polygon id="XMLID_454_" class="st6" points="-760.3,888.5 -767.8,880.4 -775.4,873.7 -785.4,871.1 -797.6,874.6 -809.8,871 
		-813.2,871.5 -830.1,882.5 -832.4,885.7 -821.1,882.5 -813.2,885.4 -804.8,885.4 -797.8,883.6 -794.5,887.4 -783.5,888.5 
		-775.3,887.5 -770.2,883.6 -762.2,888.5 	"/>
	<polygon id="XMLID_453_" class="st7" points="-836.7,938.9 -818.6,956.1 -799.7,950.1 -805.3,933.6 -816,931.1 	"/>
	<path id="XMLID_441_" class="st8" d="M-785.4,931.5l-3.8,18.6l3.8,2.9l14-4.6l3.2-7.2c-1.1-3.6-2.2-7.2-3.3-10.7
		C-776.2,930.8-780.8,931.2-785.4,931.5z"/>
	<path id="XMLID_438_" class="st9" d="M-825.4,856.3l-19.4,21.5l-12.1-12.4l-4.1-17.8l-13.1-18.2l-12.9-12.5l-10-5.7l-3.4-6.4
		l-3.9,28.1l2.3,16.4l15.4,39.2l14.9,29.8c3,5.4,6,10.8,9,16.2c3.8-13.2,9.2-27.8,16.9-42.9c2.1-4.2,4.3-8.2,6.5-11.9
		c6.5-5,13-9.9,19.4-14.9l14.3-7.7l-4-5.1L-825.4,856.3z"/>
	<g id="XMLID_485_">
		<g id="XMLID_16_">
			<path id="XMLID_28_" class="st10" d="M-694.3,832.9c1.9,13.8,3.8,27.6,5.7,41.4c0.2,11.6-1,27.5-6.5,45.3
				c-3.1,10.2-7,18.8-10.8,25.9c-5.5,9.8-14.2,23.7-25.9,36.7c-7.5,8.3-13.1,12.8-16.2,15.1c-5.6,4.2-10.6,7.1-14.4,9.1
				c6.9-26.6,13.8-53.2,20.7-79.9l7.9-8.2l22.4-29.3l7.8-23.6L-694.3,832.9z"/>
			<path id="XMLID_27_" class="st1" d="M-694.3,832.9c1.9,13.8,3.8,27.6,5.7,41.4c0.2,11.6-1,27.5-6.5,45.3
				c-3.1,10.2-7,18.8-10.8,25.9c-5.5,9.8-14.2,23.7-25.9,36.7c-7.5,8.3-13.1,12.8-16.2,15.1c-5.6,4.2-10.6,7.1-14.4,9.1
				c6.9-26.6,13.8-53.2,20.7-79.9l7.9-8.2l22.4-29.3l7.8-23.6L-694.3,832.9z"/>
		</g>
	</g>
	<path id="XMLID_484_" class="st2" d="M-903.5,824.6c-1.6,16.7-3.2,33.3-4.8,50c1.1,12,3.1,25.6,6.7,40.2c2.1,8.7,4.5,16.8,7.1,24.2
		c2.5,6.9,5.2,12.7,7.7,17.3c2,3.7,4.9,9,9.6,15.1c1.3,1.6,3.8,4.8,9,11c2.3,2.8,4.1,5,4.3,5.2c5.8,7,24.7,19,39,27.6
		c-12.7-31-25.4-62-38.1-93l-7.5-8.5l-21.1-30.3l-6.7-23.9C-900.2,847.7-901.8,836.2-903.5,824.6z"/>
	<polygon id="XMLID_483_" class="st11" points="-763.6,896.8 -769.4,896.8 -778.1,894.4 -790.9,895.6 -797.6,896.8 -805.7,894.4 
		-813.2,895.6 -823.1,898.5 -839.2,902.2 -828.8,886.1 -821.4,883.6 -808.2,886.5 -799.5,883.6 -794.5,887.4 -787.2,886.9 
		-777.3,889 -770.2,883.6 -760.3,891.8 	"/>
	<polygon id="XMLID_482_" class="st11" points="-757.9,899.7 -771.1,912.9 -792.5,914.6 -805.7,914.6 -821,912.9 -835,905.5 
		-839.2,902.2 -836.7,938.9 -816,931.1 -805.3,933.6 -799.7,950.1 -789.2,950.1 -785.4,931.5 -772.3,934.4 -766.2,944.7 
		-755.6,924.9 -760.3,919.5 	"/>
	<path id="XMLID_450_" class="st12" d="M-844.8,764.3l16.2,6.4l8.2,11.1l1.8,9.3l-5.9,5.7l-10.5,10.3c2.6-1.1,5.1-2.1,7.7-3.2
		c1-0.6,2.1-1.1,3.1-1.7l-1.3,4.9l19.6-14.5l-2.3-6.9l-5,5.1v-10.3l-5.3-8.2c-0.6-1.2-2-3.6-4.9-5.4c-1.4-0.8-2.7-1.3-3.7-1.5
		c-2.6-0.4-5.1-0.8-7.7-1.1H-844.8L-844.8,764.3z"/>
	<polygon id="XMLID_449_" class="st13" points="-829.1,832.9 -821.6,832.9 -813.2,821.7 -805.9,810.9 -803.6,801 -803.6,793.7 
		-803.6,788 -805.9,782.6 -805.9,772.6 -811.9,762.8 -823.7,755.8 -835.5,755.8 -847.6,755.8 -851.2,755.8 -851.2,757.6 
		-847.1,764.3 -834.8,764.3 -825.4,766.3 -817.5,773.8 -813.2,780.5 -813.2,790.8 -808.3,785.7 -805.9,792.6 -824.1,806 
		-824.2,802.2 -835,807.1 -844.8,813 -842.5,814.8 -837.9,816.9 -837.6,818.1 -827.4,814.3 -833,821.2 -831.6,832.9 	"/>
	<path id="XMLID_448_" class="st14" d="M-767.6,752l-14.8,10.6l-6.2,14.1l-3.1,8.9l-8.3,2.4l-3.7-0.1l-1.2,22.1l5.8-5l0.5-8.2h6.5
		l-1,11.5l7.6,10.6L-774,829l7.7,6l-1-8.2l-9.8-8.6l-3.9-6.9l14.8,9.6l1-8.1l-1.2-3.8l-5.8-1.5l-10.6-9.6c-0.9-1.6-1.9-3.2-2.8-4.8
		c0.9-4,1.8-7.9,2.8-11.9l4.1-7.7l7.4-9.4l11.5-1.8l13.5-3.2l-7.3,0.9h-9.6l3.1-3.1h-1.7l-1.4-4.1h20.6l-19.4-2.1L-767.6,752z"/>
	<path id="XMLID_439_" class="st3" d="M-743,758.9l-9.9,5.4l-11.9,3.9l-7.4,5.5l-3.4,7.2v6.4l2.6,4.1l-12.4,3.6
		c-0.2-0.8-0.3-1.6-0.5-2.5c1-3.7,2-7.4,3-11.1c0.8-2.3,2-5.1,3.8-8.1c2.6-4.1,5.5-7,7.7-9c5.3-0.9,10.5-1.9,15.8-2.8L-743,758.9z"
		/>
	<path id="XMLID_436_" class="st15" d="M-706.6,820.4c1.2,0.8,2.6,1.9,4,3.4c1.9,2,3.2,4,3.9,5.5c0.5,1.9,1,4,1.4,6.3
		c0.3,1.9,0.5,3.6,0.6,5.3c-4.7,15.6-9.5,31.2-14.2,46.8l-22.9,30.7L-747,890l-6.6-10.6l-15.2-13.9l-11.1-6.3l-10.8,3.5l2.2-9
		l12,1.5l11.8,4.5l25,11.3c1.3-0.6,2.6-1.1,3.9-1.7c1.3-2.2,2.6-4.4,3.8-6.6c1.5-5,3-10,4.6-15l-9.4-9.4l-10.1-8l-9.8-3.3l-8,0.3
		l-3.6-1.2l-8.7-7.6l-3.9-6.9l13.2,8.6l1.6,1l1-8.1l-1.2-3.8l1.5-3.3l5.2,4.5l10.3,6.5h4.8L-706.6,820.4z"/>
	<g id="XMLID_445_">
		<g id="XMLID_14_">
			<path id="XMLID_23_" class="st16" d="M-902.9,825.3c-1.1,18.1-2.2,36.3-3.4,54.4l13.4,45.2l20.4,45.5l27.6,28.2l20,17.1
				c8.4,1.4,16.8,2.7,25.1,4.1c19.8,0.6,37.4-7.9,45-22.5c3.8-7.3,4.3-14.6,4.1-19.8c-5.2-7.2-10.4-14.3-15.6-21.5
				c-24.6,0.3-49.1,0.7-73.7,1c-7.3-7-14.5-14.1-21.8-21.1c-3.3-5.9-6.6-11.8-9.9-17.7c-4.4-9.3-8.8-18.6-13.3-28
				c-1.7-3.5-3.4-7.1-5.1-10.6l-12-30.5C-902.3,841.3-902.6,833.3-902.9,825.3z"/>
			<path id="XMLID_22_" class="st1" d="M-902.9,825.3c-1.1,18.1-2.2,36.3-3.4,54.4l13.4,45.2l20.4,45.5l27.6,28.2l20,17.1
				c8.4,1.4,16.8,2.7,25.1,4.1c19.8,0.6,37.4-7.9,45-22.5c3.8-7.3,4.3-14.6,4.1-19.8c-5.2-7.2-10.4-14.3-15.6-21.5
				c-24.6,0.3-49.1,0.7-73.7,1c-7.3-7-14.5-14.1-21.8-21.1c-3.3-5.9-6.6-11.8-9.9-17.7c-4.4-9.3-8.8-18.6-13.3-28
				c-1.7-3.5-3.4-7.1-5.1-10.6l-12-30.5C-902.3,841.3-902.6,833.3-902.9,825.3z"/>
		</g>
	</g>
	<polygon id="XMLID_443_" class="st17" points="-859.2,758.9 -865.4,754.1 -873.6,756.5 -881,762.2 -883.4,768.4 -876,763.2 
		-866.8,760.3 	"/>
	<path id="XMLID_442_" class="st17" d="M-852.4,758.4c-2-1.8-4-3.5-6-5.3l12.2-2.1h8.4l11.2,1.2l-2.2,5.1h-17.3
		C-848.2,757.7-850.3,758.1-852.4,758.4z"/>
	<path id="XMLID_437_" class="st18" d="M-752.9,764.3l12,2c1.7-0.1,3.5-0.3,5.2-0.4c1.7,1.1,3.4,2.2,5,3.4
		c4.1,3.4,8.2,6.9,12.2,10.3l4.1,6.2v6.9c-0.6,1.2-1.2,2.4-1.8,3.6c-1.5,1.3-3,2.5-4.6,3.8c-3.7,1.6-7.3,3.2-11,4.9
		c2.6,2.5,5.1,5,7.7,7.5c4.5,0.9,9.1,1.7,13.6,2.6l7.7,3.6l-2.5-21V786l-6.8-13.2l1.6,7l-8.6-14.4l-4.8-4.1l-9.2-1.7l-10-0.3
		L-752.9,764.3z"/>
	<path id="XMLID_435_" class="st19" d="M-829.1,832.9l-3.3,5.3c0,0.7,0.1,1.4,0.2,2.2c0.1,1.1,0.4,2,0.6,2.8
		c1.9,0.4,4.6,0.7,7.7,0.5c2.2-0.2,4.1-0.6,5.6-1.1c0.8-0.2,1.7-0.5,2.5-0.7l4.2-2.6h-8.1l-5.6-1.2l3.7-5.2H-829.1z"/>
	<g id="XMLID_481_">
		<g id="XMLID_12_">
			<polygon id="XMLID_18_" class="st20" points="-766.2,835.1 -763.3,842 -763.6,849.2 -767.4,844.7 -778.7,841.5 -772.2,839.2 
				-771,836.2 -777.2,831 -783.3,826.4 -786.5,821.7 -786.9,816.9 			"/>
			<polygon id="XMLID_17_" class="st1" points="-766.2,835.1 -763.3,842 -763.6,849.2 -767.4,844.7 -778.7,841.5 -772.2,839.2 
				-771,836.2 -777.2,831 -783.3,826.4 -786.5,821.7 -786.9,816.9 			"/>
		</g>
	</g>
	<polygon id="XMLID_480_" class="st9" points="-826.6,684 -851.8,704.6 -871.3,722.5 -879.1,739.5 -893.1,758.4 -893.1,764.3 
		-868.5,747.7 -842.5,743.1 -824.6,737.4 -811.6,724.2 -808.9,709.2 -818.2,697.9 -796.4,692.3 -775.1,698.4 -766.2,716.9 
		-773.8,727.7 -766.2,738.4 -742.7,745.6 -723.6,751 -710.4,761.2 -718.5,736.9 -734.4,715.3 -760.3,691.2 -778.7,680.4 
		-808.4,677.4 	"/>
	<polygon id="XMLID_479_" class="st7" points="-840.3,872.9 -844.8,877.9 -856.9,865.4 -861,847.6 -874.2,829.5 -887,816.9 
		-877.3,820.5 -863.7,827.2 -853.4,825.5 -847.9,846.3 -844.8,861.2 -839.2,866.5 -835.9,864.8 -825.4,856.3 -840.2,873.6 	"/>
	<path id="XMLID_478_" class="st21" d="M-844.9,763.7c-5.5,1.6-11,3.1-16.4,4.7l-2.1,5.5c-1,1.3-2.1,2.6-3.1,3.9
		c-2.4,1.4-4.8,2.9-7.2,4.3c-1.8,1.2-3.7,2.4-5.5,3.6c0.3-1.8,0.6-3.6,1-5.4c-0.7-0.9-1.5-1.8-2.2-2.6l-4.4-0.7l-2.3-3.6l4.9-5.9
		l6.1-4.2l16.8-4.3l8-1.3C-849.1,759.6-847,761.7-844.9,763.7z"/>
	<polygon id="XMLID_477_" class="st22" points="-741.6,926.5 -766.2,956.1 -752.9,993 	"/>
	<polygon id="XMLID_476_" class="st23" points="-893.1,778.6 -897,796.8 -893.1,811.8 -887,816.9 -883.4,805.1 -877.3,794.3 
		-883.4,785.7 -884.7,776.9 	"/>
	<path id="XMLID_475_" class="st7" d="M-750.4,829.1c3.5,3.7,7,7.5,10.5,11.2c1,1.1,3.9,4.3,4.3,9.2c0.2,2.1-0.2,3.9-0.6,5.2
		c-1.4,1.7-2.7,3.4-4.1,5.1c-3.8-0.1-7.5-0.2-11.3-0.3c-8.1-1.3-16.2-2.6-24.3-3.9c6.5,2.7,13.1,5.3,19.6,8c5.5,2.5,11,5,16.4,7.5
		c1.3-0.5,2.6-1,3.9-1.5c0.7-1.3,1.4-2.6,2.2-3.9l4.9-8.3l1.4-9.4c-2.2-2.7-4.4-5.3-6.5-8c-2.5-2.9-6.6-6.7-12.4-9.2
		C-747.8,829.9-749.1,829.4-750.4,829.1z"/>
	<path id="XMLID_474_" class="st24" d="M-784,834.4c0.3,2,0.5,3.9,0.8,5.9c-2.2,1-5,2.1-8.4,2.8c-3.2,0.7-6,0.9-8.3,0.9
		c-1.3-0.2-3.5-0.6-5.8-2c-2.1-1.3-3.5-2.8-4.2-3.8c-1.9-1.8-3.9-3.6-5.8-5.3h-5.8l15.7-22c-0.4,1.4-0.9,2.7-1.3,4.1
		c-0.4,2.1-0.8,4.2-1.2,6.4c-0.3,1.5-0.6,3-1,4.5c0.1,2.4,0.2,4.8,0.3,7.2c0.2,0.7,0.7,1.6,1.5,2.6c1,1.2,2.2,1.9,2.9,2.3
		c1.4,0.6,3.3,1.2,5.7,1.4c3.7,0.3,6.7-0.6,8.4-1.2c0.7-0.6,1.3-1.1,2-1.7c0.6-4.8,1.3-9.5,1.9-14.3
		C-785.8,826.3-784.9,830.3-784,834.4z"/>
	<g id="glasses" class="st25">
		<g id="XMLID_434_">
			<g id="XMLID_69_">
				<g id="XMLID_99_">
					<g id="XMLID_105_" class="st26">
						<circle id="XMLID_107_" class="st27" cx="-851" cy="791.7" r="40.2"/>
						<circle id="XMLID_106_" class="st28" cx="-851" cy="791.7" r="40.2"/>
					</g>
					<g id="XMLID_102_" class="st29">
						<circle id="XMLID_104_" class="st27" cx="-741.8" cy="793.4" r="40.2"/>
						<circle id="XMLID_103_" class="st28" cx="-741.8" cy="793.4" r="40.2"/>
					</g>
					<rect id="XMLID_101_" x="-899.1" y="783.8" class="st30" width="7.7" height="15.6"/>
					<rect id="XMLID_100_" x="-701.3" y="783.8" class="st30" width="7.7" height="15.6"/>
				</g>
			</g>
		</g>
		<path id="XMLID_433_" class="st30" d="M-782.6,798.6c-0.6-0.7-5.7-7.2-14.6-7.1c-8.7,0.1-13.7,6.4-14.3,7.1c0-4.1,0-8.1,0-12.2
			h28.9L-782.6,798.6L-782.6,798.6z"/>
	</g>
</g>
<g id="humaneyes">
	<g id="XMLID_470_">
		<path id="XMLID_432_" class="st31" d="M-824.7,787.5c0.4,8.9-13.1,17.9-25.1,17c-9.9-0.7-21.5-8.2-21.1-17
			c0.4-8.4,11.6-14.2,20.1-15.1C-839.1,771.2-825.1,778.6-824.7,787.5z"/>
		<path id="XMLID_431_" class="st31" d="M-723.9,787.7c0.4,8.9-13.1,17.9-25.1,17c-9.9-0.7-21.5-8.2-21.1-17
			c0.4-8.4,11.6-14.2,20.1-15.1C-738.3,771.4-724.2,778.8-723.9,787.7z"/>
	</g>
	<g id="XMLID_465_">
		<circle id="XMLID_429_" cx="-847.8" cy="788.5" r="11.9"/>
		<circle id="XMLID_428_" class="st31" cx="-851.9" cy="784.4" r="4.1"/>
	</g>
	<g id="XMLID_427_">
		<circle id="XMLID_451_" cx="-746.9" cy="788.5" r="11.9"/>
		<circle id="XMLID_457_" class="st31" cx="-751" cy="784.4" r="4.1"/>
	</g>
</g>
</svg>
