<?xml version="1.0" encoding="utf-8"?>
<!-- Generator: Adobe Illustrator 19.0.0, SVG Export Plug-In . SVG Version: 6.00 Build 0)  -->
<svg version="1.1" id="Layer_1" xmlns="http://www.w3.org/2000/svg" xmlns:xlink="http://www.w3.org/1999/xlink" x="0px" y="0px"
	 viewBox="0 0 468 262" style="enable-background:new 0 0 468 262;" xml:space="preserve">
<style type="text/css">
	.st0{fill:#A7D16A;}
	.st1{fill:#FFFFFF;}
	.st2{fill:#F4B955;}
	.st3{fill:#010101;}
	.st4{fill:#F1F1F8;}
	.st5{fill:#7BD1F6;}
	.st6{fill:#231F20;}
	.st7{fill:#F15C5D;}
	.st8{fill:#CCEBF7;}
	.st9{fill:#53BB73;}
	.st10{fill:#7182C0;}
	.st11{fill:#F6C96F;}
	.st12{fill:#AEE2FA;}
	.st13{fill:#59B7E7;}
	.st14{fill:#BFBEBE;}
	.st15{fill:#F79058;}
	.st16{fill:#878791;}
	.st17{fill:#CAAFA5;}
	.st18{fill:none;stroke:#020202;stroke-width:0.3594;stroke-miterlimit:10;}
	.st19{fill:#070707;stroke:#020202;stroke-width:0.3594;stroke-miterlimit:10;}
	.st20{fill:#815550;stroke:#020202;stroke-width:0.3594;stroke-miterlimit:10;}
	.st21{fill:#693A2A;}
	.st22{fill:#B4887C;}
	.st23{fill:#815242;stroke:#020202;stroke-width:0.3594;stroke-miterlimit:10;}
	.st24{fill:#B47D6B;stroke:#020202;stroke-width:0.3594;stroke-miterlimit:10;}
	.st25{fill:#C08685;stroke:#020202;stroke-width:0.3594;stroke-miterlimit:10;}
	.st26{fill:#B48D85;stroke:#020202;stroke-width:0.3594;stroke-miterlimit:10;}
	.st27{fill:#070707;}
	.st28{fill:#010101;stroke:#020202;stroke-width:0.3594;stroke-miterlimit:10;}
	.st29{fill:#815147;stroke:#020202;stroke-width:0.3594;stroke-miterlimit:10;}
	.st30{fill:#8E614D;stroke:#020202;stroke-width:0.3594;stroke-miterlimit:10;}
	.st31{fill:#9E746A;stroke:#020202;stroke-width:0.3594;stroke-miterlimit:10;}
	.st32{fill:#C09880;stroke:#020202;stroke-width:0.3594;stroke-miterlimit:10;}
	.st33{fill:#030303;}
	.st34{fill:#030303;stroke:#020202;stroke-width:0.3594;stroke-miterlimit:10;}
	.st35{fill:#B38578;stroke:#020202;stroke-width:0.3594;stroke-miterlimit:10;}
	.st36{fill:#B47864;stroke:#020202;stroke-width:0.3594;stroke-miterlimit:10;}
	.st37{fill:#764231;}
	.st38{fill:#AA7C78;stroke:#020202;stroke-width:0.3594;stroke-miterlimit:10;}
	.st39{fill:#0A0506;stroke:#020202;stroke-width:0.3594;stroke-miterlimit:10;}
	.st40{fill:#B59E8A;stroke:#020202;stroke-width:0.3594;stroke-miterlimit:10;}
	.st41{fill:#B8918E;stroke:#020202;stroke-width:0.3594;stroke-miterlimit:10;}
	.st42{opacity:0.77;}
	.st43{opacity:0.66;}
	.st44{opacity:0.41;fill:#070606;stroke:#020202;stroke-width:2.8756;stroke-miterlimit:10;enable-background:new    ;}
	.st45{fill:none;stroke:#020202;stroke-width:2.8756;stroke-miterlimit:10;}
	.st46{opacity:0.7;}
	.st47{fill:#070606;stroke:#020202;stroke-width:2.8756;stroke-miterlimit:10;}
</style>
<g id="XMLID_610_">
	<polygon id="XMLID_289_" class="st0" points="326.8,31.4 329.7,33.2 334.1,31.3 334.9,28.1 340.4,28.1 341.2,31.3 345.6,33.2 
		348.5,31.4 352.4,35.3 350.7,38.2 352.5,42.6 355.8,43.4 355.8,49 352.5,49.8 350.7,54.2 352.4,57.1 348.5,61 345.6,59.2 
		341.2,61.1 340.4,64.3 334.9,64.3 334.1,61.1 329.7,59.2 326.8,61 322.9,57.1 324.6,54.2 322.8,49.8 319.5,49 319.5,43.4 
		322.8,42.6 324.6,38.2 322.9,35.3 	"/>
	<path id="XMLID_288_" class="st1" d="M349.1,46.1c0-6.4-5.2-11.5-11.5-11.5c-6.1,0-11.2,5-11.4,11.1c-0.1,3.2,1.1,6.1,3.2,8.3
		c1.9,2,3,4.7,3,7.5v0.1h10.5v-0.1c0-2.8,1.1-5.5,3.1-7.6C347.9,51.9,349.1,49.2,349.1,46.1z"/>
	<path id="XMLID_287_" class="st2" d="M340.7,69h-6.2c-1.2,0-2.2-1-2.2-2.2v-5h10.5v5C342.9,68,341.9,69,340.7,69z"/>
	<path id="XMLID_620_" class="st3" d="M356,42.5l-2.8-0.7l-1.5-3.5l1.5-2.5c0.2-0.4,0.2-0.8-0.1-1.2l-3.9-3.9
		c-0.3-0.3-0.8-0.4-1.2-0.1l-2.5,1.5l-3.5-1.5l-0.7-2.8c-0.1-0.4-0.5-0.7-0.9-0.7h-5.5c-0.4,0-0.8,0.3-0.9,0.7l-0.7,2.8l-3.5,1.5
		l-2.5-1.5c-0.4-0.2-0.8-0.2-1.2,0.1l-3.9,3.9c-0.3,0.3-0.4,0.8-0.1,1.2l1.5,2.5l-1.5,3.5l-2.8,0.7c-0.4,0.1-0.7,0.5-0.7,0.9V49
		c0,0.4,0.3,0.8,0.7,0.9l2.8,0.7l1.5,3.5l-1.5,2.5c-0.2,0.4-0.2,0.8,0.1,1.2l3.9,3.9c0.3,0.3,0.8,0.4,1.2,0.1l2.5-1.5l1.7,0.7
		c0,0.2,0,0.4,0,0.6v0.1v5c0,1.7,1.4,3.1,3.1,3.1h6.2c1.7,0,3.1-1.4,3.1-3.1v-5v-0.1c0-0.2,0-0.4,0-0.6l1.7-0.7l2.5,1.5
		c0.2,0.1,0.3,0.1,0.5,0.1c0.2,0,0.5-0.1,0.7-0.3l3.9-3.9c0.3-0.3,0.4-0.8,0.1-1.2l-1.5-2.5l1.5-3.5l2.8-0.7
		c0.4-0.1,0.7-0.5,0.7-0.9v-5.5C356.7,43,356.4,42.6,356,42.5z M342,60.8h-8.7c-0.2-2.8-1.3-5.4-3.2-7.4c-2-2-3-4.7-2.9-7.6
		c0.2-5.6,4.8-10.2,10.4-10.2c0,0,0.1,0,0.1,0c2.8,0,5.4,1.1,7.4,3.1c2,2,3.1,4.6,3.1,7.5c0,2.7-1,5.3-2.9,7.2
		C343.3,55.4,342.2,58,342,60.8z M342,66.8c0,0.7-0.6,1.2-1.2,1.2h-6.2c-0.7,0-1.2-0.6-1.2-1.2v-0.6h3.1c0.5,0,0.9-0.4,0.9-0.9
		s-0.4-0.9-0.9-0.9h-3.1v-1.6h8.6L342,66.8L342,66.8z M354.8,48.2l-2.5,0.6c-0.3,0.1-0.5,0.3-0.6,0.6l-1.8,4.4
		c-0.1,0.3-0.1,0.6,0.1,0.8l1.3,2.2l-2.9,2.9l-2.2-1.3c-0.3-0.2-0.6-0.2-0.8-0.1l-1,0.4c0.5-1.5,1.3-2.9,2.4-4.1
		c2.2-2.3,3.4-5.3,3.4-8.5c0-3.3-1.3-6.5-3.7-8.8c-2.4-2.3-5.5-3.6-8.8-3.6c-3.2,0-6.3,1.3-8.6,3.5c-2.3,2.3-3.6,5.3-3.7,8.5
		c-0.1,3.4,1.1,6.5,3.5,8.9c1.1,1.2,1.9,2.6,2.3,4.1l-1-0.4c-0.3-0.1-0.6-0.1-0.8,0.1l-2.2,1.3l-2.9-2.9l1.3-2.2
		c0.2-0.3,0.2-0.6,0.1-0.8l-1.8-4.4c-0.1-0.3-0.4-0.5-0.6-0.6l-2.5-0.6v-4.1l2.5-0.6c0.3-0.1,0.5-0.3,0.6-0.6l1.8-4.4
		c0.1-0.3,0.1-0.6-0.1-0.8l-1.3-2.2l2.9-2.9l2.2,1.3c0.3,0.2,0.6,0.2,0.8,0.1l4.4-1.8c0.3-0.1,0.5-0.4,0.6-0.6l0.6-2.5h4.1l0.6,2.5
		c0.1,0.3,0.3,0.5,0.6,0.6l4.4,1.8c0.3,0.1,0.6,0.1,0.8-0.1l2.2-1.3l2.9,2.9l-1.3,2.2c-0.2,0.3-0.2,0.6-0.1,0.8l1.8,4.4
		c0.1,0.3,0.4,0.5,0.6,0.6l2.5,0.6L354.8,48.2L354.8,48.2L354.8,48.2z"/>
	<path id="XMLID_282_" class="st3" d="M332.6,44.9c-0.2,0-0.5,0.1-0.7,0.3c-0.2,0.2-0.3,0.4-0.3,0.7c0,0.2,0.1,0.5,0.3,0.7
		c0.2,0.2,0.4,0.3,0.7,0.3s0.5-0.1,0.7-0.3c0.2-0.2,0.3-0.4,0.3-0.7s-0.1-0.5-0.3-0.7C333.1,45,332.9,44.9,332.6,44.9z"/>
	<path id="XMLID_281_" class="st3" d="M337.6,44.9c-0.2,0-0.5,0.1-0.7,0.3c-0.2,0.2-0.3,0.4-0.3,0.7s0.1,0.5,0.3,0.7
		c0.2,0.2,0.4,0.3,0.7,0.3s0.5-0.1,0.7-0.3c0.2-0.2,0.3-0.4,0.3-0.7s-0.1-0.5-0.3-0.7C338.1,45,337.9,44.9,337.6,44.9z"/>
	<path id="XMLID_280_" class="st3" d="M342.7,44.9c-0.2,0-0.5,0.1-0.7,0.3c-0.2,0.2-0.3,0.4-0.3,0.7c0,0.2,0.1,0.5,0.3,0.7
		c0.2,0.2,0.4,0.3,0.7,0.3s0.5-0.1,0.7-0.3c0.2-0.2,0.3-0.4,0.3-0.7s-0.1-0.5-0.3-0.7C343.1,45,342.9,44.9,342.7,44.9z"/>
	<path id="XMLID_279_" class="st3" d="M337.6,25.8c0.5,0,0.9-0.4,0.9-0.9v-2.3c0-0.5-0.4-0.9-0.9-0.9c-0.5,0-0.9,0.4-0.9,0.9v2.3
		C336.7,25.3,337.1,25.8,337.6,25.8z"/>
	<path id="XMLID_278_" class="st3" d="M322.1,31.1c0.2,0,0.5-0.1,0.7-0.3c0.4-0.4,0.4-1,0-1.3l-3-3c-0.4-0.4-1-0.4-1.3,0
		c-0.4,0.4-0.4,1,0,1.3l3,3C321.6,31,321.8,31.1,322.1,31.1z"/>
	<path id="XMLID_277_" class="st3" d="M356.9,26.5c-0.4-0.4-1-0.4-1.3,0l-3,3c-0.4,0.4-0.4,1,0,1.3c0.2,0.2,0.4,0.3,0.7,0.3
		c0.2,0,0.5-0.1,0.7-0.3l3-3C357.3,27.4,357.3,26.8,356.9,26.5z"/>
	<path id="XMLID_276_" class="st3" d="M339.7,66.1c0.2,0,0.5-0.1,0.7-0.3c0.2-0.2,0.3-0.4,0.3-0.7s-0.1-0.5-0.3-0.7
		c-0.2-0.2-0.4-0.3-0.7-0.3s-0.5,0.1-0.7,0.3c-0.2,0.2-0.3,0.4-0.3,0.7s0.1,0.5,0.3,0.7C339.2,66,339.4,66.1,339.7,66.1z"/>
	<path id="XMLID_275_" class="st3" d="M337.6,39.1C337.6,39.1,337.6,39.1,337.6,39.1L337.6,39.1c0.6,0,1-0.4,1-1
		c0-0.5-0.4-0.9-0.9-0.9c0,0,0,0,0,0l0,0c-0.5,0-0.9,0.4-0.9,1C336.6,38.7,337.1,39.1,337.6,39.1z"/>
	<path id="XMLID_274_" class="st3" d="M345.7,42.3c-0.9-2-2.6-3.5-4.5-4.4c-0.5-0.2-1,0-1.2,0.5s0,1,0.5,1.2
		c1.6,0.7,2.8,1.9,3.6,3.4c0.2,0.3,0.5,0.5,0.9,0.5c0.1,0,0.3,0,0.4-0.1C345.7,43.3,345.9,42.8,345.7,42.3z"/>
</g>
<g id="XMLID_560_">
	<rect id="XMLID_273_" x="254.2" y="60.6" class="st4" width="10.4" height="5.1"/>
	<path id="XMLID_272_" class="st1" d="M234.5,34.2v-7.5c0-2.6,2.1-4.6,4.6-4.6h41.6c2.6,0,4.6,2.1,4.6,4.6v29.3
		c0,2.6-2.1,4.6-4.6,4.6h-26.5L234.5,34.2z"/>
	<g id="XMLID_605_">
		<path id="XMLID_271_" class="st5" d="M285.4,52.7h-31.2v7.9h26.5c2.6,0,4.6-2.1,4.6-4.6V52.7z"/>
		<path id="XMLID_270_" class="st5" d="M254.2,70.3h16.1l0,0c0-2.6-2.1-4.6-4.6-4.6h-11.4V70.3z"/>
	</g>
	<path id="XMLID_269_" class="st1" d="M250,34.2h-25.6c-2.3,0-4.2,1.9-4.2,4.2V83c0,2.3,1.9,4.2,4.2,4.2H250c2.3,0,4.2-1.9,4.2-4.2
		V38.4C254.2,36.1,252.3,34.2,250,34.2z"/>
	<path id="XMLID_268_" class="st2" d="M249.6,34.2h-24.8c-2.6,0-4.6,2.1-4.6,4.6v4.9h34.1v-4.9C254.2,36.3,252.2,34.2,249.6,34.2z"
		/>
	<path id="XMLID_267_" class="st6" d="M221.2,43.7h32.5"/>
	<path id="XMLID_593_" class="st3" d="M280.7,20.7h-41.6c-3.3,0-6,2.7-6,6v6.2h-8.7c-3.1,0-5.6,2.5-5.6,5.6V83
		c0,3.1,2.5,5.6,5.6,5.6H250c3.1,0,5.6-2.5,5.6-5.6V71.7h14.7c0.7,0,1.3-0.6,1.3-1.3c0-3.2-2.5-5.8-5.7-6v-2.5h14.8c3.3,0,6-2.7,6-6
		V26.6C286.7,23.3,284,20.7,280.7,20.7z M224.4,35.5H250c1.6,0,2.9,1.3,2.9,2.9v4h-31.4v-4C221.5,36.8,222.8,35.5,224.4,35.5z
		 M245.5,32.8H244v-2.2c0-0.4,0.3-0.7,0.7-0.7c0.4,0,0.7,0.3,0.7,0.7V32.8z M253.6,33.5c0,0.2-0.1,0.4-0.2,0.5
		c-0.4-0.3-0.8-0.5-1.3-0.7v-2.7c0-0.4,0.3-0.7,0.7-0.7c0.4,0,0.7,0.3,0.7,0.7L253.6,33.5L253.6,33.5z M252.9,83
		c0,1.6-1.3,2.9-2.9,2.9h-25.6c-1.6,0-2.9-1.3-2.9-2.9V45h31.4V83z M268.7,69h-13.1v-2h9h1C267,67,268.2,67.8,268.7,69z M263.3,64.3
		h-7.7v-2.5h7.7V64.3z M284.1,55.9c0,1.8-1.5,3.3-3.3,3.3h-16.1h-9V54h19.1c0.7,0,1.3-0.6,1.3-1.3s-0.6-1.3-1.3-1.3h-19.1V38.4
		c0-0.8-0.2-1.6-0.5-2.3c0.7-0.6,1.2-1.6,1.2-2.6v-3c0-1.9-1.5-3.4-3.4-3.4c-1.9,0-3.4,1.5-3.4,3.4v2.3h-1.3v-2.2
		c0-1.9-1.5-3.4-3.4-3.4c-1.9,0-3.4,1.5-3.4,3.4v2.2h-5.6v-6.2c0-1.8,1.5-3.3,3.3-3.3h41.6c1.8,0,3.3,1.5,3.3,3.3V55.9z"/>
	<path id="XMLID_258_" class="st3" d="M280.4,51.3c-0.3,0-0.7,0.1-0.9,0.4c-0.2,0.2-0.4,0.6-0.4,0.9s0.1,0.7,0.4,0.9
		c0.2,0.2,0.6,0.4,0.9,0.4c0.3,0,0.7-0.1,0.9-0.4c0.2-0.2,0.4-0.6,0.4-0.9s-0.1-0.7-0.4-0.9C281.1,51.5,280.7,51.3,280.4,51.3z"/>
	<path id="XMLID_257_" class="st3" d="M259.9,55.3c-0.3,0-0.7,0.1-0.9,0.4c-0.2,0.2-0.4,0.6-0.4,0.9s0.1,0.7,0.4,0.9
		c0.2,0.2,0.6,0.4,0.9,0.4c0.3,0,0.7-0.1,0.9-0.4c0.2-0.2,0.4-0.6,0.4-0.9s-0.1-0.7-0.4-0.9C260.6,55.4,260.3,55.3,259.9,55.3z"/>
	<path id="XMLID_256_" class="st3" d="M240.9,40.3h7.6c0.7,0,1.3-0.6,1.3-1.3s-0.6-1.3-1.3-1.3h-7.6c-0.7,0-1.3,0.6-1.3,1.3
		S240.2,40.3,240.9,40.3z"/>
	<path id="XMLID_255_" class="st3" d="M229.4,40.3c0.3,0,0.7-0.1,0.9-0.4c0.2-0.2,0.4-0.6,0.4-0.9c0-0.3-0.1-0.7-0.4-0.9
		c-0.2-0.2-0.6-0.4-0.9-0.4c-0.3,0-0.7,0.1-0.9,0.4c-0.2,0.2-0.4,0.6-0.4,0.9c0,0.3,0.1,0.7,0.4,0.9C228.7,40.1,229,40.3,229.4,40.3
		z"/>
	<path id="XMLID_254_" class="st3" d="M225.5,40.3c0.3,0,0.7-0.1,0.9-0.4c0.2-0.2,0.4-0.6,0.4-0.9c0-0.3-0.1-0.7-0.4-0.9
		c-0.2-0.2-0.6-0.4-0.9-0.4c-0.3,0-0.7,0.1-0.9,0.4c-0.2,0.2-0.4,0.6-0.4,0.9c0,0.3,0.1,0.7,0.4,0.9
		C224.8,40.1,225.1,40.3,225.5,40.3z"/>
	<path id="XMLID_253_" class="st3" d="M233.3,40.3c0.3,0,0.7-0.1,0.9-0.4c0.2-0.2,0.4-0.6,0.4-0.9c0-0.3-0.1-0.7-0.4-0.9
		c-0.2-0.2-0.6-0.4-0.9-0.4c-0.3,0-0.7,0.1-0.9,0.4c-0.2,0.2-0.4,0.6-0.4,0.9c0,0.3,0.1,0.7,0.4,0.9C232.6,40.1,233,40.3,233.3,40.3
		z"/>
	<path id="XMLID_252_" class="st3" d="M259.3,36.9c0.7,0,1.3-0.6,1.3-1.3v-7.1c0-0.7-0.6-1.3-1.3-1.3c-0.7,0-1.3,0.6-1.3,1.3v7.1
		C258,36.3,258.6,36.9,259.3,36.9z"/>
	<path id="XMLID_251_" class="st3" d="M279.6,36.9c0.7,0,1.3-0.6,1.3-1.3v-7.1c0-0.7-0.6-1.3-1.3-1.3c-0.7,0-1.3,0.6-1.3,1.3v7.1
		C278.2,36.3,278.8,36.9,279.6,36.9z"/>
	<path id="XMLID_582_" class="st3" d="M268.8,33.6v-3c0-1.9-1.5-3.4-3.4-3.4s-3.4,1.5-3.4,3.4v3c0,1.9,1.5,3.4,3.4,3.4
		S268.8,35.4,268.8,33.6z M266.1,33.6c0,0.4-0.3,0.7-0.7,0.7c-0.4,0-0.7-0.3-0.7-0.7v-3c0-0.4,0.3-0.7,0.7-0.7
		c0.4,0,0.7,0.3,0.7,0.7V33.6z"/>
	<path id="XMLID_579_" class="st3" d="M273.5,27.2c-1.9,0-3.4,1.5-3.4,3.4v3c0,1.9,1.5,3.4,3.4,3.4c1.9,0,3.4-1.5,3.4-3.4v-3
		C276.9,28.7,275.4,27.2,273.5,27.2z M274.2,33.5c0,0.4-0.3,0.7-0.7,0.7c-0.4,0-0.7-0.3-0.7-0.7v-3c0-0.4,0.3-0.7,0.7-0.7
		c0.4,0,0.7,0.3,0.7,0.7V33.5z"/>
	<path id="XMLID_246_" class="st3" d="M275.6,39.4c-0.7,0-1.3,0.6-1.3,1.3v7.1c0,0.7,0.6,1.3,1.3,1.3s1.3-0.6,1.3-1.3v-7.1
		C276.9,40,276.3,39.4,275.6,39.4z"/>
	<path id="XMLID_245_" class="st3" d="M280.9,47.8v-7.1c0-0.7-0.6-1.3-1.3-1.3c-0.7,0-1.3,0.6-1.3,1.3v7.1c0,0.7,0.6,1.3,1.3,1.3
		C280.3,49.1,280.9,48.5,280.9,47.8z"/>
	<path id="XMLID_574_" class="st3" d="M261.3,39.5c-1.9,0-3.4,1.5-3.4,3.4v3c0,1.9,1.5,3.4,3.4,3.4s3.4-1.5,3.4-3.4v-3
		C264.7,41,263.2,39.5,261.3,39.5z M262.1,45.8c0,0.4-0.3,0.7-0.7,0.7c-0.4,0-0.7-0.3-0.7-0.7v-3c0-0.4,0.3-0.7,0.7-0.7
		c0.4,0,0.7,0.3,0.7,0.7V45.8z"/>
	<path id="XMLID_571_" class="st3" d="M269.4,39.4c-1.9,0-3.4,1.5-3.4,3.4v3c0,1.9,1.5,3.4,3.4,3.4s3.4-1.5,3.4-3.4v-3
		C272.8,40.9,271.3,39.4,269.4,39.4z M270.2,45.7c0,0.4-0.3,0.7-0.7,0.7c-0.4,0-0.7-0.3-0.7-0.7v-3c0-0.4,0.3-0.7,0.7-0.7
		c0.4,0,0.7,0.3,0.7,0.7V45.7z"/>
	<path id="XMLID_240_" class="st3" d="M227.6,54h8.6c0.7,0,1.3-0.6,1.3-1.3s-0.6-1.3-1.3-1.3h-8.6c-0.7,0-1.3,0.6-1.3,1.3
		S226.9,54,227.6,54z"/>
	<path id="XMLID_239_" class="st3" d="M240.8,54h6.6c0.7,0,1.3-0.6,1.3-1.3s-0.6-1.3-1.3-1.3h-6.6c-0.7,0-1.3,0.6-1.3,1.3
		S240.1,54,240.8,54z"/>
	<path id="XMLID_238_" class="st3" d="M247.4,64.1H245c-0.7,0-1.3,0.6-1.3,1.3c0,0.7,0.6,1.3,1.3,1.3h2.5c0.7,0,1.3-0.6,1.3-1.3
		C248.8,64.7,248.2,64.1,247.4,64.1z"/>
	<path id="XMLID_237_" class="st3" d="M227.6,66.7h12.1c0.7,0,1.3-0.6,1.3-1.3c0-0.7-0.6-1.3-1.3-1.3h-12.1c-0.7,0-1.3,0.6-1.3,1.3
		C226.3,66.1,226.9,66.7,227.6,66.7z"/>
	<path id="XMLID_236_" class="st3" d="M227.6,60.3h4.3c0.7,0,1.3-0.6,1.3-1.3c0-0.7-0.6-1.3-1.3-1.3h-4.3c-0.7,0-1.3,0.6-1.3,1.3
		C226.3,59.8,226.9,60.3,227.6,60.3z"/>
	<path id="XMLID_235_" class="st3" d="M237,59c0,0.7,0.6,1.3,1.3,1.3h9.1c0.7,0,1.3-0.6,1.3-1.3c0-0.7-0.6-1.3-1.3-1.3h-9.1
		C237.6,57.7,237,58.3,237,59z"/>
	<path id="XMLID_234_" class="st3" d="M247.4,76.8c-0.3,0-0.7,0.1-0.9,0.4c-0.2,0.2-0.4,0.6-0.4,0.9s0.1,0.7,0.4,0.9
		c0.2,0.2,0.6,0.4,0.9,0.4c0.3,0,0.7-0.1,0.9-0.4c0.2-0.2,0.4-0.6,0.4-0.9s-0.1-0.7-0.4-0.9C248.1,76.9,247.8,76.8,247.4,76.8z"/>
	<path id="XMLID_233_" class="st3" d="M242.4,76.8h-14.8c-0.7,0-1.3,0.6-1.3,1.3s0.6,1.3,1.3,1.3h14.8c0.7,0,1.3-0.6,1.3-1.3
		S243.2,76.8,242.4,76.8z"/>
	<path id="XMLID_232_" class="st3" d="M227.6,73.1h4.3c0.7,0,1.3-0.6,1.3-1.3c0-0.7-0.6-1.3-1.3-1.3h-4.3c-0.7,0-1.3,0.6-1.3,1.3
		C226.3,72.5,226.9,73.1,227.6,73.1z"/>
	<path id="XMLID_231_" class="st3" d="M247.4,70.4h-9.1c-0.7,0-1.3,0.6-1.3,1.3c0,0.7,0.6,1.3,1.3,1.3h9.1c0.7,0,1.3-0.6,1.3-1.3
		C248.8,71,248.2,70.4,247.4,70.4z"/>
</g>
<g id="XMLID_518_">
	<path id="XMLID_230_" class="st1" d="M317.5,244.5h-3.1c-2.2,0-3.9-1.8-3.9-3.9v-40.3c0-2.2,1.8-3.9,3.9-3.9h40.3
		c2.2,0,3.9,1.8,3.9,3.9v40.3c0,2.2-1.8,3.9-3.9,3.9h-4H317.5z"/>
	<path id="XMLID_229_" class="st5" d="M354.7,196.4h-40.3c-2.2,0-3.9,1.8-3.9,3.9v3.1h48.1v-3.1
		C358.6,198.1,356.8,196.4,354.7,196.4z"/>
	<path id="XMLID_228_" class="st7" d="M352.2,220.4h-10.6c-0.6,0-1.1-0.5-1.1-1.1v-10.6c0-0.6,0.5-1.1,1.1-1.1h10.6
		c0.6,0,1.1,0.5,1.1,1.1v10.6C353.3,219.9,352.8,220.4,352.2,220.4z"/>
	<path id="XMLID_227_" class="st8" d="M332.9,207.5h-15.6c-0.9,0-1.6,0.7-1.6,1.6v15.6c0,0.9,0.7,1.6,1.6,1.6h15.6
		c0.9,0,1.6-0.7,1.6-1.6v-15.6C334.5,208.2,333.8,207.5,332.9,207.5z"/>
	<g id="XMLID_553_">
		<path id="XMLID_226_" class="st0" d="M319.6,219.5l-3.8,5.5c0.1,0.8,0.8,1.4,1.6,1.4h10.2l-4.5-6.8
			C322.2,218.3,320.4,218.2,319.6,219.5z"/>
		<path id="XMLID_225_" class="st0" d="M334.5,219.6l-2.9-3.7c-0.9-1.2-2.7-1.1-3.5,0.2l-5.8,10.2h10.6c0.9,0,1.6-0.7,1.6-1.6
			L334.5,219.6L334.5,219.6z"/>
	</g>
	<path id="XMLID_224_" class="st7" d="M352.2,239.2h-10.6c-0.6,0-1.1-0.5-1.1-1.1v-10.6c0-0.6,0.5-1.1,1.1-1.1h10.6
		c0.6,0,1.1,0.5,1.1,1.1v10.6C353.3,238.7,352.8,239.2,352.2,239.2z"/>
	<path id="XMLID_223_" class="st6" d="M311.5,203.4H358"/>
	<path id="XMLID_548_" class="st1" d="M345,215.4v-2.8c0-0.6,0.7-1,1.2-0.7l2.4,1.4c0.5,0.3,0.5,1.1,0,1.4l-2.4,1.4
		C345.7,216.4,345,216,345,215.4z M346.2,234.8l2.4-1.4c0.5-0.3,0.5-1.1,0-1.4l-2.4-1.4c-0.5-0.3-1.2,0.1-1.2,0.7v2.8
		C345,234.7,345.7,235.1,346.2,234.8z"/>
	<path id="XMLID_544_" class="st3" d="M354.7,195.4h-40.3c-2.7,0-4.9,2.2-4.9,4.9v40.3c0,2.7,2.2,4.9,4.9,4.9h40.3
		c2.7,0,4.9-2.2,4.9-4.9v-40.3C359.5,197.6,357.4,195.4,354.7,195.4z M314.4,197.4h40.3c1.6,0,2.9,1.3,2.9,2.9v2.2h-46
		c0,0-0.1,0-0.1,0v-2.2C311.4,198.7,312.8,197.4,314.4,197.4z M354.7,243.5h-40.3c-1.6,0-2.9-1.3-2.9-2.9v-36.2c0,0,0.1,0,0.1,0h46
		v36.2C357.6,242.2,356.3,243.5,354.7,243.5z"/>
	<path id="XMLID_217_" class="st3" d="M331.2,200.9h22.1c0.5,0,1-0.4,1-1s-0.4-1-1-1h-22.1c-0.5,0-1,0.4-1,1
		S330.7,200.9,331.2,200.9z"/>
	<path id="XMLID_216_" class="st3" d="M319.7,200.9c0.3,0,0.5-0.1,0.7-0.3c0.2-0.2,0.3-0.4,0.3-0.7s-0.1-0.5-0.3-0.7
		c-0.2-0.2-0.4-0.3-0.7-0.3c-0.3,0-0.5,0.1-0.7,0.3c-0.2,0.2-0.3,0.4-0.3,0.7s0.1,0.5,0.3,0.7C319.2,200.8,319.4,200.9,319.7,200.9z
		"/>
	<path id="XMLID_215_" class="st3" d="M315.8,200.9c0.3,0,0.5-0.1,0.7-0.3c0.2-0.2,0.3-0.4,0.3-0.7s-0.1-0.5-0.3-0.7
		c-0.2-0.2-0.4-0.3-0.7-0.3s-0.5,0.1-0.7,0.3c-0.2,0.2-0.3,0.4-0.3,0.7s0.1,0.5,0.3,0.7C315.2,200.8,315.5,200.9,315.8,200.9z"/>
	<path id="XMLID_214_" class="st3" d="M323.6,200.9c0.3,0,0.5-0.1,0.7-0.3c0.2-0.2,0.3-0.4,0.3-0.7s-0.1-0.5-0.3-0.7
		c-0.2-0.2-0.4-0.3-0.7-0.3c-0.3,0-0.5,0.1-0.7,0.3c-0.2,0.2-0.3,0.4-0.3,0.7s0.1,0.5,0.3,0.7C323.1,200.8,323.3,200.9,323.6,200.9z
		"/>
	<path id="XMLID_536_" class="st3" d="M332.9,206.5h-4c-0.5,0-1,0.4-1,1s0.4,1,1,1h4c0.3,0,0.6,0.3,0.6,0.6v7.6l-1.7-2.2
		c-0.5-0.7-1.3-1-2.1-1c-0.8,0.1-1.6,0.5-2,1.2l-3.1,5.3l-1.6-2.4c-0.4-0.6-1-0.9-1.7-0.9c-0.7,0-1.3,0.3-1.7,0.9l-2.9,4.1v-12.7
		c0-0.3,0.3-0.6,0.6-0.6h3.1c0.5,0,1-0.4,1-1s-0.4-1-1-1h-3.1c-1.4,0-2.6,1.2-2.6,2.6v15.6c0,1.4,1.2,2.6,2.6,2.6h15.6
		c1.4,0,2.6-1.2,2.6-2.6v-15.6C335.5,207.7,334.3,206.5,332.9,206.5z M316.8,225.1l4.4-6.2c0,0,0-0.1,0.1-0.1c0,0,0,0,0,0
		c0.1,0,0.1,0,0.1,0.1l4.3,6.5h-8.3C317.1,225.3,317,225.2,316.8,225.1z M332.9,225.3H328l-2.2-3.3l3.6-6.2c0.1-0.2,0.3-0.3,0.4-0.3
		c0.1,0,0.3,0,0.5,0.2l3,3.9c0.1,0.1,0.1,0.2,0.2,0.2v4.8C333.5,225,333.3,225.3,332.9,225.3z"/>
	<path id="XMLID_210_" class="st3" d="M325.1,208.5c0.3,0,0.5-0.1,0.7-0.3c0.2-0.2,0.3-0.4,0.3-0.7s-0.1-0.5-0.3-0.7
		c-0.2-0.2-0.4-0.3-0.7-0.3c-0.3,0-0.5,0.1-0.7,0.3c-0.2,0.2-0.3,0.4-0.3,0.7s0.1,0.5,0.3,0.7C324.6,208.4,324.9,208.5,325.1,208.5z
		"/>
	<path id="XMLID_209_" class="st3" d="M334.5,233.9h-18.8c-0.5,0-1,0.4-1,1s0.4,1,1,1h18.8c0.5,0,1-0.4,1-1S335.1,233.9,334.5,233.9
		z"/>
	<path id="XMLID_208_" class="st3" d="M334.5,230h-18.8c-0.5,0-1,0.4-1,1s0.4,1,1,1h18.8c0.5,0,1-0.4,1-1S335.1,230,334.5,230z"/>
	<path id="XMLID_207_" class="st3" d="M328.9,237.8c-0.3,0-0.5,0.1-0.7,0.3c-0.2,0.2-0.3,0.4-0.3,0.7s0.1,0.5,0.3,0.7
		c0.2,0.2,0.4,0.3,0.7,0.3s0.5-0.1,0.7-0.3c0.2-0.2,0.3-0.4,0.3-0.7s-0.1-0.5-0.3-0.7C329.5,237.9,329.2,237.8,328.9,237.8z"/>
	<path id="XMLID_206_" class="st3" d="M325.1,237.8h-9.4c-0.5,0-1,0.4-1,1s0.4,1,1,1h9.4c0.5,0,1-0.4,1-1S325.7,237.8,325.1,237.8z"
		/>
	<path id="XMLID_528_" class="st3" d="M352.2,206.5h-10.6c-1.2,0-2.1,1-2.1,2.1v10.6c0,1.2,1,2.1,2.1,2.1h10.6c1.2,0,2.1-1,2.1-2.1
		v-10.6C354.3,207.5,353.3,206.5,352.2,206.5z M352.3,219.3c0,0.1-0.1,0.2-0.2,0.2h-10.6c-0.1,0-0.2-0.1-0.2-0.2v-10.6
		c0-0.1,0.1-0.2,0.2-0.2h10.6c0.1,0,0.2,0.1,0.2,0.2V219.3z"/>
	<path id="XMLID_525_" class="st3" d="M352.2,225.3h-10.6c-1.2,0-2.1,1-2.1,2.1v10.6c0,1.2,1,2.1,2.1,2.1h10.6c1.2,0,2.1-1,2.1-2.1
		v-10.6C354.3,226.3,353.3,225.3,352.2,225.3z M352.3,238.1c0,0.1-0.1,0.2-0.2,0.2h-10.6c-0.1,0-0.2-0.1-0.2-0.2v-10.6
		c0-0.1,0.1-0.2,0.2-0.2h10.6c0.1,0,0.2,0.1,0.2,0.2V238.1z"/>
	<path id="XMLID_522_" class="st3" d="M349.1,231.2l-2.4-1.4c-0.6-0.3-1.2-0.3-1.8,0s-0.9,0.9-0.9,1.5v2.8c0,0.6,0.3,1.2,0.9,1.5
		c0.3,0.2,0.6,0.2,0.9,0.2c0.3,0,0.6-0.1,0.9-0.2h0l2.4-1.4c0.6-0.3,0.9-0.9,0.9-1.5C350,232.1,349.7,231.5,349.1,231.2z M346,233.8
		v-2.2l1.9,1.1L346,233.8z"/>
	<path id="XMLID_519_" class="st3" d="M349.1,212.4l-2.4-1.4c-0.6-0.3-1.2-0.3-1.8,0c-0.6,0.3-0.9,0.9-0.9,1.5v2.8
		c0,0.6,0.3,1.2,0.9,1.5c0.3,0.2,0.6,0.2,0.9,0.2c0.3,0,0.6-0.1,0.9-0.2l2.4-1.4c0.6-0.3,0.9-0.9,0.9-1.5
		C350,213.3,349.7,212.8,349.1,212.4z M346,215.1v-2.2l1.9,1.1L346,215.1z"/>
</g>
<g id="XMLID_471_">
	<rect id="XMLID_197_" x="241.4" y="219.7" class="st0" width="37.4" height="23.9"/>
	<rect id="XMLID_196_" x="241.4" y="186.6" class="st8" width="37.4" height="16.2"/>
	<polygon id="XMLID_195_" class="st0" points="267.1,202.8 257.6,193.4 248.2,202.8 	"/>
	<polygon id="XMLID_194_" class="st9" points="277.9,202.3 266.1,190.5 260.5,196.2 266.7,202.4 	"/>
	<path id="XMLID_193_" class="st10" d="M221.8,235.2v-23.5c0-1.9,1.5-3.4,3.4-3.4h16.3c1.9,0,3.4,1.5,3.4,3.4v28.4
		c0,1.9-1.5,3.4-3.4,3.4h-16.3c-1.9,0-3.4-1.5-3.4-3.4V235.2"/>
	<rect id="XMLID_192_" x="221.8" y="215.1" class="st1" width="23.2" height="22.2"/>
	<rect id="XMLID_191_" x="268.9" y="207.7" class="st7" width="6.3" height="6.3"/>
	<rect id="XMLID_190_" x="256.8" y="207.7" class="st5" width="6.3" height="6.3"/>
	<rect id="XMLID_189_" x="244.9" y="207.7" class="st11" width="6.3" height="6.3"/>
	<circle id="XMLID_188_" class="st7" cx="233.4" cy="223.9" r="4.2"/>
	<circle id="XMLID_187_" class="st1" cx="259.9" cy="229.1" r="4.2"/>
	<circle id="XMLID_186_" class="st11" cx="248.2" cy="193.5" r="2.3"/>
	<path id="XMLID_497_" class="st3" d="M278.8,185.4h-37.5c-0.6,0-1.2,0.5-1.2,1.2v20.6h-14.9c-2.5,0-4.6,2.1-4.6,4.6v3.3v22.2v2.8
		c0,2.5,2.1,4.6,4.6,4.6h53.6c0.6,0,1.2-0.5,1.2-1.2v-57C280,185.9,279.5,185.4,278.8,185.4z M267.5,201.6l-5.5-5.5l4-4l9.5,9.5
		H267.5z M264.3,201.6H251l6.6-6.6L264.3,201.6z M277.7,187.7v12.8l-10.8-10.8c-0.2-0.2-0.5-0.3-0.8-0.3c-0.3,0-0.6,0.1-0.8,0.3
		l-4.8,4.8l-2-2c-0.5-0.5-1.2-0.5-1.6,0l-9.1,9.1h-5.3v-13.9H277.7z M225.2,209.5h16.3c1.2,0,2.3,1,2.3,2.3v2.2H223v-2.2
		C223,210.5,224,209.5,225.2,209.5z M223,216.2h20.9v19.9H223V216.2z M241.3,242.4h-16c-1.2,0-2.3-1-2.3-2.3v-1.7h20.9v1.7
		c0,1.2-1,2.3-2.3,2.3H241.3z M245.6,242.4c0.4-0.7,0.6-1.4,0.6-2.3v-28.4c0-2.2-1.6-4.1-3.7-4.5V204h35.2v38.5H245.6z"/>
	<path id="XMLID_177_" class="st3" d="M273.3,218.5c-0.3,0-0.6,0.1-0.8,0.3c-0.2,0.2-0.3,0.5-0.3,0.8s0.1,0.6,0.3,0.8
		c0.2,0.2,0.5,0.3,0.8,0.3s0.6-0.1,0.8-0.3c0.2-0.2,0.3-0.5,0.3-0.8s-0.1-0.6-0.3-0.8C273.9,218.7,273.6,218.5,273.3,218.5z"/>
	<path id="XMLID_176_" class="st3" d="M270,219.7c0-0.6-0.5-1.2-1.2-1.2h-19.6c-0.6,0-1.2,0.5-1.2,1.2c0,0.6,0.5,1.2,1.2,1.2h19.6
		C269.5,220.9,270,220.3,270,219.7z"/>
	<path id="XMLID_492_" class="st3" d="M275.1,206.5h-6.3c-0.6,0-1.2,0.5-1.2,1.2v6.3c0,0.6,0.5,1.2,1.2,1.2h6.3
		c0.6,0,1.2-0.5,1.2-1.2v-6.3C276.3,207,275.8,206.5,275.1,206.5z M274,212.8H270v-3.9h3.9V212.8z"/>
	<path id="XMLID_489_" class="st3" d="M256.9,215.1h6.3c0.6,0,1.2-0.5,1.2-1.2v-6.3c0-0.6-0.5-1.2-1.2-1.2h-6.3
		c-0.6,0-1.2,0.5-1.2,1.2v6.3C255.8,214.6,256.3,215.1,256.9,215.1z M258.1,208.8h3.9v3.9h-3.9V208.8z"/>
	<path id="XMLID_171_" class="st3" d="M250.1,212.8h-0.9c-0.6,0-1.2,0.5-1.2,1.2c0,0.6,0.5,1.2,1.2,1.2h2c0.6,0,1.2-0.5,1.2-1.2
		v-6.3c0-0.6-0.5-1.2-1.2-1.2h-3.9c-0.6,0-1.2,0.5-1.2,1.2s0.5,1.2,1.2,1.2h2.7V212.8z"/>
	<path id="XMLID_170_" class="st3" d="M251.4,226.4c-0.5-0.5-1.2-0.5-1.6,0l-1.9,1.9c-0.5,0.5-0.5,1.2,0,1.6l1.9,1.9
		c0.2,0.2,0.5,0.3,0.8,0.3s0.6-0.1,0.8-0.3c0.5-0.5,0.5-1.2,0-1.6l-1.1-1.1l1.1-1.1C251.8,227.6,251.8,226.9,251.4,226.4z"/>
	<path id="XMLID_169_" class="st3" d="M271.5,226.4c-0.5-0.5-1.2-0.5-1.6,0c-0.5,0.5-0.5,1.2,0,1.6l1.1,1.1l-1.1,1.1
		c-0.5,0.5-0.5,1.2,0,1.6c0.2,0.2,0.5,0.3,0.8,0.3s0.6-0.1,0.8-0.3l1.9-1.9c0.2-0.2,0.3-0.5,0.3-0.8s-0.1-0.6-0.3-0.8L271.5,226.4z"
		/>
	<path id="XMLID_168_" class="st3" d="M230.5,212.9h5.7c0.6,0,1.2-0.5,1.2-1.2s-0.5-1.2-1.2-1.2h-5.7c-0.6,0-1.2,0.5-1.2,1.2
		S229.9,212.9,230.5,212.9z"/>
	<path id="XMLID_167_" class="st3" d="M233.4,239.3L233.4,239.3c-0.7,0-1.2,0.5-1.2,1.2c0,0.6,0.5,1.2,1.2,1.2h0
		c0.6,0,1.2-0.5,1.2-1.2C234.6,239.8,234.1,239.3,233.4,239.3z"/>
	<path id="XMLID_481_" class="st3" d="M233.4,229.2c2.9,0,5.3-2.4,5.3-5.3c0-2.9-2.4-5.3-5.3-5.3s-5.3,2.4-5.3,5.3
		C228.1,226.8,230.5,229.2,233.4,229.2z M233.4,220.9c1.7,0,3,1.4,3,3c0,1.7-1.4,3-3,3c-1.7,0-3-1.4-3-3
		C230.4,222.2,231.8,220.9,233.4,220.9z"/>
	<path id="XMLID_164_" class="st3" d="M233.7,231.2h-4.5c-0.6,0-1.2,0.5-1.2,1.2s0.5,1.2,1.2,1.2h4.5c0.6,0,1.2-0.5,1.2-1.2
		S234.3,231.2,233.7,231.2z"/>
	<path id="XMLID_163_" class="st3" d="M237.6,231.2c-0.3,0-0.6,0.1-0.8,0.3s-0.3,0.5-0.3,0.8c0,0.3,0.1,0.6,0.3,0.8
		c0.2,0.2,0.5,0.3,0.8,0.3c0.3,0,0.6-0.1,0.8-0.3c0.2-0.2,0.3-0.5,0.3-0.8c0-0.3-0.1-0.6-0.3-0.8
		C238.2,231.3,237.9,231.2,237.6,231.2z"/>
	<path id="XMLID_476_" class="st3" d="M259.9,223.8c-2.9,0-5.3,2.4-5.3,5.3s2.4,5.3,5.3,5.3s5.3-2.4,5.3-5.3
		S262.9,223.8,259.9,223.8z M259.9,232.1c-1.7,0-3-1.4-3-3s1.4-3,3-3s3,1.4,3,3S261.6,232.1,259.9,232.1z"/>
	<path id="XMLID_160_" class="st3" d="M264.1,236.8h-8.3c-0.6,0-1.2,0.5-1.2,1.2s0.5,1.2,1.2,1.2h8.3c0.6,0,1.2-0.5,1.2-1.2
		S264.7,236.8,264.1,236.8z"/>
	<path id="XMLID_472_" class="st3" d="M248.2,197c1.9,0,3.5-1.6,3.5-3.5c0-1.9-1.6-3.5-3.5-3.5s-3.5,1.6-3.5,3.5
		C244.8,195.4,246.3,197,248.2,197z M248.2,192.4c0.6,0,1.2,0.5,1.2,1.2c0,0.6-0.5,1.2-1.2,1.2c-0.6,0-1.2-0.5-1.2-1.2
		C247.1,192.9,247.6,192.4,248.2,192.4z"/>
</g>
<g id="XMLID_438_">
	<path id="XMLID_157_" class="st1" d="M348.8,79.9H319c-1.4,0-2.6,1.2-2.6,2.6v34.6c0,1.4,1.2,2.6,2.6,2.6h34.5
		c1.4,0,2.6-1.2,2.6-2.6V87.3L348.8,79.9z"/>
	<path id="XMLID_156_" class="st12" d="M348.7,79.9H319c-1.4,0-2.6,1.2-2.6,2.6v3.2h32.3V79.9L348.7,79.9z"/>
	<path id="XMLID_155_" class="st13" d="M356.1,87.3h-4.8c-1.4,0-2.6-1.2-2.6-2.6v-4.8L356.1,87.3z"/>
	<path id="XMLID_154_" class="st6" d="M317.3,85.7h31.1"/>
	<rect id="XMLID_153_" x="326.6" y="89.4" class="st0" width="19.4" height="6.5"/>
	<g id="XMLID_462_">
		<rect id="XMLID_152_" x="344.6" y="102.9" class="st2" width="5.8" height="5.2"/>
		<rect id="XMLID_151_" x="333.3" y="102.9" class="st2" width="5.8" height="5.2"/>
		<rect id="XMLID_150_" x="322" y="102.9" class="st2" width="5.8" height="5.2"/>
	</g>
	<g id="XMLID_458_">
		<circle id="XMLID_149_" class="st7" cx="347.5" cy="113.6" r="2.3"/>
		<circle id="XMLID_148_" class="st7" cx="336.2" cy="113.6" r="2.3"/>
		<circle id="XMLID_147_" class="st7" cx="324.9" cy="113.6" r="2.3"/>
	</g>
	<path id="XMLID_453_" class="st3" d="M356.7,86.8l-7.4-7.4c-0.2-0.2-0.5-0.3-0.7-0.2c-0.1,0-0.1,0-0.2,0H319
		c-1.9,0-3.4,1.5-3.4,3.4V117c0,1.9,1.5,3.4,3.4,3.4h34.5c1.9,0,3.4-1.5,3.4-3.4V87.4C356.9,87.2,356.9,86.9,356.7,86.8z
		 M349.5,81.9l4.7,4.7h-2.9c-1,0-1.8-0.8-1.8-1.8V81.9z M319,80.7h28.9v4c0,0.1,0,0.1,0,0.2h-30.6c0,0,0,0-0.1,0v-2.4
		C317.2,81.5,318,80.7,319,80.7z M353.5,118.8H319c-1,0-1.8-0.8-1.8-1.8V86.5c0,0,0,0,0.1,0h1.6V92c0,0.4,0.4,0.8,0.8,0.8
		s0.8-0.4,0.8-0.8v-5.5h27.9c0,0,0,0,0,0c0.6,1,1.7,1.6,2.9,1.6h4V117C355.3,118,354.5,118.8,353.5,118.8z"/>
	<path id="XMLID_142_" class="st3" d="M333.5,83.6h12.1c0.4,0,0.8-0.4,0.8-0.8S346,82,345.6,82h-12.1c-0.4,0-0.8,0.4-0.8,0.8
		S333.1,83.6,333.5,83.6z"/>
	<path id="XMLID_141_" class="st3" d="M324.3,83.6c0.2,0,0.4-0.1,0.6-0.2c0.2-0.2,0.2-0.4,0.2-0.6s-0.1-0.4-0.2-0.6
		c-0.2-0.2-0.4-0.2-0.6-0.2s-0.4,0.1-0.6,0.2s-0.2,0.4-0.2,0.6s0.1,0.4,0.2,0.6C323.8,83.5,324.1,83.6,324.3,83.6z"/>
	<path id="XMLID_140_" class="st3" d="M320.7,83.6c0.2,0,0.4-0.1,0.6-0.2c0.2-0.2,0.2-0.4,0.2-0.6s-0.1-0.4-0.2-0.6
		c-0.2-0.2-0.4-0.2-0.6-0.2s-0.4,0.1-0.6,0.2s-0.2,0.4-0.2,0.6s0.1,0.4,0.2,0.6C320.3,83.5,320.5,83.6,320.7,83.6z"/>
	<path id="XMLID_139_" class="st3" d="M327.8,83.6c0.2,0,0.4-0.1,0.6-0.2c0.2-0.2,0.2-0.4,0.2-0.6s-0.1-0.4-0.2-0.6
		c-0.2-0.2-0.4-0.2-0.6-0.2s-0.4,0.1-0.6,0.2s-0.2,0.4-0.2,0.6s0.1,0.4,0.2,0.6C327.4,83.5,327.6,83.6,327.8,83.6z"/>
	<path id="XMLID_138_" class="st3" d="M336.6,90.2c0.2,0,0.4-0.1,0.6-0.2c0.2-0.2,0.2-0.4,0.2-0.6s-0.1-0.4-0.2-0.6
		c-0.2-0.2-0.4-0.2-0.6-0.2s-0.4,0.1-0.6,0.2c-0.2,0.2-0.2,0.4-0.2,0.6s0.1,0.4,0.2,0.6C336.2,90.2,336.4,90.2,336.6,90.2z"/>
	<path id="XMLID_440_" class="st3" d="M350.4,102h-2.1v-2.9c0-0.4-0.4-0.8-0.8-0.8H337v-1.6h8.9c0.4,0,0.8-0.4,0.8-0.8v-6.5
		c0-0.4-0.4-0.8-0.8-0.8H340c-0.4,0-0.8,0.4-0.8,0.8s0.4,0.8,0.8,0.8h5.1v4.8h-8.9c0,0,0,0,0,0c0,0,0,0,0,0h-8.9v-4.8h5.2
		c0.4,0,0.8-0.4,0.8-0.8s-0.4-0.8-0.8-0.8h-6c-0.4,0-0.8,0.4-0.8,0.8v6.5c0,0.4,0.4,0.8,0.8,0.8h8.9v1.6h-10.5
		c-0.4,0-0.8,0.4-0.8,0.8v2.9H322c-0.4,0-0.8,0.4-0.8,0.8v5.2c0,0.4,0.4,0.8,0.8,0.8h2.1v1.7c-1.3,0.4-2.3,1.6-2.3,3
		c0,1.7,1.4,3.1,3.1,3.1s3.1-1.4,3.1-3.1c0-1.5-1-2.7-2.3-3v-1.7h2.1c0.4,0,0.8-0.4,0.8-0.8v-5.2c0-0.4-0.4-0.8-0.8-0.8h-2.1v-2.1
		h9.7v2.1h-2.1c-0.4,0-0.8,0.4-0.8,0.8v5.2c0,0.4,0.4,0.8,0.8,0.8h2.1v1.7c-1.3,0.4-2.3,1.6-2.3,3c0,1.7,1.4,3.1,3.1,3.1
		s3.1-1.4,3.1-3.1c0-1.5-1-2.7-2.3-3v-1.7h2.1c0.4,0,0.8-0.4,0.8-0.8v-5.2c0-0.4-0.4-0.8-0.8-0.8H337v-2.1h9.7v2.1h-2.1
		c-0.4,0-0.8,0.4-0.8,0.8v5.2c0,0.4,0.4,0.8,0.8,0.8h2.1v1.7c-1.3,0.4-2.3,1.6-2.3,3c0,1.7,1.4,3.1,3.1,3.1c1.7,0,3.1-1.4,3.1-3.1
		c0-1.5-1-2.7-2.3-3v-1.7h2.1c0.4,0,0.8-0.4,0.8-0.8v-5.2C351.3,102.4,350.9,102,350.4,102z M326.5,113.6c0,0.8-0.7,1.5-1.5,1.5
		s-1.5-0.7-1.5-1.5s0.7-1.5,1.5-1.5S326.5,112.7,326.5,113.6z M327,107.2h-4.2v-3.6h4.2V107.2z M337.8,113.6c0,0.8-0.7,1.5-1.5,1.5
		c-0.8,0-1.5-0.7-1.5-1.5s0.7-1.5,1.5-1.5C337.1,112.1,337.8,112.7,337.8,113.6z M338.3,107.2h-4.2v-3.6h4.2V107.2z M349.1,113.6
		c0,0.8-0.7,1.5-1.5,1.5c-0.8,0-1.5-0.7-1.5-1.5s0.7-1.5,1.5-1.5C348.4,112.1,349.1,112.7,349.1,113.6z M349.6,107.2h-4.2v-3.6h4.2
		V107.2z"/>
	<path id="XMLID_130_" class="st3" d="M319.6,94.2c-0.2,0-0.4,0.1-0.6,0.2c-0.2,0.2-0.2,0.4-0.2,0.6s0.1,0.4,0.2,0.6
		c0.2,0.2,0.4,0.2,0.6,0.2c0.2,0,0.4-0.1,0.6-0.2c0.2-0.2,0.2-0.4,0.2-0.6s-0.1-0.4-0.2-0.6C320.1,94.3,319.9,94.2,319.6,94.2z"/>
</g>
<g id="XMLID_405_">
	<path id="XMLID_129_" class="st1" d="M232.4,153.5H228c-3,0-5.5-2.5-5.5-5.5v-47c0-3,2.5-5.5,5.5-5.5h56.7c3,0,5.5,2.5,5.5,5.5v47
		c0,3-2.5,5.5-5.5,5.5h-5.6H232.4z"/>
	<path id="XMLID_128_" class="st7" d="M284.7,95.5H228c-3,0-5.5,2.5-5.5,5.5v4.4h67.7V101C290.2,98,287.7,95.5,284.7,95.5z"/>
	<path id="XMLID_127_" class="st6" d="M224.1,105.4h65.3"/>
	<rect id="XMLID_126_" x="228.9" y="148" class="st0" width="8.8" height="15.1"/>
	<rect id="XMLID_125_" x="259.7" y="144.4" class="st5" width="8.8" height="18.7"/>
	<rect id="XMLID_124_" x="244.3" y="132.8" class="st11" width="8.8" height="30.3"/>
	<rect id="XMLID_123_" x="275.1" y="130.8" class="st7" width="8.8" height="32.4"/>
	<circle id="XMLID_122_" class="st11" cx="247.9" cy="117.8" r="3.6"/>
	<circle id="XMLID_121_" class="st5" cx="264" cy="134.1" r="3.6"/>
	<circle id="XMLID_120_" class="st7" cx="279.5" cy="117.8" r="3.6"/>
	<circle id="XMLID_119_" class="st0" cx="233.2" cy="132.8" r="3.6"/>
	<path id="XMLID_420_" class="st3" d="M286.8,154.7c2.6,0,4.8-2.2,4.8-4.8V101c0-3.8-3.1-6.9-6.9-6.9H228c-3.8,0-6.9,3.1-6.9,6.9
		v48.9c0,2.6,2.2,4.8,4.8,4.8h1.5v7.1h-5c-0.8,0-1.4,0.6-1.4,1.4s0.6,1.4,1.4,1.4h67.7c0.8,0,1.4-0.6,1.4-1.4s-0.6-1.4-1.4-1.4h-5
		v-7.1H286.8z M228,96.9h56.7c2.3,0,4.1,1.9,4.1,4.1v3h-64.8c0,0-0.1,0-0.1,0v-3C223.9,98.7,225.8,96.9,228,96.9z M230.2,161.8
		v-12.4h6.1v12.4H230.2z M245.7,161.8v-27.6h6.1v27.6H245.7z M261.1,161.8v-16h6.1v16H261.1z M276.5,161.8V147
		c0-0.8-0.6-1.4-1.4-1.4c-0.8,0-1.4,0.6-1.4,1.4v14.8h-3.9v-17.3c0-0.8-0.6-1.4-1.4-1.4h-8.8c-0.8,0-1.4,0.6-1.4,1.4v17.3h-3.9v-29
		c0-0.8-0.6-1.4-1.4-1.4h-8.8c-0.8,0-1.4,0.6-1.4,1.4v29H239V148c0-0.8-0.6-1.4-1.4-1.4h-8.8c-0.8,0-1.4,0.6-1.4,1.4v3.9H226
		c-1.1,0-2.1-0.9-2.1-2.1v-43.1c0,0,0.1,0,0.1,0h64.8v43.1c0,1.1-0.9,2.1-2.1,2.1h-1.5v-21.2c0-0.8-0.6-1.4-1.4-1.4h-8.8
		c-0.8,0-1.4,0.6-1.4,1.4v6.9c0,0.8,0.6,1.4,1.4,1.4c0.8,0,1.4-0.6,1.4-1.4v-5.6h6.1v29.6H276.5z"/>
	<path id="XMLID_112_" class="st3" d="M251.7,101.8h31.1c0.8,0,1.4-0.6,1.4-1.4s-0.6-1.4-1.4-1.4h-31.1c-0.8,0-1.4,0.6-1.4,1.4
		S251,101.8,251.7,101.8z"/>
	<path id="XMLID_111_" class="st3" d="M235.5,101.8c0.4,0,0.7-0.1,1-0.4c0.3-0.3,0.4-0.6,0.4-1s-0.1-0.7-0.4-1
		c-0.3-0.3-0.6-0.4-1-0.4c-0.4,0-0.7,0.1-1,0.4c-0.3,0.3-0.4,0.6-0.4,1s0.1,0.7,0.4,1C234.8,101.7,235.1,101.8,235.5,101.8z"/>
	<path id="XMLID_110_" class="st3" d="M230,101.8c0.4,0,0.7-0.1,1-0.4c0.3-0.3,0.4-0.6,0.4-1s-0.1-0.7-0.4-1c-0.3-0.3-0.6-0.4-1-0.4
		s-0.7,0.1-1,0.4c-0.3,0.3-0.4,0.6-0.4,1s0.1,0.7,0.4,1C229.3,101.7,229.6,101.8,230,101.8z"/>
	<path id="XMLID_109_" class="st3" d="M241,101.8c0.4,0,0.7-0.1,1-0.4c0.3-0.3,0.4-0.6,0.4-1s-0.1-0.7-0.4-1c-0.3-0.3-0.6-0.4-1-0.4
		c-0.4,0-0.7,0.1-1,0.4c-0.3,0.3-0.4,0.6-0.4,1s0.1,0.7,0.4,1C240.3,101.7,240.6,101.8,241,101.8z"/>
	<path id="XMLID_108_" class="st3" d="M275.1,141.2c-0.4,0-0.7,0.1-1,0.4c-0.3,0.3-0.4,0.6-0.4,1c0,0.4,0.1,0.7,0.4,1
		c0.3,0.3,0.6,0.4,1,0.4c0.4,0,0.7-0.1,1-0.4c0.3-0.3,0.4-0.6,0.4-1c0-0.4-0.1-0.7-0.4-1C275.8,141.4,275.4,141.2,275.1,141.2z"/>
	<path id="XMLID_409_" class="st3" d="M279.5,122.7c2.7,0,5-2.2,5-5s-2.2-5-5-5c-2.7,0-5,2.2-5,5c0,1.1,0.4,2.1,0.9,2.9l-9.1,9.1
		c-0.7-0.4-1.5-0.6-2.4-0.6c-0.8,0-1.5,0.2-2.2,0.5l-9.5-9.5c0.4-0.7,0.6-1.5,0.6-2.4c0-2.7-2.2-5-5-5s-5,2.2-5,5
		c0,1,0.3,1.8,0.7,2.6l-8.1,8.1c-0.7-0.4-1.5-0.6-2.4-0.6c-2.7,0-5,2.2-5,5c0,2.7,2.2,5,5,5c2.7,0,5-2.2,5-5c0-0.9-0.2-1.7-0.6-2.4
		l8.2-8.2c0.7,0.3,1.4,0.5,2.2,0.5c0.9,0,1.7-0.2,2.4-0.6l9.4,9.4c-0.5,0.8-0.7,1.6-0.7,2.6c0,2.7,2.2,5,5,5c2.7,0,5-2.2,5-5
		c0-0.9-0.2-1.7-0.6-2.4l9.4-9.4C278.2,122.6,278.8,122.7,279.5,122.7z M279.5,115.6c1.2,0,2.2,1,2.2,2.2s-1,2.2-2.2,2.2
		s-2.2-1-2.2-2.2S278.3,115.6,279.5,115.6z M233.2,135c-1.2,0-2.2-1-2.2-2.2c0-1.2,1-2.2,2.2-2.2s2.2,1,2.2,2.2
		C235.4,134,234.4,135,233.2,135z M247.9,120c-1.2,0-2.2-1-2.2-2.2s1-2.2,2.2-2.2s2.2,1,2.2,2.2S249.1,120,247.9,120z M264,136.3
		c-1.2,0-2.2-1-2.2-2.2s1-2.2,2.2-2.2s2.2,1,2.2,2.2S265.2,136.3,264,136.3z"/>
	<path id="XMLID_102_" class="st3" d="M240.6,114.2c0.4,0,0.7-0.1,1-0.4c0.3-0.3,0.4-0.6,0.4-1s-0.1-0.7-0.4-1
		c-0.3-0.3-0.6-0.4-1-0.4c-0.4,0-0.7,0.1-1,0.4c-0.3,0.3-0.4,0.6-0.4,1s0.1,0.7,0.4,1C239.9,114,240.2,114.2,240.6,114.2z"/>
	<path id="XMLID_101_" class="st3" d="M228.9,114.2h6.6c0.8,0,1.4-0.6,1.4-1.4s-0.6-1.4-1.4-1.4h-6.6c-0.8,0-1.4,0.6-1.4,1.4
		S228.1,114.2,228.9,114.2z"/>
	<path id="XMLID_100_" class="st3" d="M235.5,120.8c0.8,0,1.4-0.6,1.4-1.4c0-0.8-0.6-1.4-1.4-1.4h-6.6c-0.8,0-1.4,0.6-1.4,1.4
		c0,0.8,0.6,1.4,1.4,1.4H235.5z"/>
</g>
<g id="XMLID_366_">
	<path id="XMLID_99_" class="st2" d="M353.4,154.3l-2.1,3.8l-2.1-3.8v-18.4c0-0.8,0.7-1.5,1.5-1.5h1.2c0.8,0,1.5,0.7,1.5,1.5V154.3z
		"/>
	<polygon id="XMLID_98_" class="st14" points="353.4,154.3 349.3,154.3 351.3,158.1 	"/>
	<path id="XMLID_97_" class="st7" d="M351.9,134.4h-1.2c-0.8,0-1.5,0.7-1.5,1.5v2.6h4.1v-2.6C353.4,135.1,352.7,134.4,351.9,134.4z"
		/>
	<path id="XMLID_96_" class="st5" d="M349.9,170.7L349.9,170.7c2,0,3.5-1.6,3.5-3.5V162h-7.1v5.2
		C346.3,169.2,347.9,170.7,349.9,170.7z"/>
	<rect id="XMLID_95_" x="322.3" y="139.7" class="st7" width="18.9" height="6.5"/>
	<g id="XMLID_396_">
		<rect id="XMLID_94_" x="322.3" y="149.2" class="st0" width="3.5" height="3.5"/>
		<rect id="XMLID_93_" x="329.9" y="149.2" class="st0" width="3.5" height="3.5"/>
		<rect id="XMLID_92_" x="337.6" y="149.2" class="st0" width="3.5" height="3.5"/>
	</g>
	<rect id="XMLID_91_" x="322.3" y="162.3" class="st15" width="18.9" height="4.5"/>
	<path id="XMLID_392_" class="st3" d="M353.4,161.3h-3.7c-0.4,0-0.7,0.3-0.7,0.7c0,0.4,0.3,0.7,0.7,0.7h2.9v4.4
		c0,1.5-1.3,2.8-2.8,2.8s-2.8-1.3-2.8-2.8v-32.8c0-0.4-0.3-0.7-0.7-0.7h-18.9h-10.3c-0.4,0-0.7,0.3-0.7,0.7v32.8
		c0,2.4,1.9,4.3,4.3,4.3h29.2c2.4,0,4.3-1.9,4.3-4.3V162C354.1,161.6,353.8,161.3,353.4,161.3z M317.8,167.2v-32h9.5h18.2v32
		c0,1.1,0.4,2.1,1.1,2.8h-26C319.1,170,317.8,168.7,317.8,167.2z"/>
	<path id="XMLID_88_" class="st3" d="M332.2,140.5c0.2,0,0.4-0.1,0.5-0.2c0.1-0.1,0.2-0.3,0.2-0.5c0-0.2-0.1-0.4-0.2-0.5
		c-0.1-0.1-0.3-0.2-0.5-0.2s-0.4,0.1-0.5,0.2c-0.1,0.1-0.2,0.3-0.2,0.5c0,0.2,0.1,0.4,0.2,0.5C331.8,140.4,332,140.5,332.2,140.5z"
		/>
	<path id="XMLID_87_" class="st3" d="M341.1,139h-6.1c-0.4,0-0.7,0.3-0.7,0.7c0,0.4,0.3,0.7,0.7,0.7h5.3v5H323v-5h5.9
		c0.4,0,0.7-0.3,0.7-0.7c0-0.4-0.3-0.7-0.7-0.7h-6.7c-0.4,0-0.7,0.3-0.7,0.7v6.5c0,0.4,0.3,0.7,0.7,0.7h18.9c0.4,0,0.7-0.3,0.7-0.7
		v-6.5C341.9,139.3,341.5,139,341.1,139z"/>
	<path id="XMLID_387_" class="st3" d="M322.3,153.5h3.5c0.4,0,0.7-0.3,0.7-0.7v-3.5c0-0.4-0.3-0.7-0.7-0.7h-3.5
		c-0.4,0-0.7,0.3-0.7,0.7v3.5C321.5,153.1,321.9,153.5,322.3,153.5z M323,149.9h2.1v2.1H323V149.9z"/>
	<path id="XMLID_384_" class="st3" d="M333.5,148.4h-3.5c-0.4,0-0.7,0.3-0.7,0.7v3.5c0,0.4,0.3,0.7,0.7,0.7h3.5
		c0.4,0,0.7-0.3,0.7-0.7v-3.5C334.2,148.8,333.9,148.4,333.5,148.4z M332.7,152h-2.1v-2.1h2.1V152z"/>
	<path id="XMLID_381_" class="st3" d="M341.1,148.4h-3.5c-0.4,0-0.7,0.3-0.7,0.7v3.5c0,0.4,0.3,0.7,0.7,0.7h3.5
		c0.4,0,0.7-0.3,0.7-0.7v-3.5C341.9,148.8,341.5,148.4,341.1,148.4z M340.4,152h-2.1v-2.1h2.1V152z"/>
	<path id="XMLID_80_" class="st3" d="M322.3,156.5h3.5c0.4,0,0.7-0.3,0.7-0.7c0-0.4-0.3-0.7-0.7-0.7h-3.5c-0.4,0-0.7,0.3-0.7,0.7
		C321.5,156.2,321.9,156.5,322.3,156.5z"/>
	<path id="XMLID_79_" class="st3" d="M333.5,155h-3.5c-0.4,0-0.7,0.3-0.7,0.7c0,0.4,0.3,0.7,0.7,0.7h3.5c0.4,0,0.7-0.3,0.7-0.7
		C334.2,155.4,333.9,155,333.5,155z"/>
	<path id="XMLID_78_" class="st3" d="M337.6,156.5h3.5c0.4,0,0.7-0.3,0.7-0.7c0-0.4-0.3-0.7-0.7-0.7h-3.5c-0.4,0-0.7,0.3-0.7,0.7
		C336.9,156.2,337.2,156.5,337.6,156.5z"/>
	<path id="XMLID_77_" class="st3" d="M322.3,159.4h3.5c0.4,0,0.7-0.3,0.7-0.7c0-0.4-0.3-0.7-0.7-0.7h-3.5c-0.4,0-0.7,0.3-0.7,0.7
		C321.5,159.1,321.9,159.4,322.3,159.4z"/>
	<path id="XMLID_374_" class="st3" d="M341.1,161.5h-18.9c-0.4,0-0.7,0.3-0.7,0.7v4.5c0,0.4,0.3,0.7,0.7,0.7h18.9
		c0.4,0,0.7-0.3,0.7-0.7v-4.5C341.9,161.8,341.5,161.5,341.1,161.5z M340.4,166H323v-3h17.4V166z"/>
	<path id="XMLID_74_" class="st3" d="M333.5,158h-3.5c-0.4,0-0.7,0.3-0.7,0.7c0,0.4,0.3,0.7,0.7,0.7h3.5c0.4,0,0.7-0.3,0.7-0.7
		C334.2,158.3,333.9,158,333.5,158z"/>
	<path id="XMLID_73_" class="st3" d="M337.6,159.4h3.5c0.4,0,0.7-0.3,0.7-0.7c0-0.4-0.3-0.7-0.7-0.7h-3.5c-0.4,0-0.7,0.3-0.7,0.7
		C336.9,159.1,337.2,159.4,337.6,159.4z"/>
	<path id="XMLID_72_" class="st3" d="M349.3,144.9c0.2,0,0.4-0.1,0.5-0.2c0.1-0.1,0.2-0.3,0.2-0.5c0-0.2-0.1-0.4-0.2-0.5
		c-0.1-0.1-0.3-0.2-0.5-0.2c-0.2,0-0.4,0.1-0.5,0.2s-0.2,0.3-0.2,0.5c0,0.2,0.1,0.4,0.2,0.5C348.9,144.9,349.1,144.9,349.3,144.9z"
		/>
	<path id="XMLID_367_" class="st3" d="M351.9,133.7h-1.2c-1.2,0-2.2,1-2.2,2.2v5.6c0,0.4,0.3,0.7,0.7,0.7c0.4,0,0.7-0.3,0.7-0.7
		v-2.3h2.7v14.4H350V147c0-0.4-0.3-0.7-0.7-0.7c-0.4,0-0.7,0.3-0.7,0.7v7.4c0,0.1,0,0.2,0.1,0.4l2.1,3.8c0.1,0.2,0.4,0.4,0.6,0.4
		c0.3,0,0.5-0.1,0.6-0.4l2.1-3.8c0.1-0.1,0.1-0.2,0.1-0.4v-18.4C354.1,134.7,353.1,133.7,351.9,133.7z M350,137.7v-1.8
		c0-0.4,0.3-0.8,0.8-0.8h1.2c0.4,0,0.8,0.3,0.8,0.8v1.8H350z M351.3,156.6l-0.8-1.5h1.6L351.3,156.6z"/>
</g>
<g id="XMLID_343_">
	<path id="XMLID_68_" class="st1" d="M440.3,114.7v52.5c0,3.1-2.5,5.6-5.6,5.6h-50.3c-3.1,0-5.6-2.5-5.6-5.6v-57.8
		c0-3.1,2.5-5.6,5.6-5.6h44.4L440.3,114.7z"/>
	<rect id="XMLID_67_" x="387" y="151.8" class="st7" width="11.2" height="11.2"/>
	<rect id="XMLID_66_" x="403.9" y="151.8" class="st5" width="11.2" height="11.2"/>
	<g id="XMLID_360_">
		<rect id="XMLID_65_" x="420.7" y="151.8" class="st0" width="11.2" height="11.2"/>
		<path id="XMLID_64_" class="st0" d="M426.4,125.4L426.4,125.4c3.1,0,5.6-2.5,5.6-5.6l0,0c0-3.1-2.5-5.6-5.6-5.6l0,0
			c-3.1,0-5.6,2.5-5.6,5.6l0,0C420.7,122.9,423.3,125.4,426.4,125.4z"/>
	</g>
	<path id="XMLID_63_" class="st5" d="M409.5,125.4L409.5,125.4c3.1,0,5.6-2.5,5.6-5.6l0,0c0-3.1-2.5-5.6-5.6-5.6l0,0
		c-3.1,0-5.6,2.5-5.6,5.6l0,0C403.9,122.9,406.4,125.4,409.5,125.4z"/>
	<path id="XMLID_62_" class="st7" d="M392.7,125.4L392.7,125.4c3.1,0,5.6-2.5,5.6-5.6l0,0c0-3.1-2.5-5.6-5.6-5.6l0,0
		c-3.1,0-5.6,2.5-5.6,5.6l0,0C387,122.9,389.6,125.4,392.7,125.4z"/>
	<rect id="XMLID_61_" x="397.4" y="132.7" class="st11" width="24.1" height="11.2"/>
	<path id="XMLID_60_" class="st5" d="M440.3,114.7h-5.3c-3.1,0-5.6-2.5-5.6-5.6v-5.3L440.3,114.7z"/>
	<path id="XMLID_59_" class="st3" d="M413.4,139.8c0.4,0,0.7-0.2,1-0.4s0.4-0.6,0.4-1c0-0.4-0.2-0.7-0.4-1c-0.3-0.3-0.6-0.4-1-0.4
		s-0.7,0.1-1,0.4c-0.3,0.3-0.4,0.6-0.4,1s0.2,0.7,0.4,1S413.1,139.8,413.4,139.8z"/>
	<path id="XMLID_58_" class="st3" d="M440.3,141.3c-0.4,0-0.7,0.2-1,0.4c-0.3,0.3-0.4,0.6-0.4,1s0.2,0.7,0.4,1
		c0.3,0.3,0.6,0.4,1,0.4s0.7-0.2,1-0.4c0.3-0.3,0.4-0.6,0.4-1s-0.2-0.7-0.4-1C441,141.4,440.6,141.3,440.3,141.3z"/>
	<path id="XMLID_344_" class="st3" d="M441.2,113.8l-11-11c-0.3-0.3-0.8-0.5-1.3-0.4c-0.1,0-0.2,0-0.3,0h-44.4c-3.9,0-7,3.1-7,7
		v57.8c0,3.9,3.1,7,7,7h50.3c3.9,0,7-3.1,7-7v-17.7c0-0.8-0.6-1.4-1.4-1.4s-1.4,0.6-1.4,1.4v17.7c0,2.3-1.9,4.2-4.2,4.2h-50.3
		c-2.3,0-4.2-1.9-4.2-4.2v-57.8c0-2.3,1.9-4.2,4.2-4.2h43.5v3.9c0,1.6,0.6,3.2,1.5,4.4c-0.9-0.5-2-0.7-3.1-0.7c-3.9,0-7,3.1-7,7
		c0,3.4,2.4,6.2,5.6,6.9v7.2h-2v-1.1c0-0.8-0.6-1.4-1.4-1.4h-10.7v-4.6c3.2-0.7,5.6-3.5,5.6-6.9c0-3.9-3.1-7-7-7c-3.9,0-7,3.1-7,7
		c0,3.4,2.4,6.2,5.6,6.9v4.6h-10.7c-0.8,0-1.4,0.6-1.4,1.4v1.1h-2v-7.2c3.2-0.7,5.6-3.5,5.6-6.9c0-3.9-3.1-7-7-7s-7,3.1-7,7
		c0,3.4,2.4,6.2,5.6,6.9v8.6c0,0.8,0.6,1.4,1.4,1.4h3.4v3.1h-3.4c-0.8,0-1.4,0.6-1.4,1.4v9.3H387c-0.8,0-1.4,0.6-1.4,1.4V163
		c0,0.8,0.6,1.4,1.4,1.4h11.2c0.8,0,1.4-0.6,1.4-1.4v-11.2c0-0.8-0.6-1.4-1.4-1.4h-4.2v-7.9h2v1.4c0,0.8,0.6,1.4,1.4,1.4h10.7v5.1
		h-4.2c-0.8,0-1.4,0.6-1.4,1.4V163c0,0.8,0.6,1.4,1.4,1.4h11.2c0.8,0,1.4-0.6,1.4-1.4v-11.2c0-0.8-0.6-1.4-1.4-1.4h-4.2v-5.1h10.7
		c0.8,0,1.4-0.6,1.4-1.4v-1.4h2v7.9h-4.2c-0.8,0-1.4,0.6-1.4,1.4V163c0,0.8,0.6,1.4,1.4,1.4H432c0.8,0,1.4-0.6,1.4-1.4v-11.2
		c0-0.8-0.6-1.4-1.4-1.4h-4.2v-9.3c0-0.8-0.6-1.4-1.4-1.4H423v-3.1h3.4c0.8,0,1.4-0.6,1.4-1.4v-8.6c3.2-0.7,5.6-3.5,5.6-6.9
		c0-1.6-0.6-3.2-1.5-4.4c0.9,0.5,2,0.7,3.1,0.7h3.9v20.3c0,0.8,0.6,1.4,1.4,1.4s1.4-0.6,1.4-1.4v-21.7
		C441.7,114.4,441.5,114,441.2,113.8z M405.3,119.8c0-2.3,1.9-4.2,4.2-4.2s4.2,1.9,4.2,4.2c0,2.3-1.9,4.2-4.2,4.2
		S405.3,122.1,405.3,119.8z M388.4,119.8c0-2.3,1.9-4.2,4.2-4.2s4.2,1.9,4.2,4.2c0,2.3-1.9,4.2-4.2,4.2S388.4,122.1,388.4,119.8z
		 M396.9,161.6h-8.4v-8.4h8.4V161.6z M413.7,161.6h-8.4v-8.4h8.4V161.6z M430.6,161.6h-8.4v-8.4h8.4V161.6z M420.2,142.5h-21.3v-2.8
		h7.6c0.8,0,1.4-0.6,1.4-1.4s-0.6-1.4-1.4-1.4h-7.6v-2.8h21.3V142.5z M426.4,124c-2.3,0-4.2-1.9-4.2-4.2c0-2.3,1.9-4.2,4.2-4.2
		c2.3,0,4.2,1.9,4.2,4.2C430.6,122.1,428.7,124,426.4,124z M434.9,113.3c-2.3,0-4.2-1.9-4.2-4.2v-1.9l6.2,6.2H434.9z"/>
</g>
<g id="XMLID_319_">
	<path id="XMLID_48_" class="st5" d="M370.5,82.8v2.1c0,3.2,2.6,5.9,5.9,5.9h60.6c3.2,0,5.9-2.6,5.9-5.9v-2.1H370.5z"/>
	<path id="XMLID_47_" class="st4" d="M379.4,38.1h-0.6c-3.2,0-5.9,2.6-5.9,5.9v38.6c0,0.1,0.1,0.2,0.2,0.2h66.9
		c0.1,0,0.2-0.1,0.2-0.2V44c0-3.2-2.6-5.9-5.9-5.9h-0.9C433.5,38.1,379.4,38.1,379.4,38.1z"/>
	<path id="XMLID_46_" class="st1" d="M379.9,70.2V29c0-2.6,2.1-4.7,4.7-4.7h44.1c2.6,0,4.7,2.1,4.7,4.7v41.2c0,2.6-2.1,4.7-4.7,4.7
		h-44.1C382,74.9,379.9,72.8,379.9,70.2z"/>
	<path id="XMLID_45_" class="st7" d="M433.4,29c0-2.6-2.1-4.7-4.7-4.7h-44.1c-2.6,0-4.7,2.1-4.7,4.7v5.9h53.5V29z"/>
	<path id="XMLID_44_" class="st6" d="M381.1,34.9h51.7"/>
	<path id="XMLID_333_" class="st3" d="M442.8,81.3h-1V44c0-3.9-3.1-7.1-6.9-7.3V29c0-3.4-2.8-6.2-6.2-6.2h-44.1
		c-3.4,0-6.2,2.8-6.2,6.2v7.7c-3.8,0.2-6.9,3.4-6.9,7.3V51c0,0.8,0.7,1.5,1.5,1.5c0.8,0,1.5-0.7,1.5-1.5V44c0-2.3,1.7-4.2,4-4.4
		v30.6c0,3.4,2.8,6.2,6.2,6.2h44.1c3.4,0,6.2-2.8,6.2-6.2V39.6c2.2,0.2,4,2.1,4,4.4v37.3h-64.4V63.1c0-0.8-0.7-1.5-1.5-1.5
		c-0.8,0-1.5,0.7-1.5,1.5v18.3h-1c-0.8,0-1.5,0.7-1.5,1.5v2.1c0,4.1,3.3,7.3,7.3,7.3h60.6c4.1,0,7.3-3.3,7.3-7.3v-2.1
		C444.3,82,443.6,81.3,442.8,81.3z M384.6,25.8h44.1c1.8,0,3.2,1.5,3.2,3.2v4.4h-50.6V29C381.3,27.2,382.8,25.8,384.6,25.8z
		 M428.7,73.4h-44.1c-1.8,0-3.2-1.5-3.2-3.2V36.3h50.6v33.8C431.9,71.9,430.5,73.4,428.7,73.4z M441.3,84.9c0,2.4-2,4.4-4.4,4.4
		h-60.6c-2.4,0-4.4-2-4.4-4.4v-0.6h1c0,0,0,0,0,0h67.3c0,0,0,0,0,0h1V84.9z"/>
	<path id="XMLID_39_" class="st3" d="M409.3,85.3H404c-0.8,0-1.5,0.7-1.5,1.5s0.7,1.5,1.5,1.5h5.3c0.8,0,1.5-0.7,1.5-1.5
		S410.1,85.3,409.3,85.3z"/>
	<path id="XMLID_38_" class="st3" d="M373,58.3c0.4,0,0.8-0.2,1-0.4c0.3-0.3,0.4-0.7,0.4-1s-0.2-0.8-0.4-1c-0.3-0.3-0.7-0.4-1-0.4
		c-0.4,0-0.8,0.2-1,0.4c-0.3,0.3-0.4,0.7-0.4,1s0.2,0.8,0.4,1C372.2,58.2,372.6,58.3,373,58.3z"/>
	<path id="XMLID_37_" class="st3" d="M402.9,31.1h24.6c0.8,0,1.5-0.7,1.5-1.5c0-0.8-0.7-1.5-1.5-1.5h-24.6c-0.8,0-1.5,0.7-1.5,1.5
		C401.5,30.4,402.1,31.1,402.9,31.1z"/>
	<path id="XMLID_36_" class="st3" d="M390.1,31.1c0.4,0,0.8-0.2,1-0.4c0.3-0.3,0.4-0.7,0.4-1c0-0.4-0.2-0.8-0.4-1
		c-0.3-0.3-0.7-0.4-1-0.4c-0.4,0-0.8,0.2-1,0.4c-0.3,0.3-0.4,0.7-0.4,1c0,0.4,0.2,0.8,0.4,1S389.7,31.1,390.1,31.1z"/>
	<path id="XMLID_35_" class="st3" d="M385.7,31.1c0.4,0,0.8-0.2,1-0.4c0.3-0.3,0.4-0.7,0.4-1c0-0.4-0.2-0.8-0.4-1
		c-0.3-0.3-0.7-0.4-1-0.4c-0.4,0-0.8,0.2-1,0.4s-0.4,0.7-0.4,1c0,0.4,0.2,0.8,0.4,1S385.4,31.1,385.7,31.1z"/>
	<path id="XMLID_34_" class="st3" d="M394.4,31.1c0.4,0,0.8-0.2,1-0.4c0.3-0.3,0.4-0.7,0.4-1c0-0.4-0.2-0.8-0.4-1s-0.7-0.4-1-0.4
		c-0.4,0-0.8,0.2-1,0.4c-0.3,0.3-0.4,0.7-0.4,1c0,0.4,0.2,0.8,0.4,1S394.1,31.1,394.4,31.1z"/>
	<path id="XMLID_33_" class="st3" d="M396.6,53.5c0.3,0.3,0.7,0.4,1,0.4s0.8-0.1,1-0.4c0.6-0.6,0.6-1.5,0-2.1l-3.9-3.9l3.9-3.9
		c0.6-0.6,0.6-1.5,0-2.1c-0.6-0.6-1.5-0.6-2.1,0l-5,5c-0.6,0.6-0.6,1.5,0,2.1L396.6,53.5z"/>
	<path id="XMLID_32_" class="st3" d="M414.5,53.5c0.3,0.3,0.7,0.4,1,0.4s0.8-0.1,1-0.4l5-5c0.6-0.6,0.6-1.5,0-2.1l-5-5
		c-0.6-0.6-1.5-0.6-2.1,0c-0.6,0.6-0.6,1.5,0,2.1l3.9,3.9l-3.9,3.9C413.9,52,413.9,52.9,414.5,53.5z"/>
	<path id="XMLID_31_" class="st3" d="M402.4,54.7c0.2,0.1,0.5,0.2,0.7,0.2c0.5,0,1-0.3,1.3-0.7l7-11.9c0.4-0.7,0.2-1.6-0.5-2
		c-0.7-0.4-1.6-0.2-2,0.5l-7,11.9C401.4,53.4,401.7,54.3,402.4,54.7z"/>
	<path id="XMLID_30_" class="st3" d="M398.7,60.5c0,0.8,0.7,1.5,1.5,1.5h24.4c0.8,0,1.5-0.7,1.5-1.5s-0.7-1.5-1.5-1.5h-24.4
		C399.4,59,398.7,59.6,398.7,60.5z"/>
	<path id="XMLID_29_" class="st3" d="M387.2,61.9h7.2c0.8,0,1.5-0.7,1.5-1.5s-0.7-1.5-1.5-1.5h-7.2c-0.8,0-1.5,0.7-1.5,1.5
		S386.4,61.9,387.2,61.9z"/>
	<path id="XMLID_28_" class="st3" d="M419,66h-31.8c-0.8,0-1.5,0.7-1.5,1.5c0,0.8,0.7,1.5,1.5,1.5H419c0.8,0,1.5-0.7,1.5-1.5
		C420.5,66.7,419.8,66,419,66z"/>
	<path id="XMLID_27_" class="st3" d="M424.6,66c-0.4,0-0.8,0.2-1,0.4c-0.3,0.3-0.4,0.7-0.4,1c0,0.4,0.2,0.8,0.4,1
		c0.3,0.3,0.7,0.4,1,0.4s0.8-0.2,1-0.4c0.3-0.3,0.4-0.7,0.4-1c0-0.4-0.2-0.8-0.4-1S425,66,424.6,66z"/>
</g>
<g id="XMLID_291_">
	<rect id="XMLID_26_" x="403.6" y="230.2" class="st4" width="9.8" height="6.4"/>
	<path id="XMLID_25_" class="st5" d="M397.4,241h22.2v-0.9c0-2-1.6-3.5-3.5-3.5h-15.1c-2,0-3.5,1.6-3.5,3.5L397.4,241L397.4,241z"/>
	<path id="XMLID_24_" class="st1" d="M432.2,190.9c2,0,3.5,1.6,3.5,3.5v31.3c0,2.4-2,4.4-4.4,4.4h-45.7c-2.4,0-4.4-2-4.4-4.4v-31.3
		c0-2,1.6-3.5,3.5-3.5H432.2z"/>
	<polygon id="XMLID_23_" class="st11" points="397,221.3 397,197.3 392.1,186.5 387.2,197.3 387.2,221.3 	"/>
	<polygon id="XMLID_22_" class="st14" points="397,197.3 392.1,186.5 387.2,197.3 	"/>
	<path id="XMLID_21_" class="st5" d="M381.2,221.3v4.5c0,2.4,2,4.4,4.4,4.4h45.7c2.4,0,4.4-2,4.4-4.4v-4.5H381.2z"/>
	<polyline id="XMLID_20_" class="st10" points="403.6,221.3 403.6,203.9 413.4,203.9 413.4,221.3 	"/>
	<rect id="XMLID_19_" x="420.9" y="186.5" class="st2" width="8.9" height="34.8"/>
	<polygon id="XMLID_18_" class="st5" points="408.4,186.5 408.4,186.5 408.4,186.5 408.4,186.5 408.4,186.5 401.8,198.4 
		403.6,203.9 413.4,203.9 415.4,198.4 	"/>
	<polygon id="XMLID_17_" class="st16" points="389.1,193.1 395.1,193.1 392.1,186.5 	"/>
	<path id="XMLID_16_" class="st3" d="M408.6,224.6c-0.6,0-1.1,0.5-1.1,1.1s0.5,1.1,1.1,1.1h0c0.6,0,1.1-0.5,1.1-1.1
		S409.2,224.6,408.6,224.6z"/>
	<path id="XMLID_295_" class="st3" d="M432.2,189.8h-1.3v-3.3c0-0.6-0.5-1.1-1.1-1.1h-8.9c-0.6,0-1.1,0.5-1.1,1.1v33.7h-5.3v-16.1
		l2-5.3c0.1-0.3,0.1-0.7-0.1-0.9l-3.4-5.8h3.2c0.6,0,1.1-0.5,1.1-1.1c0-0.6-0.5-1.1-1.1-1.1h-4.5l-2.3-3.9c-0.2-0.3-0.6-0.6-1-0.5
		c-0.4,0-0.8,0.2-1,0.6l-6.7,11.9c-0.2,0.3-0.2,0.6-0.1,0.9l1.8,5.4v16.1h-4.4v-22.9c0-0.2,0-0.3-0.1-0.5l-2.2-4.8h5
		c0.6,0,1.1-0.5,1.1-1.1c0-0.6-0.5-1.1-1.1-1.1H395c-0.1,0-0.1,0-0.2,0l-1.7-3.8c-0.2-0.4-0.6-0.6-1-0.6c-0.4,0-0.8,0.3-1,0.6
		l-1.7,3.8h-4.6c-2.6,0-4.7,2.1-4.7,4.7v31.3c0,3.1,2.5,5.5,5.5,5.5h16.8v4.2h-1.6c-2.6,0-4.7,2.1-4.7,4.7v0.9
		c0,0.6,0.5,1.1,1.1,1.1h22.2c0.6,0,1.1-0.5,1.1-1.1v-0.9c0-2.6-2.1-4.7-4.7-4.7h-1.6v-4.2h16.8c3.1,0,5.5-2.5,5.5-5.5v-31.3
		C436.8,191.9,434.8,189.8,432.2,189.8z M422,218.7h2.4c0.6,0,1.1-0.5,1.1-1.1c0-0.6-0.5-1.1-1.1-1.1H422v-2.2h1
		c0.6,0,1.1-0.5,1.1-1.1c0-0.6-0.5-1.1-1.1-1.1h-1v-2.2h2.4c0.6,0,1.1-0.5,1.1-1.1c0-0.6-0.5-1.1-1.1-1.1H422v-2.2h1
		c0.6,0,1.1-0.5,1.1-1.1c0-0.6-0.5-1.1-1.1-1.1h-1v-2.2h2.4c0.6,0,1.1-0.5,1.1-1.1c0-0.6-0.5-1.1-1.1-1.1H422v-2.2h1
		c0.6,0,1.1-0.5,1.1-1.1c0-0.6-0.5-1.1-1.1-1.1h-1v-2.2h2.4c0.6,0,1.1-0.5,1.1-1.1c0-0.6-0.5-1.1-1.1-1.1H422v-2.2h6.7v32.6H422
		V218.7z M407.4,190.7v3.9c0,0.6,0.5,1.1,1.1,1.1s1.1-0.5,1.1-1.1v-4l4.6,7.8l-1.6,4.3h-8.2l-1.4-4.3L407.4,190.7z M409.3,211.1
		c-0.6,0-1.1,0.5-1.1,1.1v8h-3.5V205h7.5v15.2h-1.8v-8C410.4,211.6,409.9,211.1,409.3,211.1z M395.3,196.2h-6.3l0.9-2h4.5
		L395.3,196.2z M388.3,198.4h7.6v21.8h-7.6V198.4z M392.1,189.2l1.3,2.8h-2.5L392.1,189.2z M382.3,194.5c0-1.3,1.1-2.4,2.4-2.4h3.6
		l-2.2,4.8c-0.1,0.1-0.1,0.3-0.1,0.5v22.9h-3.8C382.3,220.2,382.3,194.5,382.3,194.5z M416,237.7c1.3,0,2.3,1,2.4,2.2h-19.9
		c0.1-1.2,1.2-2.2,2.4-2.2h2.7h9.8H416z M404.7,235.5v-4.2h7.5v4.2H404.7z M434.6,225.8c0,1.8-1.5,3.3-3.3,3.3h-18h-9.8h-18
		c-1.8,0-3.3-1.5-3.3-3.3v-3.3h38.6h8.9h4.9L434.6,225.8L434.6,225.8z M434.6,220.2h-3.8v-28.2h1.3c1.3,0,2.4,1.1,2.4,2.4V220.2z"/>
	<path id="XMLID_3_" class="st3" d="M391.2,206.3c-0.6,0-1.1,0.5-1.1,1.1v8.1c0,0.6,0.5,1.1,1.1,1.1s1.1-0.5,1.1-1.1v-8.1
		C392.3,206.8,391.8,206.3,391.2,206.3z"/>
	<path id="XMLID_2_" class="st3" d="M391.2,204.2c0.3,0,0.6-0.1,0.8-0.3c0.2-0.2,0.3-0.5,0.3-0.8c0-0.3-0.1-0.6-0.3-0.8
		c-0.2-0.2-0.5-0.3-0.8-0.3c-0.3,0-0.6,0.1-0.8,0.3c-0.2,0.2-0.3,0.5-0.3,0.8c0,0.3,0.1,0.6,0.3,0.8
		C390.6,204.1,390.9,204.2,391.2,204.2z"/>
	<path id="XMLID_1_" class="st3" d="M408.5,199.5c0.3,0,0.6-0.1,0.8-0.3c0.2-0.2,0.3-0.5,0.3-0.8c0-0.3-0.1-0.6-0.3-0.8
		c-0.2-0.2-0.5-0.3-0.8-0.3s-0.6,0.1-0.8,0.3c-0.2,0.2-0.3,0.5-0.3,0.8c0,0.3,0.1,0.6,0.3,0.8C407.9,199.4,408.2,199.5,408.5,199.5z
		"/>
</g>
<g id="face">
	<g id="XMLID_460_">
		<g id="XMLID_329_">
			<path id="XMLID_331_" class="st17" d="M177.4,116.8c4.5,29.4-27.8,110.4-71.3,109.9C62.9,226.1,35,145,34.9,116.8
				c0-1.3,0-12.5,1-27.3c1-17,1.7-27,3.4-33.8C45,32.6,73.2,5,106.2,6.9c33,1.9,55.4,32.5,60.7,52.8c1.4,5.3,3.6,17.6,6.8,35.1
				C175.6,105.8,177.2,115.2,177.4,116.8z"/>
			<path id="XMLID_330_" class="st18" d="M177.4,116.8c4.5,29.4-27.8,110.4-71.3,109.9C62.9,226.1,35,145,34.9,116.8
				c0-1.3,0-12.5,1-27.3c1-17,1.7-27,3.4-33.8C45,32.6,73.2,5,106.2,6.9c33,1.9,55.4,32.5,60.7,52.8c1.4,5.3,3.6,17.6,6.8,35.1
				C175.6,105.8,177.2,115.2,177.4,116.8z"/>
		</g>
	</g>
	<path id="XMLID_459_" class="st19" d="M167.7,87.7c-1-1.7-6-10.1-6-10.1l-3.4-2.9l-7.7-1.5H145l-7.4,1h-6.7l2.2-2.2h-1.2l-1-2.9
		h14.4h9.5l7,2.9l3.8,6.4L167.7,87.7z"/>
	<polygon id="XMLID_452_" class="st18" points="154.2,104.4 148,104.4 143.9,102.5 139.8,101 136.2,99.7 140.3,101.7 143.9,103.4 
		147,104.9 149.2,105.5 	"/>
	<path id="XMLID_446_" class="st20" d="M124.6,96.8l2.4,3.8l3.8,3.6l4,4l7.3,5.5l-4.8-1.9l-4-2.7c-0.9-0.8-1.8-1.5-2.7-2.2
		c-0.3-0.3-0.6-0.6-0.9-0.9l-1,2.3l-4-1l-5.7-4.7l-3.5-4.2l4.8-1.7L124.6,96.8L124.6,96.8z"/>
	<g id="XMLID_447_">
		<g id="XMLID_325_">
			<polygon id="XMLID_327_" class="st21" points="86.6,141.1 89.7,141.8 96.9,138.7 98.6,138.2 102.4,140 107,140 113.2,139.5 
				117.6,140 123.3,140.7 128.3,140 130.6,136.3 128,133.2 123.6,131.9 116.9,130.1 109.7,132.1 102.9,131.9 98.2,128.6 94.2,131.2 
				91.7,131 87.5,132 84.6,131.9 83.1,132.1 83.1,135.2 			"/>
			<polygon id="XMLID_326_" class="st18" points="86.6,141.1 89.7,141.8 96.9,138.7 98.6,138.2 102.4,140 107,140 113.2,139.5 
				117.6,140 123.3,140.7 128.3,140 130.6,136.3 128,133.2 123.6,131.9 116.9,130.1 109.7,132.1 102.9,131.9 98.2,128.6 94.2,131.2 
				91.7,131 87.5,132 84.6,131.9 83.1,132.1 83.1,135.2 			"/>
		</g>
	</g>
	<path id="XMLID_324_" class="st19" d="M151.5,186.3c-0.9-3.6-7.7-19-7.7-19l-6.2-9.9l-10.6-9.7l-7.7-4.4l-8.9,2.9l-1.7-0.2l-7.3-4
		l-12.8,6.9l-9.3,8.6l-9.1,13.3c-2.9,8-5.9,16.1-8.8,24.2c2,2.7,3.9,5.4,5.9,8.1c2.7-10.3,5.3-20.7,8-31l8.9-12.4l11.8-7.7l3.2-0.4
		l7.7,2.7l8.5-2.4l7,1.7l8.2,7.3l5.4,7.3l7.7,15.2l2.2,7.1L151.5,186.3z"/>
	<g id="XMLID_455_">
		<g id="XMLID_320_">
			<polygon id="XMLID_322_" class="st22" points="78.6,173.3 87.5,171.6 97.6,168.4 101.2,167.9 106.9,169.6 115.4,167.9 
				121.4,167.9 127.8,169.6 134.9,170.6 125.4,180.8 110.4,182 100.3,181.9 90.5,180.8 			"/>
			<polygon id="XMLID_321_" class="st18" points="78.6,173.3 87.5,171.6 97.6,168.4 101.2,167.9 106.9,169.6 115.4,167.9 
				121.4,167.9 127.8,169.6 134.9,170.6 125.4,180.8 110.4,182 100.3,181.9 90.5,180.8 			"/>
		</g>
	</g>
	<polygon id="XMLID_454_" class="st23" points="132.9,163.8 127.7,158.1 122.4,153.4 115.4,151.6 106.9,154.1 98.4,151.5 96,151.9 
		84.2,159.6 82.6,161.8 90.5,159.6 96,161.6 101.8,161.6 106.7,160.3 109,163 116.7,163.8 122.4,163.1 126,160.3 131.6,163.8 	"/>
	<polygon id="XMLID_318_" class="st24" points="79.6,198.9 92.2,211 105.4,206.8 101.5,195.2 94,193.5 	"/>
	<path id="XMLID_441_" class="st25" d="M115.4,193.8l-2.7,13l2.7,2l9.8-3.2l2.2-5c-0.8-2.5-1.5-5-2.3-7.5
		C121.8,193.3,118.6,193.6,115.4,193.8z"/>
	<path id="XMLID_317_" class="st26" d="M87.5,141.3l-13.5,15l-8.4-8.7l-2.9-12.4l-9.1-12.7l-9-8.7l-7-4l-2.4-4.5l-2.7,19.6l1.6,11.4
		l10.8,27.4l10.4,20.8c2.1,3.8,4.2,7.5,6.3,11.3c2.7-9.2,6.4-19.4,11.8-29.9c1.5-2.9,3-5.7,4.5-8.3c4.5-3.5,9.1-6.9,13.5-10.4
		l10-5.4l-2.8-3.6L87.5,141.3z"/>
	<g id="XMLID_485_">
		<g id="XMLID_313_">
			<path id="XMLID_315_" class="st27" d="M179,124.9c1.3,9.6,2.7,19.3,4,28.9c0.1,8.1-0.7,19.2-4.5,31.6c-2.2,7.1-4.9,13.1-7.5,18.1
				c-3.8,6.8-9.9,16.5-18.1,25.6c-5.2,5.8-9.1,8.9-11.3,10.5c-3.9,2.9-7.4,5-10.1,6.4c4.8-18.6,9.6-37.1,14.5-55.8l5.5-5.7
				l15.6-20.5l5.4-16.5L179,124.9z"/>
			<path id="XMLID_314_" class="st18" d="M179,124.9c1.3,9.6,2.7,19.3,4,28.9c0.1,8.1-0.7,19.2-4.5,31.6c-2.2,7.1-4.9,13.1-7.5,18.1
				c-3.8,6.8-9.9,16.5-18.1,25.6c-5.2,5.8-9.1,8.9-11.3,10.5c-3.9,2.9-7.4,5-10.1,6.4c4.8-18.6,9.6-37.1,14.5-55.8l5.5-5.7
				l15.6-20.5l5.4-16.5L179,124.9z"/>
		</g>
	</g>
	<path id="XMLID_484_" class="st19" d="M32.9,119.2c-1.1,11.7-2.2,23.2-3.4,34.9c0.8,8.4,2.2,17.9,4.7,28.1c1.5,6.1,3.1,11.7,5,16.9
		c1.7,4.8,3.6,8.9,5.4,12.1c1.4,2.6,3.4,6.3,6.7,10.5c0.9,1.1,2.7,3.4,6.3,7.7c1.6,2,2.9,3.5,3,3.6c4,4.9,17.2,13.3,27.2,19.3
		c-8.9-21.6-17.7-43.3-26.6-64.9l-5.2-5.9l-14.7-21.2l-4.7-16.7C35.2,135.3,34.1,127.3,32.9,119.2z"/>
	<polygon id="XMLID_483_" class="st28" points="130.6,169.6 126.6,169.6 120.5,167.9 111.6,168.7 106.9,169.6 101.2,167.9 96,168.7 
		89.1,170.7 77.8,173.3 85.1,162.1 90.3,160.3 99.5,162.4 105.5,160.3 109,163 114.1,162.6 121,164.1 126,160.3 132.9,166.1 	"/>
	<polygon id="XMLID_482_" class="st28" points="134.6,171.6 125.4,180.8 110.4,182 101.2,182 90.5,180.8 80.8,175.6 77.8,173.3 
		79.6,198.9 94,193.5 101.5,195.2 105.4,206.8 112.7,206.8 115.4,193.8 124.5,195.8 128.8,203 136.2,189.2 132.9,185.4 	"/>
	<path id="XMLID_450_" class="st29" d="M73.9,77.1l11.3,4.5l5.7,7.7l1.3,6.5l-4.1,4l-7.3,7.2c1.8-0.8,3.6-1.5,5.4-2.2
		c0.7-0.4,1.5-0.8,2.2-1.2l-0.9,3.4l13.7-10.1L99.5,92L96,95.6v-7.2l-3.7-5.7c-0.4-0.8-1.4-2.5-3.4-3.8c-1-0.6-1.9-0.9-2.6-1
		c-1.8-0.3-3.6-0.6-5.4-0.8L73.9,77.1L73.9,77.1z"/>
	<polygon id="XMLID_449_" class="st30" points="84.9,124.9 90.1,124.9 96,117.1 101.1,109.6 102.7,102.7 102.7,97.6 102.7,93.6 
		101.1,89.8 101.1,82.9 96.9,76 88.7,71.1 80.4,71.1 72,71.1 69.5,71.1 69.5,72.4 72.3,77.1 80.9,77.1 87.5,78.5 93,83.7 96,88.4 
		96,95.6 99.4,92 101.1,96.8 88.4,106.2 88.3,103.5 80.8,106.9 73.9,111.1 75.5,112.3 78.7,113.8 78.9,114.6 86.1,112 82.2,116.8 
		83.1,124.9 	"/>
	<path id="XMLID_448_" class="st31" d="M127.8,68.5l-10.3,7.4l-4.3,9.8l-2.2,6.2l-5.8,1.7l-2.6-0.1l-0.8,15.4l4-3.5l0.3-5.7h4.5
		l-0.7,8l5.3,7.4l8,7.1l5.4,4.2l-0.7-5.7l-6.8-6l-2.7-4.8l10.3,6.7l0.7-5.7l-0.8-2.7l-4-1l-7.4-6.7c-0.6-1.1-1.3-2.2-2-3.4
		c0.6-2.8,1.3-5.5,2-8.3l2.9-5.4l5.2-6.6l8-1.3l9.4-2.2l-5.1,0.6h-6.7l2.2-2.2h-1.2l-1-2.9h14.4l-13.5-1.5L127.8,68.5z"/>
	<path id="XMLID_439_" class="st20" d="M145,73.3l-6.9,3.8l-8.3,2.7l-5.2,3.8l-2.4,5v4.5L124,96l-8.7,2.5c-0.1-0.6-0.2-1.1-0.3-1.7
		c0.7-2.6,1.4-5.2,2.1-7.7c0.6-1.6,1.4-3.6,2.7-5.7c1.8-2.9,3.8-4.9,5.4-6.3c3.7-0.6,7.3-1.3,11-2L145,73.3z"/>
	<path id="XMLID_436_" class="st32" d="M170.4,116.2c0.8,0.6,1.8,1.3,2.8,2.4c1.3,1.4,2.2,2.8,2.7,3.8c0.3,1.3,0.7,2.8,1,4.4
		c0.2,1.3,0.3,2.5,0.4,3.7c-3.3,10.9-6.6,21.8-9.9,32.7l-16,21.4l-9.2-19.8l-4.6-7.4l-10.6-9.7l-7.7-4.4l-7.5,2.4l1.5-6.3l8.4,1
		l8.2,3.1l17.5,7.9c0.9-0.4,1.8-0.8,2.7-1.2c0.9-1.5,1.8-3.1,2.7-4.6c1-3.5,2.1-7,3.2-10.5l-6.6-6.6l-7.1-5.6l-6.8-2.3l-5.6,0.2
		l-2.5-0.8l-6.1-5.3l-2.7-4.8l9.2,6l1.1,0.7l0.7-5.7l-0.8-2.7l1-2.3l3.6,3.1l7.2,4.5h3.4L170.4,116.2z"/>
	<g id="XMLID_445_">
		<g id="XMLID_309_">
			<path id="XMLID_311_" class="st33" d="M33.4,119.6c-0.8,12.6-1.5,25.3-2.4,38l9.4,31.6l14.2,31.8l19.3,19.7l14,11.9
				c5.9,1,11.7,1.9,17.5,2.9c13.8,0.4,26.1-5.5,31.4-15.7c2.7-5.1,3-10.2,2.9-13.8c-3.6-5-7.3-10-10.9-15
				c-17.2,0.2-34.3,0.5-51.4,0.7c-5.1-4.9-10.1-9.8-15.2-14.7c-2.3-4.1-4.6-8.2-6.9-12.4c-3.1-6.5-6.1-13-9.3-19.5
				c-1.2-2.4-2.4-5-3.6-7.4l-8.4-21.3C33.8,130.8,33.6,125.2,33.4,119.6z"/>
			<path id="XMLID_310_" class="st18" d="M33.4,119.6c-0.8,12.6-1.5,25.3-2.4,38l9.4,31.6l14.2,31.8l19.3,19.7l14,11.9
				c5.9,1,11.7,1.9,17.5,2.9c13.8,0.4,26.1-5.5,31.4-15.7c2.7-5.1,3-10.2,2.9-13.8c-3.6-5-7.3-10-10.9-15
				c-17.2,0.2-34.3,0.5-51.4,0.7c-5.1-4.9-10.1-9.8-15.2-14.7c-2.3-4.1-4.6-8.2-6.9-12.4c-3.1-6.5-6.1-13-9.3-19.5
				c-1.2-2.4-2.4-5-3.6-7.4l-8.4-21.3C33.8,130.8,33.6,125.2,33.4,119.6z"/>
		</g>
	</g>
	<polygon id="XMLID_443_" class="st34" points="63.9,73.3 59.5,69.9 53.8,71.6 48.7,75.6 47,79.9 52.1,76.3 58.6,74.3 	"/>
	<path id="XMLID_442_" class="st34" d="M68.6,72.9c-1.4-1.3-2.8-2.4-4.2-3.7l8.5-1.5h5.9l7.8,0.8l-1.5,3.6H73
		C71.5,72.5,70.1,72.7,68.6,72.9z"/>
	<path id="XMLID_437_" class="st35" d="M138.1,77.1l8.4,1.4c1.2-0.1,2.4-0.2,3.6-0.3c1.2,0.8,2.4,1.5,3.5,2.4
		c2.9,2.4,5.7,4.8,8.5,7.2l2.9,4.3v4.8c-0.4,0.8-0.8,1.7-1.3,2.5c-1,0.9-2.1,1.7-3.2,2.7c-2.6,1.1-5.1,2.2-7.7,3.4
		c1.8,1.7,3.6,3.5,5.4,5.2c3.1,0.6,6.4,1.2,9.5,1.8l5.4,2.5l-1.7-14.7v-8.2l-4.7-9.2l1.1,4.9l-6-10.1l-3.4-2.9l-6.4-1.2l-7-0.2
		L138.1,77.1z"/>
	<path id="XMLID_435_" class="st36" d="M84.9,124.9l-2.3,3.7c0,0.5,0.1,1,0.1,1.5c0.1,0.8,0.3,1.4,0.4,2c1.3,0.3,3.2,0.5,5.4,0.3
		c1.5-0.1,2.9-0.4,3.9-0.8c0.6-0.1,1.2-0.3,1.7-0.5l2.9-1.8h-5.7l-3.9-0.8l2.6-3.6H84.9z"/>
	<g id="XMLID_304_">
		<g id="XMLID_305_">
			<polygon id="XMLID_307_" class="st37" points="128.8,126.5 130.8,131.3 130.6,136.3 128,133.2 120.1,131 124.6,129.3 
				125.4,127.3 121.1,123.6 116.9,120.4 114.6,117.1 114.3,113.8 			"/>
			<polygon id="XMLID_306_" class="st18" points="128.8,126.5 130.8,131.3 130.6,136.3 128,133.2 120.1,131 124.6,129.3 
				125.4,127.3 121.1,123.6 116.9,120.4 114.6,117.1 114.3,113.8 			"/>
		</g>
	</g>
	<polygon id="XMLID_480_" class="st26" points="86.6,21 69,35.4 55.4,47.9 50,59.7 40.2,72.9 40.2,77.1 57.4,65.5 75.5,62.3 
		88,58.3 97.1,49.1 99,38.6 92.5,30.7 107.7,26.8 122.6,31.1 128.8,44 123.5,51.5 128.8,59 145.2,64 158.5,67.8 167.7,74.9 
		162.1,57.9 151,42.9 132.9,26 120.1,18.5 99.3,16.4 	"/>
	<polygon id="XMLID_479_" class="st24" points="77.1,152.9 73.9,156.4 65.5,147.6 62.6,135.2 53.4,122.6 44.5,113.8 51.2,116.3 
		60.7,121 67.9,119.8 71.8,134.3 73.9,144.7 77.8,148.4 80.1,147.2 87.5,141.3 77.1,153.4 	"/>
	<path id="XMLID_478_" class="st38" d="M73.9,76.6c-3.8,1.1-7.7,2.2-11.4,3.3l-1.5,3.8c-0.7,0.9-1.5,1.8-2.2,2.7c-1.7,1-3.4,2-5,3
		c-1.3,0.8-2.6,1.7-3.8,2.5c0.2-1.3,0.4-2.5,0.7-3.8c-0.5-0.6-1-1.3-1.5-1.8L46,85.9l-1.6-2.5l3.4-4.1l4.3-2.9l11.7-3l5.6-0.9
		C70.9,73.8,72.4,75.2,73.9,76.6z"/>
	<polygon id="XMLID_477_" class="st39" points="146,190.3 128.8,211 138.1,236.7 	"/>
	<polygon id="XMLID_303_" class="st40" points="40.2,87 37.5,99.7 40.2,110.2 44.5,113.8 47,105.5 51.2,98 47,92 46.1,85.9 	"/>
	<path id="XMLID_475_" class="st24" d="M139.8,122.3c2.4,2.6,4.9,5.2,7.3,7.8c0.7,0.8,2.7,3,3,6.4c0.1,1.5-0.1,2.7-0.4,3.6
		c-1,1.2-1.9,2.4-2.9,3.6c-2.7-0.1-5.2-0.1-7.9-0.2c-5.7-0.9-11.3-1.8-17-2.7c4.5,1.9,9.1,3.7,13.7,5.6c3.8,1.7,7.7,3.5,11.4,5.2
		c0.9-0.3,1.8-0.7,2.7-1c0.5-0.9,1-1.8,1.5-2.7l3.4-5.8l1-6.6c-1.5-1.9-3.1-3.7-4.5-5.6c-1.7-2-4.6-4.7-8.7-6.4
		C141.6,122.9,140.7,122.5,139.8,122.3z"/>
	<path id="XMLID_474_" class="st41" d="M116.4,126c0.2,1.4,0.3,2.7,0.6,4.1c-1.5,0.7-3.5,1.5-5.9,2c-2.2,0.5-4.2,0.6-5.8,0.6
		c-0.9-0.1-2.4-0.4-4-1.4c-1.5-0.9-2.4-2-2.9-2.7c-1.3-1.3-2.7-2.5-4-3.7h-4l11-15.4c-0.3,1-0.6,1.9-0.9,2.9
		c-0.3,1.5-0.6,2.9-0.8,4.5c-0.2,1-0.4,2.1-0.7,3.1c0.1,1.7,0.1,3.4,0.2,5c0.1,0.5,0.5,1.1,1,1.8c0.7,0.8,1.5,1.3,2,1.6
		c1,0.4,2.3,0.8,4,1c2.6,0.2,4.7-0.4,5.9-0.8c0.5-0.4,0.9-0.8,1.4-1.2c0.4-3.4,0.9-6.6,1.3-10C115.1,120.3,115.7,123.1,116.4,126z"
		/>
	<g id="glasses" class="st42">
		<g id="XMLID_434_">
			<g id="XMLID_290_">
				<g id="XMLID_292_">
					<g id="XMLID_299_" class="st43">
						<circle id="XMLID_301_" class="st44" cx="69.6" cy="96.2" r="28.1"/>
						<circle id="XMLID_300_" class="st45" cx="69.6" cy="96.2" r="28.1"/>
					</g>
					<g id="XMLID_296_" class="st46">
						<circle id="XMLID_298_" class="st44" cx="145.8" cy="97.4" r="28.1"/>
						<circle id="XMLID_297_" class="st45" cx="145.8" cy="97.4" r="28.1"/>
					</g>
					<rect id="XMLID_294_" x="36" y="90.7" class="st47" width="5.4" height="10.9"/>
					<rect id="XMLID_293_" x="174.1" y="90.7" class="st47" width="5.4" height="10.9"/>
				</g>
			</g>
		</g>
		<path id="XMLID_433_" class="st47" d="M117.3,101c-0.4-0.5-4-5-10.2-5c-6.1,0.1-9.6,4.5-10,5c0-2.9,0-5.7,0-8.5h20.2L117.3,101
			L117.3,101z"/>
	</g>
</g>
<g id="humaneyes">
	<g id="XMLID_470_">
		<path id="XMLID_432_" class="st1" d="M88,93.3c0.3,6.2-9.1,12.5-17.5,11.9c-6.9-0.5-15-5.7-14.7-11.9c0.3-5.9,8.1-9.9,14-10.5
			C77.9,81.9,87.7,87,88,93.3z"/>
		<path id="XMLID_431_" class="st1" d="M158.3,93.4c0.3,6.2-9.1,12.5-17.5,11.9c-6.9-0.5-15-5.7-14.7-11.9c0.3-5.9,8.1-9.9,14-10.5
			C148.3,82,158.1,87.2,158.3,93.4z"/>
	</g>
	<g id="XMLID_465_">
		<circle id="XMLID_429_" class="st3" cx="71.8" cy="94" r="8.3"/>
		<circle id="XMLID_428_" class="st1" cx="69" cy="91.1" r="2.9"/>
	</g>
	<g id="XMLID_427_">
		<circle id="XMLID_451_" class="st3" cx="142.3" cy="94" r="8.3"/>
		<circle id="XMLID_457_" class="st1" cx="139.4" cy="91.1" r="2.9"/>
	</g>
</g>
</svg>
