<?xml version="1.0" encoding="utf-8"?>
<!-- Generator: Adobe Illustrator 19.0.0, SVG Export Plug-In . SVG Version: 6.00 Build 0)  -->
<svg version="1.1" id="Layer_1" xmlns="http://www.w3.org/2000/svg" xmlns:xlink="http://www.w3.org/1999/xlink" x="0px" y="0px"
	 viewBox="0 0 1960 656" style="enable-background:new 0 0 1960 656;" xml:space="preserve">
<style type="text/css">
	.st0{fill:#BAE1EA;}
	.st1{fill:#FED27D;}
	.st2{fill:#FCEB7E;}
	.st3{fill:#FCEB7E;stroke:#FBEA7E;stroke-width:3.648;stroke-miterlimit:10;}
	.st4{fill:#679DAF;}
	.st5{fill:#679DAC;}
	.st6{fill:#598D99;}
	.st7{fill:#665F4C;}
	.st8{fill:#6D6552;}
	.st9{fill:#726C5A;}
	.st10{fill:#918875;}
	.st11{fill:#9B927C;}
	.st12{fill:#A79B84;}
	.st13{fill:#ACB8B2;}
	.st14{fill:#E7EEE9;}
	.st15{fill:#348D43;}
	.st16{fill:#61AF46;}
	.st17{fill:#888989;}
	.st18{fill:#FFFFFF;}
	.st19{fill:#F0EFEF;}
	.st20{fill:#F7A91B;}
	.st21{fill:#4281C3;}
	.st22{fill:#38495E;}
	.st23{fill:#932127;}
	.st24{fill:#E6BDA2;}
	.st25{fill:#2E1112;}
	.st26{fill:#721822;}
	.st27{fill:#D6282A;}
	.st28{fill:#E6E0D8;}
	.st29{fill:#A2DDF5;}
	.st30{fill:#C0E7F9;}
	.st31{fill:#B1E3FA;}
	.st32{fill:#85D4EC;}
	.st33{fill:#E4F2F9;}
	.st34{fill:#D7ECF8;}
	.st35{fill:#A66B3E;}
	.st36{fill:#FAA645;}
	.st37{fill:#C0525B;}
	.st38{fill:#F3D057;}
	.st39{fill:#E9A969;}
	.st40{fill:#A8DEE8;}
	.st41{fill:#84D3ED;}
	.st42{fill:#70B1E1;}
	.st43{fill:#6A5B6A;}
	.st44{fill:#954952;}
	.st45{fill:#D7805D;}
	.st46{fill:#A08A8A;}
	.st47{fill:#83727A;}
	.st48{fill:#C8B2A8;}
	.st49{fill:#826F77;}
	.st50{fill:#84CCAA;}
	.st51{fill:#65B1A8;}
	.st52{fill:#C9E7EB;}
	.st53{fill:#A5C8CD;}
	.st54{fill:#F9B49F;}
	.st55{fill:#3D5B73;}
	.st56{fill:#8D9337;}
	.st57{fill:#D3822A;}
	.st58{fill:#51565B;}
	.st59{fill:#383D42;}
	.st60{fill:#BAB9BE;}
	.st61{fill:#83341B;}
	.st62{fill:#3E5164;}
	.st63{fill:#932150;}
	.st64{fill:#B5E0D8;}
	.st65{fill:#975129;}
	.st66{fill:#6EAA4F;}
	.st67{fill:#692A13;}
	.st68{fill:#A66A42;}
	.st69{fill:#424C83;}
	.st70{fill:#606E9B;}
	.st71{fill:#76AADB;}
	.st72{fill:#E5F3F6;}
	.st73{fill:#010101;}
	.st74{fill:#F04A5B;}
	.st75{fill:#D0D8DC;}
	.st76{fill:#FEF8C6;}
	.st77{fill:#59C2EF;}
	.st78{opacity:0.1;fill:#010101;enable-background:new    ;}
	.st79{fill:#212121;}
	.st80{fill:#3FB549;}
	.st81{fill:#128240;}
	.st82{fill:#1F5A2D;}
	.st83{fill:#81C341;}
	.st84{fill:#13AC4B;}
	.st85{fill:#199C48;}
	.st86{fill:#167D3E;}
	.st87{fill:#0C9146;}
	.st88{fill:#BE6428;}
	.st89{fill:#9A5023;}
	.st90{fill:#2AA549;}
	.st91{fill:#AFD357;}
	.st92{fill:#96BE4A;}
	.st93{fill:#AF6F5B;}
	.st94{fill:#975B51;}
	.st95{font-family:'Trattatello';}
	.st96{font-size:56px;}
</style>
<rect id="XMLID_1_" class="st0" width="1960" height="442.4"/>
<g id="XMLID_11_">
	<circle id="XMLID_5_" class="st1" cx="217.1" cy="78.3" r="52.3"/>
	<circle id="XMLID_6_" class="st2" cx="219.9" cy="73.4" r="47.5"/>
	<line id="XMLID_7_" class="st3" x1="219.9" y1="-3.3" x2="219.9" y2="150.2"/>
	<line id="XMLID_8_" class="st3" x1="293.9" y1="78.3" x2="140.4" y2="78.3"/>
	<line id="XMLID_9_" class="st3" x1="263.4" y1="140" x2="170.8" y2="17.7"/>
	<line id="XMLID_10_" class="st3" x1="280.1" y1="31.3" x2="159.6" y2="126.4"/>
</g>
<g id="XMLID_73_">
	<polygon id="XMLID_77_" class="st4" points="1318.4,199.3 1318.4,462.5 1368.6,462.5 	"/>
	<polygon id="XMLID_76_" class="st4" points="1317.6,199.3 1369,462.5 1406.4,462.5 	"/>
	<polygon id="XMLID_75_" class="st5" points="1318.5,202.6 1407.2,462.8 1439.9,463.2 	"/>
	<polygon id="XMLID_74_" class="st4" points="1317.8,198.9 1317.8,462.1 1267.5,462.1 	"/>
</g>
<polygon id="XMLID_72_" class="st4" points="1318.5,198.9 1267.1,462.1 1229.8,462.1 "/>
<polygon id="XMLID_71_" class="st4" points="1317.6,202.2 1228.9,462.4 1196.2,462.8 "/>
<path id="XMLID_70_" class="st6" d="M1318.4,192.8l-0.2,103.2c5.9,1.4,8.9,0.3,10.6-1.1c2.4-2,2.1-4.6,6.3-10.6
	c1.9-2.6,2.9-3.6,4.2-3.7c1.3-0.1,2.6,0.5,5.3,3.2c5.2,5.2,5.3,7.8,8.5,10.1c1.6,1.1,4.3,2.4,8.8,2.2
	C1347.5,261.6,1332.9,227.2,1318.4,192.8z"/>
<path id="XMLID_69_" class="st6" d="M1317.8,192.8l0.2,103.2c-5.9,1.4-8.9,0.3-10.6-1.1c-2.4-2-2.1-4.6-6.3-10.6
	c-1.9-2.6-2.9-3.6-4.2-3.7c-1.3-0.1-2.6,0.5-5.3,3.2c-5.2,5.2-5.3,7.8-8.5,10.1c-1.6,1.1-4.3,2.4-8.8,2.2
	C1288.7,261.6,1303.2,227.2,1317.8,192.8z"/>
<g id="XMLID_58_">
	<polygon id="XMLID_66_" class="st4" points="1482.7,160.2 1482.7,423.4 1532.9,423.4 	"/>
	<polygon id="XMLID_65_" class="st4" points="1481.9,160.2 1533.3,423.4 1570.7,423.4 	"/>
	<polygon id="XMLID_64_" class="st5" points="1482.8,163.5 1571.5,423.7 1604.2,424.2 	"/>
	<polygon id="XMLID_63_" class="st4" points="1482.1,159.8 1482.1,423 1431.8,423 	"/>
</g>
<polygon id="XMLID_62_" class="st4" points="1484.8,159.8 1433.4,423 1396.1,423 "/>
<polygon id="XMLID_61_" class="st4" points="1483.9,163.2 1395.2,423.4 1362.5,423.8 "/>
<path id="XMLID_60_" class="st6" d="M1483.7,153.7l-0.2,103.2c5.9,1.4,8.9,0.3,10.6-1.1c2.4-2,2.1-4.6,6.3-10.6
	c1.9-2.6,2.9-3.6,4.2-3.7c1.3-0.1,2.6,0.5,5.3,3.2c5.2,5.2,5.3,7.8,8.5,10.1c1.6,1.1,4.3,2.4,8.8,2.2
	C1512.8,222.5,1498.2,188.1,1483.7,153.7z"/>
<path id="XMLID_59_" class="st6" d="M1484.1,153.7l0.2,103.2c-5.9,1.4-8.9,0.3-10.6-1.1c-2.4-2-2.1-4.6-6.3-10.6
	c-1.9-2.6-2.9-3.6-4.2-3.7c-1.3-0.1-2.6,0.5-5.3,3.2c-5.2,5.2-5.3,7.8-8.5,10.1c-1.6,1.1-4.3,2.4-8.8,2.2
	C1455,222.5,1469.5,188.1,1484.1,153.7z"/>
<polygon id="XMLID_32_" class="st7" points="1418,126.4 1418,470 1483.6,470 "/>
<polygon id="XMLID_33_" class="st8" points="1416,126.4 1483.1,470 1531.9,470 "/>
<polygon id="XMLID_34_" class="st9" points="1416.2,130.7 1532.1,470.5 1574.7,471 "/>
<polygon id="XMLID_36_" class="st10" points="1419.2,125.8 1419.2,469.5 1353.6,469.5 "/>
<polygon id="XMLID_35_" class="st11" points="1420.2,125.8 1353.1,469.5 1304.3,469.5 "/>
<polygon id="XMLID_31_" class="st12" points="1419,130.2 1303.2,470 1260.5,470.5 "/>
<path id="XMLID_38_" class="st13" d="M1420,117.8l-0.2,134.7c7.8,1.9,11.7,0.4,13.8-1.4c3.1-2.6,2.7-5.9,8.3-13.8
	c2.4-3.4,3.8-4.7,5.5-4.8c1.7-0.2,3.4,0.7,6.9,4.1c6.7,6.7,6.9,10.2,11.1,13.1c2.1,1.5,5.6,3.1,11.5,2.8
	C1458,207.7,1439,162.7,1420,117.8z"/>
<path id="XMLID_37_" class="st14" d="M1419.2,117.8l0.2,134.7c-7.8,1.9-11.7,0.4-13.8-1.4c-3.1-2.6-2.7-5.9-8.3-13.8
	c-2.4-3.4-3.8-4.7-5.5-4.8c-1.7-0.2-3.4,0.7-6.9,4.1c-6.7,6.7-6.9,10.2-11.1,13.1c-2.1,1.5-5.6,3.1-11.5,2.8
	C1381.2,207.7,1400.2,162.7,1419.2,117.8z"/>
<path id="XMLID_132_" class="st15" d="M440.6,430c118.8-113.3,289.1-117.4,289.1-117.4c98.4-2.3,112.6,23.7,174.6,2.9
	c73.5-24.7,73.9-68,137.4-83c77-18.2,161.3,25.6,209.5,79c7.1,7.9,91.3,101,61.8,161.5c-65,133.6-617.7-29.4-810.8-6.9
	c-13.2,1.5-71.6,9.4-78-7.6C421.7,451.6,428.1,441.9,440.6,430z"/>
<rect id="XMLID_12_" y="442.4" class="st16" width="1960" height="55.2"/>
<rect id="XMLID_20_" y="497.6" class="st17" width="1960" height="158.4"/>
<rect id="XMLID_27_" x="81.2" y="560.4" class="st18" width="212.7" height="16.4"/>
<rect id="XMLID_28_" x="599.7" y="560.4" class="st18" width="212.7" height="16.4"/>
<rect id="XMLID_29_" x="1176.2" y="560.4" class="st18" width="212.7" height="16.4"/>
<rect id="XMLID_30_" x="1747.3" y="568.6" class="st18" width="212.7" height="16.4"/>
<polygon id="XMLID_48_" class="st7" points="1535.2,181 1535.2,444.1 1585.5,444.1 "/>
<polygon id="XMLID_47_" class="st8" points="1533.5,181 1584.9,444.1 1622.2,444.1 "/>
<polygon id="XMLID_46_" class="st9" points="1533.4,184.3 1622.1,444.5 1654.8,444.9 "/>
<polygon id="XMLID_45_" class="st10" points="1535.6,180.6 1535.6,443.7 1485.4,443.7 "/>
<polygon id="XMLID_44_" class="st11" points="1537.4,180.6 1486,443.7 1448.6,443.7 "/>
<polygon id="XMLID_43_" class="st12" points="1537.5,183.9 1448.8,444.1 1416.1,444.5 "/>
<path id="XMLID_42_" class="st13" d="M1535.2,174.4l-0.2,103.2c5.9,1.4,8.9,0.3,10.6-1.1c2.4-2,2.1-4.6,6.3-10.6
	c1.9-2.6,2.9-3.6,4.2-3.7c1.3-0.1,2.6,0.5,5.3,3.2c5.2,5.2,5.3,7.8,8.5,10.1c1.6,1.1,4.3,2.4,8.8,2.2
	C1564.3,243.2,1549.8,208.8,1535.2,174.4z"/>
<path id="XMLID_41_" class="st14" d="M1535.6,174.4l0.2,103.2c-5.9,1.4-8.9,0.3-10.6-1.1c-2.4-2-2.1-4.6-6.3-10.6
	c-1.9-2.6-2.9-3.6-4.2-3.7c-1.3-0.1-2.6,0.5-5.3,3.2c-5.2,5.2-5.3,7.8-8.5,10.1c-1.6,1.1-4.3,2.4-8.8,2.2
	C1506.5,243.2,1521.1,208.8,1535.6,174.4z"/>
<polygon id="XMLID_57_" class="st7" points="1240.5,181.5 1240.5,444.6 1290.7,444.6 "/>
<polygon id="XMLID_56_" class="st8" points="1237.7,181.5 1289.1,444.6 1326.4,444.6 "/>
<polygon id="XMLID_55_" class="st9" points="1236.6,184.8 1325.3,445 1358,445.4 "/>
<polygon id="XMLID_54_" class="st10" points="1241.8,181.1 1241.8,444.2 1191.6,444.2 "/>
<polygon id="XMLID_53_" class="st11" points="1243.6,181.1 1192.2,444.2 1154.9,444.2 "/>
<polygon id="XMLID_52_" class="st12" points="1243.7,184.4 1155,444.6 1122.3,445 "/>
<path id="XMLID_51_" class="st13" d="M1240.5,174.9l-0.2,103.2c5.9,1.4,8.9,0.3,10.6-1.1c2.4-2,2.1-4.6,6.3-10.6
	c1.9-2.6,2.9-3.6,4.2-3.7c1.3-0.1,2.6,0.5,5.3,3.2c5.2,5.2,5.3,7.8,8.5,10.1c1.6,1.1,4.3,2.4,8.8,2.2
	C1269.5,243.7,1255,209.3,1240.5,174.9z"/>
<path id="XMLID_50_" class="st14" d="M1239.8,174.9l0.2,103.2c-5.9,1.4-8.9,0.3-10.6-1.1c-2.4-2-2.1-4.6-6.3-10.6
	c-1.9-2.6-2.9-3.6-4.2-3.7c-1.3-0.1-2.6,0.5-5.3,3.2c-5.2,5.2-5.3,7.8-8.5,10.1c-1.6,1.1-4.3,2.4-8.8,2.2
	C1210.8,243.7,1225.3,209.3,1239.8,174.9z"/>
<path id="XMLID_89_" class="st19" d="M718.4,466.1l0-55.6c0-9.2-7.4-16.6-16.6-16.6H567.6c-9.2,0-16.6,7.4-16.6,16.6l0,111h197.8
	V493L718.4,466.1z"/>
<path id="XMLID_88_" class="st20" d="M718.4,466.1v-47.3H551v64.8c16.5,0.4,16.8,10,34,10c17.5,0,17.5-10,35-10
	c2.5,0,4.6,0.2,6.5,0.5v37.3h34.9v-30.9c6.5-2.7,11.2-6.3,22.2-6.9v37.8h65.3V493L718.4,466.1z"/>
<rect id="XMLID_87_" x="732.4" y="502" class="st21" width="16.4" height="19.4"/>
<circle id="XMLID_86_" class="st22" cx="591.8" cy="523.9" r="17.4"/>
<circle id="XMLID_85_" class="st19" cx="591.8" cy="523.9" r="4"/>
<circle id="XMLID_84_" class="st22" cx="704" cy="523.9" r="17.4"/>
<circle id="XMLID_83_" class="st19" cx="704" cy="523.9" r="4"/>
<path id="XMLID_82_" class="st22" d="M661.4,461.4v60h-34.9v-60c0-9.5,7.7-17.3,17.3-17.3h0.3C653.6,444.2,661.4,451.9,661.4,461.4z
	"/>
<path id="XMLID_81_" class="st22" d="M588.9,481.8c-12,0-21.7-9.7-21.7-21.7s9.7-21.7,21.7-21.7c12,0,21.7,9.7,21.7,21.7
	S600.8,481.8,588.9,481.8z"/>
<circle id="XMLID_80_" class="st21" cx="588.9" cy="460.1" r="16.2"/>
<rect id="XMLID_79_" x="683.5" y="418.8" class="st21" width="34.9" height="47.8"/>
<rect id="XMLID_78_" x="683.5" y="418.8" class="st22" width="6.2" height="47.8"/>
<g id="XMLID_110_">
	<g id="XMLID_93_">
		<rect id="XMLID_101_" x="1638" y="353.9" class="st23" width="288.6" height="96.3"/>
		<rect id="XMLID_102_" x="1671.1" y="353.9" class="st14" width="30.5" height="96.3"/>
		<rect id="XMLID_103_" x="1735.8" y="353.9" class="st14" width="30.5" height="96.3"/>
		<rect id="XMLID_104_" x="1837.7" y="353.9" class="st24" width="30.5" height="96.3"/>
		<rect id="XMLID_105_" x="1782.4" y="353.9" class="st24" width="30.5" height="96.3"/>
		<rect id="XMLID_106_" x="1896" y="353.9" class="st24" width="30.5" height="96.3"/>
		<g id="XMLID_107_">
			<polygon id="XMLID_108_" class="st25" points="1735.8,450.2 1766.3,381.7 1805.2,450.2 			"/>
			<polygon id="XMLID_109_" class="st26" points="1766.3,383.3 1766.3,450.2 1721.7,450.2 			"/>
		</g>
	</g>
	<g id="XMLID_111_">
		<polygon id="XMLID_99_" class="st24" points="1784.7,244.8 1784.7,345.2 1835.8,345.2 		"/>
		<polygon id="XMLID_98_" class="st27" points="1783.9,244.8 1836.2,345.2 1874.2,345.2 		"/>
		<polygon id="XMLID_97_" class="st24" points="1784.8,246.1 1875.1,345.4 1908.3,345.5 		"/>
		<polygon id="XMLID_96_" class="st27" points="1784,244.7 1784,345.1 1732.9,345.1 		"/>
		<polygon id="XMLID_95_" class="st28" points="1784.8,244.7 1732.5,345.1 1694.5,345.1 		"/>
		<polygon id="XMLID_94_" class="st27" points="1783.9,245.9 1693.6,345.2 1660.3,345.4 		"/>
		<polygon id="XMLID_92_" class="st27" points="1784.8,245.5 1908.6,345.8 1945.5,346.1 		"/>
		<polygon id="XMLID_90_" class="st14" points="1784,245.5 1660.2,345.8 1623.2,346.1 		"/>
		<path id="XMLID_100_" class="st27" d="M1623.6,345.1h322.3v11c-4.1,6-11,9.1-17.7,8.1c-7.5-1.2-11.5-7.1-12.1-8.1
			c-1.4,1.6-7.9,8.4-18.5,9.3c-13.3,1.1-22-8.1-23-9.3c-1.1,1.3-9.5,10.7-23.3,10.4c-13-0.3-20.7-9-21.9-10.4
			c-1.5,1.6-8.6,9.1-20.3,9.8c-13.9,0.8-22.8-8.6-23.9-9.8c-2.2,1.9-12.1,10.2-26.9,9.8c-13.6-0.3-22.6-7.7-25-9.8
			c-0.8,1-7.8,9.4-19.6,9.3c-11.3-0.2-18-8.2-18.8-9.3c-0.4,0.6-6.5,9.5-17.6,9.3c-10.4-0.3-16.1-8.5-16.6-9.3
			c-1,1.1-8.7,9-20.4,8.1c-9.5-0.7-15.3-6.6-16.7-8.1C1623.6,352.4,1623.6,348.8,1623.6,345.1z"/>
	</g>
</g>
<g id="XMLID_113_">
	<path id="XMLID_119_" class="st29" d="M283.1,131h16.2c6.1-11.1,16.4-19.5,28.8-23c-2.5-6.1-8.5-10.3-15.4-10.3
		c-1.7,0-3.4,0.3-5,0.8c0-0.3,0-0.5,0-0.8c0-12.4-10-22.4-22.4-22.4c-10.7,0-19.6,7.5-21.9,17.5c-1.3-0.4-2.8-0.7-4.3-0.7
		c-4.6,0-8.6,2.3-11.1,5.8c-1.4-0.3-2.8-0.5-4.2-0.5c-9.3,0-16.9,7.6-16.9,16.9c0,9.3,7.6,16.9,16.9,16.9h27"/>
	<path id="XMLID_118_" class="st30" d="M375.3,120.8c-8.7-9.3-21-15.1-34.7-15.1c-22.6,0-41.5,15.8-46.3,37c-2.8-0.9-5.9-1.5-9-1.5
		c-9.7,0-18.3,4.9-23.4,12.3c-2.9-0.7-5.9-1.1-9-1.1c-19.7,0-35.7,16-35.7,35.7c0,19.7,16,35.7,35.7,35.7h39.4
		c0.1-12.1,9.9-22,22.1-22c2.3,0,4.5,0.4,6.6,1c0-0.3,0-0.7,0-1c0-16.4,13.3-29.7,29.7-29.7c14.2,0,26,9.9,29,23.2
		c1.8-0.6,3.7-0.9,5.7-0.9c6.1,0,11.5,3,14.7,7.7c1.8-0.5,3.7-0.7,5.6-0.7c8.1,0,15.3,4.4,19.2,10.9c5.7-6.3,9.1-14.6,9.1-23.7
		c0-19.5-15.8-35.3-35.3-35.3c-3.7,0-7.2,0.6-10.6,1.6c0-0.5,0-1.1,0-1.6c0-8-2-15.5-5.4-22.1"/>
	<path id="XMLID_117_" class="st31" d="M255,152.5c-0.7,0-1.4-0.1-2.2-0.1c-19.7,0-35.7,16-35.7,35.7c0,19.7,16,35.7,35.7,35.7h39.4
		c0-3.8,1-7.4,2.7-10.5C275.5,198.4,261.1,177.1,255,152.5z"/>
	<path id="XMLID_116_" class="st32" d="M251.7,125.5c0-11.6,1.8-22.8,5.1-33.3c-3.6,0.7-6.6,2.7-8.6,5.6c-1.4-0.3-2.8-0.5-4.2-0.5
		c-9.3,0-16.9,7.6-16.9,16.9c0,9.3,7.6,16.9,16.9,16.9h7.9C251.7,129.2,251.7,127.4,251.7,125.5z"/>
	<path id="XMLID_115_" class="st33" d="M405.6,200.5c-1.9,0-3.8,0.2-5.6,0.7c-3.2-4.7-8.6-7.7-14.7-7.7c-2,0-3.9,0.3-5.7,0.9
		c-3-13.3-14.8-23.2-29-23.2c-16.4,0-29.7,13.3-29.7,29.7c0,0.3,0,0.7,0,1c-2.1-0.7-4.3-1-6.6-1c-12.2,0-22.1,9.9-22.1,22.1
		c0,12.2,9.9,22.1,22.1,22.1h66.2h12.3h12.8c12.4,0,22.4-10,22.4-22.4C428,210.5,418,200.5,405.6,200.5z"/>
	<path id="XMLID_114_" class="st34" d="M337.9,194.8c0-8,1.7-15.6,4.7-22.4c-12.5,3.5-21.7,15-21.7,28.6c0,0.3,0,0.7,0,1
		c-2.1-0.7-4.3-1-6.6-1c-12.2,0-22.1,9.9-22.1,22.1c0,12.2,9.9,22.1,22.1,22.1h56.2C351.3,236.6,337.9,217.2,337.9,194.8z"/>
</g>
<g id="XMLID_112_">
	<path id="XMLID_125_" class="st29" d="M1755.3,88.6h16.2c6.1-11.1,16.4-19.5,28.8-23c-2.5-6.1-8.5-10.3-15.4-10.3
		c-1.7,0-3.4,0.3-5,0.8c0-0.3,0-0.5,0-0.8c0-12.4-10-22.4-22.4-22.4c-10.7,0-19.6,7.5-21.9,17.5c-1.3-0.4-2.8-0.7-4.3-0.7
		c-4.6,0-8.6,2.3-11.1,5.8c-1.4-0.3-2.8-0.5-4.2-0.5c-9.3,0-16.9,7.6-16.9,16.9c0,9.3,7.6,16.9,16.9,16.9h27"/>
	<path id="XMLID_124_" class="st30" d="M1847.5,78.4c-8.7-9.3-21-15.1-34.7-15.1c-22.6,0-41.5,15.8-46.3,37c-2.8-0.9-5.9-1.5-9-1.5
		c-9.7,0-18.3,4.9-23.4,12.3c-2.9-0.7-5.9-1.1-9-1.1c-19.7,0-35.7,16-35.7,35.7c0,19.7,16,35.7,35.7,35.7h39.4
		c0.1-12.1,9.9-22,22.1-22c2.3,0,4.5,0.4,6.6,1c0-0.3,0-0.7,0-1c0-16.4,13.3-29.7,29.7-29.7c14.2,0,26,9.9,29,23.2
		c1.8-0.6,3.7-0.9,5.7-0.9c6.1,0,11.5,3,14.7,7.7c1.8-0.5,3.7-0.7,5.6-0.7c8.1,0,15.3,4.4,19.2,10.9c5.7-6.3,9.1-14.6,9.1-23.7
		c0-19.5-15.8-35.3-35.3-35.3c-3.7,0-7.2,0.6-10.6,1.6c0-0.5,0-1.1,0-1.6c0-8-2-15.5-5.4-22.1"/>
	<path id="XMLID_123_" class="st31" d="M1727.1,110.1c-0.7,0-1.4-0.1-2.2-0.1c-19.7,0-35.7,16-35.7,35.7c0,19.7,16,35.7,35.7,35.7
		h39.4c0-3.8,1-7.4,2.7-10.5C1747.6,156,1733.3,134.6,1727.1,110.1z"/>
	<path id="XMLID_122_" class="st32" d="M1723.8,83.1c0-11.6,1.8-22.8,5.1-33.3c-3.6,0.7-6.6,2.7-8.6,5.6c-1.4-0.3-2.8-0.5-4.2-0.5
		c-9.3,0-16.9,7.6-16.9,16.9c0,9.3,7.6,16.9,16.9,16.9h7.9C1723.9,86.8,1723.8,84.9,1723.8,83.1z"/>
	<path id="XMLID_121_" class="st33" d="M1877.8,158c-1.9,0-3.8,0.2-5.6,0.7c-3.2-4.7-8.6-7.7-14.7-7.7c-2,0-3.9,0.3-5.7,0.9
		c-3-13.3-14.8-23.2-29-23.2c-16.4,0-29.7,13.3-29.7,29.7c0,0.3,0,0.7,0,1c-2.1-0.7-4.3-1-6.6-1c-12.2,0-22.1,9.9-22.1,22.1
		c0,12.2,9.9,22.1,22.1,22.1h66.2h12.3h12.8c12.4,0,22.4-10,22.4-22.4C1900.2,168.1,1890.2,158,1877.8,158z"/>
	<path id="XMLID_120_" class="st34" d="M1810.1,152.3c0-8,1.7-15.6,4.7-22.4c-12.5,3.5-21.7,15-21.7,28.6c0,0.3,0,0.7,0,1
		c-2.1-0.7-4.3-1-6.6-1c-12.2,0-22.1,9.9-22.1,22.1c0,12.2,9.9,22.1,22.1,22.1h56.2C1823.5,194.1,1810.1,174.8,1810.1,152.3z"/>
</g>
<rect id="XMLID_126_" x="1783.1" y="171.1" class="st35" width="2.8" height="74.8"/>
<path id="XMLID_128_" class="st36" d="M1784.8,177.9v54.1c9.4-8.5,16-9.5,20.5-8.7c5.5,1,7.7,4.9,11.9,3.9c5-1.2,5.4-7.7,10.4-13.3
	c3.4-3.8,9.4-7.9,21.2-9c-11-9.3-19.3-11-25.1-10.6c-3.8,0.3-8.1,1.5-13-0.9c-4.1-2-5-4.9-8.4-8.2
	C1799.3,182.4,1794.1,179,1784.8,177.9z"/>
<path id="XMLID_130_" class="st33" d="M883.6,110.4c-1.9,0-3.7,0.2-5.4,0.7c-3.1-4.4-8.2-7.3-14-7.3c-1.9,0-3.7,0.3-5.4,0.9
	c-2.9-12.6-14.2-22.1-27.7-22.1c-15.7,0-28.4,12.7-28.4,28.4c0,0.3,0,0.6,0,1c-2-0.6-4.1-1-6.3-1c-11.6,0-21.1,9.4-21.1,21.1
	c0,11.6,9.4,21.1,21.1,21.1h63.1h11.7h12.2c11.8,0,21.3-9.6,21.3-21.3C904.9,120,895.3,110.4,883.6,110.4z"/>
<path id="XMLID_129_" class="st34" d="M819,105c0-7.6,1.6-14.8,4.5-21.4c-12,3.3-20.7,14.3-20.7,27.3c0,0.3,0,0.6,0,1
	c-2-0.6-4.1-1-6.3-1c-11.6,0-21.1,9.4-21.1,21.1c0,11.6,9.4,21.1,21.1,21.1h53.6C831.7,144.8,819,126.4,819,105z"/>
<path id="XMLID_131_" class="st33" d="M1226.2,123c-2,0-4,0.3-5.8,0.7c-3.3-4.8-8.9-8-15.2-8c-2,0-4,0.3-5.9,1
	c-3.1-13.7-15.4-24-30-24c-17,0-30.8,13.8-30.8,30.8c0,0.4,0,0.7,0,1c-2.2-0.7-4.5-1-6.9-1c-12.7,0-22.9,10.3-22.9,22.9
	c0,12.7,10.3,22.9,22.9,22.9h68.6h12.7h13.3c12.8,0,23.2-10.4,23.2-23.2C1249.3,133.4,1239,123,1226.2,123z"/>
<path id="XMLID_127_" class="st34" d="M1156,117.1c0-8.3,1.8-16.1,4.9-23.2c-13,3.6-22.5,15.5-22.5,29.7c0,0.4,0,0.7,0,1
	c-2.2-0.7-4.5-1-6.9-1c-12.7,0-22.9,10.3-22.9,22.9c0,12.7,10.3,22.9,22.9,22.9h58.2C1169.9,160.4,1156,140.3,1156,117.1z"/>
<g id="XMLID_189_">
	<polygon id="XMLID_187_" class="st37" points="900.2,196.2 897,198 897,194.8 865.2,194.8 849.3,223.4 852.5,223.4 900.2,223.4 	
		"/>
	<polygon id="XMLID_186_" class="st37" points="986,194.8 954.2,194.8 954.2,198 951,196.2 951,223.4 998.7,223.4 1001.9,223.4 	"/>
	<path id="XMLID_245_" class="st38" d="M900.2,223.4h-47.7v95.3h47.7V223.4z M887.5,280.6v6.4v3.2v12.7v3.2h-3.2h-15.9h-3.2v-3.2
		v-12.7v-3.2v-6.4v-3.2h3.2h15.9h3.2V280.6z M887.5,239.3v6.4v3.2v12.7v3.2h-3.2h-15.9h-3.2v-3.2v-12.7v-3.2v-6.4v-3.2h3.2h15.9h3.2
		V239.3z"/>
	<path id="XMLID_241_" class="st38" d="M951,318.7h47.7v-95.3H951V318.7z M963.7,261.5v-12.7v-3.2v-6.4v-3.2h3.2h15.9h3.2v3.2v6.4
		v3.2v12.7v3.2h-3.2h-15.9h-3.2V261.5z M963.7,302.8v-12.7v-3.2v-6.4v-3.2h3.2h15.9h3.2v3.2v6.4v3.2v12.7v3.2h-3.2h-15.9h-3.2V302.8
		z"/>
	<path id="XMLID_237_" class="st39" d="M900.2,196.2v27.2v95.3h12.7v-38.1h25.4v38.1H951v-95.3v-27.2l-25.4-14.1L900.2,196.2z
		 M938.3,239.3v6.4v3.2v12.7v3.2h-3.2H932h-15.9h-3.2v-3.2v-12.7v-3.2v-6.4v-3.2h3.2h19.1h3.2V239.3z M935.1,210.7
		c0,5.3-4.3,9.5-9.5,9.5s-9.5-4.3-9.5-9.5s4.3-9.5,9.5-9.5S935.1,205.4,935.1,210.7z"/>
	<polygon id="XMLID_176_" class="st40" points="868.4,261.5 881.1,261.5 868.4,248.8 	"/>
	<polygon id="XMLID_175_" class="st41" points="881.1,261.5 884.3,261.5 884.3,248.8 868.4,248.8 	"/>
	<rect id="XMLID_174_" x="868.4" y="239.3" class="st42" width="15.9" height="6.4"/>
	<path id="XMLID_230_" class="st43" d="M868.4,236.1h-3.2v3.2v6.4v3.2v12.7v3.2h3.2h15.9h3.2v-3.2v-12.7v-3.2v-6.4v-3.2h-3.2H868.4z
		 M884.3,261.5h-3.2h-12.7v-12.7h15.9V261.5z M884.3,245.6h-15.9v-6.4h15.9V245.6z"/>
	<polygon id="XMLID_170_" class="st40" points="916.1,261.5 928.8,261.5 916.1,248.8 	"/>
	<rect id="XMLID_169_" x="916.1" y="239.3" class="st42" width="19.1" height="6.4"/>
	<polygon id="XMLID_168_" class="st41" points="916.1,248.8 928.8,261.5 935.1,261.5 935.1,248.8 932,248.8 	"/>
	<path id="XMLID_223_" class="st43" d="M916.1,236.1h-3.2v3.2v6.4v3.2v12.7v3.2h3.2H932h3.2h3.2v-3.2v-12.7v-3.2v-6.4v-3.2h-3.2
		H916.1z M935.1,261.5h-6.4h-12.7v-12.7H932h3.2V261.5z M935.1,245.6h-19.1v-6.4h19.1V245.6z"/>
	<polygon id="XMLID_164_" class="st44" points="938.3,280.6 912.9,280.6 912.9,318.7 912.9,331.4 938.3,331.4 938.3,318.7 	"/>
	<rect id="XMLID_163_" x="852.5" y="318.7" class="st39" width="47.7" height="12.7"/>
	<rect id="XMLID_162_" x="951" y="318.7" class="st39" width="47.7" height="12.7"/>
	<rect id="XMLID_161_" x="938.3" y="318.7" class="st45" width="12.7" height="12.7"/>
	<rect id="XMLID_160_" x="900.2" y="318.7" class="st45" width="12.7" height="12.7"/>
	<polygon id="XMLID_159_" class="st44" points="900.2,196.2 925.6,182.1 951,196.2 954.2,198 954.2,194.8 954.2,191.6 925.6,175.7 
		897,191.6 897,194.8 897,198 	"/>
	<path id="XMLID_214_" class="st43" d="M916.1,210.7c0,5.3,4.3,9.5,9.5,9.5s9.5-4.3,9.5-9.5s-4.3-9.5-9.5-9.5
		S916.1,205.4,916.1,210.7z M932,210.7c0,3.5-2.8,6.4-6.4,6.4c-3.5,0-6.4-2.8-6.4-6.4c0-2.3,1.2-4.3,3-5.4c1-0.6,2.1-0.9,3.3-0.9
		C929.1,204.3,932,207.2,932,210.7z"/>
	<path id="XMLID_156_" class="st40" d="M921.1,206.2c0.4-0.4,0.8-0.7,1.2-0.9c-1.8,1.1-3,3.1-3,5.4c0,3.5,2.8,6.4,6.4,6.4
		s6.4-2.8,6.4-6.4c0,1.8-0.7,3.3-1.9,4.5L921.1,206.2z"/>
	<path id="XMLID_155_" class="st40" d="M932,210.7c0-3.5-2.8-6.4-6.4-6.4C929.1,204.3,932,207.2,932,210.7z"/>
	<path id="XMLID_154_" class="st42" d="M925.6,204.3c-1.2,0-2.3,0.3-3.3,0.9c-0.4,0.3-0.8,0.6-1.2,0.9l9,9c1.2-1.1,1.9-2.7,1.9-4.5
		C932,207.2,929.1,204.3,925.6,204.3z"/>
	<polygon id="XMLID_153_" class="st40" points="966.9,248.8 966.9,261.5 979.6,261.5 	"/>
	<polygon id="XMLID_152_" class="st41" points="982.8,261.5 982.8,248.8 966.9,248.8 979.6,261.5 	"/>
	<rect id="XMLID_151_" x="966.9" y="239.3" class="st42" width="15.9" height="6.4"/>
	<path id="XMLID_204_" class="st43" d="M982.8,264.7h3.2v-3.2v-12.7v-3.2v-6.4v-3.2h-3.2h-15.9h-3.2v3.2v6.4v3.2v12.7v3.2h3.2H982.8
		z M966.9,239.3h15.9v6.4h-15.9V239.3z M966.9,248.8h15.9v12.7h-3.2h-12.7V248.8L966.9,248.8z"/>
	<polygon id="XMLID_147_" class="st40" points="868.4,302.8 881.1,302.8 868.4,290.1 	"/>
	<polygon id="XMLID_146_" class="st41" points="881.1,302.8 884.3,302.8 884.3,290.1 868.4,290.1 	"/>
	<rect id="XMLID_145_" x="868.4" y="280.6" class="st42" width="15.9" height="6.4"/>
	<path id="XMLID_197_" class="st43" d="M868.4,277.4h-3.2v3.2v6.4v3.2v12.7v3.2h3.2h15.9h3.2v-3.2v-12.7v-3.2v-6.4v-3.2h-3.2H868.4z
		 M884.3,302.8h-3.2h-12.7v-12.7h15.9V302.8z M884.3,286.9h-15.9v-6.4h15.9V286.9z"/>
	<polygon id="XMLID_141_" class="st40" points="966.9,290.1 966.9,302.8 979.6,302.8 	"/>
	<polygon id="XMLID_140_" class="st41" points="982.8,302.8 982.8,290.1 966.9,290.1 979.6,302.8 	"/>
	<rect id="XMLID_139_" x="966.9" y="280.6" class="st42" width="15.9" height="6.4"/>
	<path id="XMLID_190_" class="st43" d="M982.8,306h3.2v-3.2v-12.7v-3.2v-6.4v-3.2h-3.2h-15.9h-3.2v3.2v6.4v3.2v12.7v3.2h3.2H982.8z
		 M966.9,280.6h15.9v6.4h-15.9V280.6z M966.9,290.1h15.9v12.7h-3.2h-12.7V290.1L966.9,290.1z"/>
</g>
<g id="XMLID_191_">
	<path id="XMLID_219_" class="st46" d="M1085.4,423.7v2.6h18.3v-10.4h-5.2v-20.4c0-1.7,1.4-3.1,3.1-3.1h2.1v-13.1h-5.2v-20.4
		c0-1.7,1.4-3.1,3.1-3.1h2.1v-20.9h-18.3v18.3v10.4V423.7z"/>
	<path id="XMLID_218_" class="st46" d="M1020.1,415.8h-5.2v-20.4c0-1.7,1.4-3.1,3.1-3.1h2.1v-13.1h-5.2v-20.4c0-1.7,1.4-3.1,3.1-3.1
		h2.1v-20.9h-18.3v91.4h18.3V415.8L1020.1,415.8z"/>
	<path id="XMLID_217_" class="st47" d="M1020.1,355.8h2.1c1.7,0,3.1,1.4,3.1,3.1v20.4h-5.2v13.1h2.1c1.7,0,3.1,1.4,3.1,3.1v20.4
		h-5.2v10.4h18.3v-2.6v-60.1v-10.4v-18.3h-18.3V355.8z"/>
	<path id="XMLID_216_" class="st47" d="M1103.7,334.9v20.9h2.1c1.7,0,3.1,1.4,3.1,3.1v20.4h-5.2v13.1h2.1c1.7,0,3.1,1.4,3.1,3.1
		v20.4h-5.2v10.4h18.3v-91.4L1103.7,334.9L1103.7,334.9z"/>
	<polygon id="XMLID_215_" class="st43" points="1061.9,321.8 1085.4,363.6 1085.4,353.1 1063.2,313.7 1063.2,303.5 1067.2,303.5 
		1067.2,300.9 1063.2,300.9 1063.2,298.3 1060.6,298.3 1060.6,300.9 1056.7,300.9 1056.7,303.5 1060.6,303.5 1060.6,313.7 
		1038.4,353.1 1038.4,363.6 	"/>
	<path id="XMLID_211_" class="st48" d="M1085.4,363.6l-23.5-41.8l-23.5,41.8v60.1v2.6h10.4v-20.9c0-7.2,5.8-13.1,13.1-13.1
		c7.2,0,13.1,5.8,13.1,13.1v20.9h10.4v-2.6V363.6z M1061.9,381.9c-7.2,0-13.1-5.8-13.1-13.1c0-7.2,5.8-13.1,13.1-13.1
		c7.2,0,13.1,5.8,13.1,13.1C1075,376,1069.1,381.9,1061.9,381.9z"/>
	<rect id="XMLID_210_" x="1020.1" y="426.3" class="st43" width="18.3" height="13.1"/>
	<polygon id="XMLID_209_" class="st43" points="1122,334.9 1105,271.8 1105,259.1 1108.9,259.1 1108.9,256.5 1105,256.5 1105,253.9 
		1102.4,253.9 1102.4,256.5 1098.5,256.5 1098.5,259.1 1102.4,259.1 1102.4,271.8 1085.4,334.9 1103.7,334.9 	"/>
	<polygon id="XMLID_208_" class="st43" points="1038.4,334.9 1021.5,271.8 1021.5,259.1 1025.4,259.1 1025.4,256.5 1021.5,256.5 
		1021.5,253.9 1018.8,253.9 1018.8,256.5 1014.9,256.5 1014.9,259.1 1018.8,259.1 1018.8,271.8 1001.9,334.9 1020.1,334.9 	"/>
	<path id="XMLID_207_" class="st43" d="M1075,405.4c0-7.2-5.8-13.1-13.1-13.1c-7.2,0-13.1,5.8-13.1,13.1v20.9v13.1h26.1v-13.1V405.4
		L1075,405.4z"/>
	<path id="XMLID_203_" class="st43" d="M1061.9,355.8c-7.2,0-13.1,5.8-13.1,13.1c0,7.2,5.8,13.1,13.1,13.1c7.2,0,13.1-5.8,13.1-13.1
		C1075,361.6,1069.1,355.8,1061.9,355.8z M1061.9,374c-2.9,0-5.2-2.3-5.2-5.2c0-2.9,2.3-5.2,5.2-5.2s5.2,2.3,5.2,5.2
		C1067.2,371.7,1064.8,374,1061.9,374z"/>
	<rect id="XMLID_202_" x="1038.4" y="426.3" class="st46" width="10.4" height="13.1"/>
	<rect id="XMLID_201_" x="1075" y="426.3" class="st46" width="10.4" height="13.1"/>
	<path id="XMLID_200_" class="st43" d="M1025.4,358.8c0-1.7-1.4-3.1-3.1-3.1h-2.1h-2.1c-1.7,0-3.1,1.4-3.1,3.1v20.4h5.2h5.2V358.8z"
		/>
	<path id="XMLID_199_" class="st43" d="M1025.4,395.4c0-1.7-1.4-3.1-3.1-3.1h-2.1h-2.1c-1.7,0-3.1,1.4-3.1,3.1v20.4h5.2h5.2V395.4z"
		/>
	<path id="XMLID_198_" class="st43" d="M1098.5,358.8v20.4h5.2h5.2v-20.4c0-1.7-1.4-3.1-3.1-3.1h-2.1h-2.1
		C1099.9,355.8,1098.5,357.1,1098.5,358.8z"/>
	<path id="XMLID_196_" class="st43" d="M1098.5,395.4v20.4h5.2h5.2v-20.4c0-1.7-1.4-3.1-3.1-3.1h-2.1h-2.1
		C1099.9,392.3,1098.5,393.7,1098.5,395.4z"/>
	<circle id="XMLID_195_" class="st46" cx="1061.9" cy="368.8" r="5.2"/>
	<rect id="XMLID_194_" x="1001.9" y="426.3" class="st47" width="18.3" height="13.1"/>
	<rect id="XMLID_193_" x="1103.7" y="426.3" class="st43" width="18.3" height="13.1"/>
	<rect id="XMLID_192_" x="1085.4" y="426.3" class="st47" width="18.3" height="13.1"/>
</g>
<g id="XMLID_220_">
	<path id="XMLID_227_" class="st49" d="M1159.8,237.6V248c0,0.9,1.7,1,1.7,1v-11.3C1160.9,237.7,1160.3,237.7,1159.8,237.6z"/>
	<path id="XMLID_226_" class="st43" d="M1161.5,249c0,0,1.7-0.1,1.7-1v-10.4c-0.6,0.1-1.1,0.1-1.7,0.1V249z"/>
	<path id="XMLID_225_" class="st50" d="M1163.5,173.2c-0.2-0.5-0.3-1.1-0.4-1.6c0-0.1,0-0.1,0-0.1c0,0,0,0.1,0,0.1
		C1163.2,172.1,1163.4,172.7,1163.5,173.2z"/>
	<path id="XMLID_224_" class="st50" d="M1163.1,171.5c-0.2-0.4-0.5-0.7-0.8-0.9C1162.6,170.8,1162.9,171.1,1163.1,171.5z"/>
	<path id="XMLID_222_" class="st50" d="M1161.5,225.8v-55.3c-0.7,0-1.4,0.4-1.6,1.2c-3.6,12.7-12,43-12,52.4c0,7,5.2,12.7,12,13.6
		c0.6,0.1,1.1,0.1,1.7,0.1V225.8z"/>
	<path id="XMLID_221_" class="st51" d="M1175.1,222.6c-0.7-10.3-7.9-36.6-11.5-49.4c-0.2-0.5-0.3-1.1-0.4-1.6c0-0.1,0-0.1,0-0.1
		c0,0,0,0,0,0c-0.2-0.4-0.5-0.7-0.8-0.9c-0.1,0-0.2-0.1-0.2-0.1c-0.1,0-0.2,0-0.3-0.1c-0.1,0-0.2,0-0.3,0v55.3v12
		c0.6,0,1.1,0,1.7-0.1c0.1,0,0.2,0,0.4,0c1.8-0.3,3.5-0.9,5-1.8c0.2-0.1,0.4-0.2,0.6-0.4c1.6-1.1,3-2.6,4-4.2
		c0.3-0.6,0.6-1.2,0.9-1.8c0.2-0.4,0.3-0.8,0.5-1.3c0.4-1.3,0.6-2.6,0.6-4.1C1175.1,223.6,1175.1,223.1,1175.1,222.6z"/>
</g>
<g id="XMLID_188_">
	<path id="XMLID_234_" class="st49" d="M1492.8,431.6V442c0,0.9,1.7,1,1.7,1v-11.3C1493.9,431.7,1493.3,431.7,1492.8,431.6z"/>
	<path id="XMLID_233_" class="st43" d="M1494.5,443c0,0,1.7-0.1,1.7-1v-10.4c-0.6,0.1-1.1,0.1-1.7,0.1V443z"/>
	<path id="XMLID_232_" class="st50" d="M1496.5,367.2c-0.2-0.5-0.3-1.1-0.4-1.6c0-0.1,0-0.1,0-0.1c0,0,0,0.1,0,0.1
		C1496.2,366.1,1496.4,366.7,1496.5,367.2z"/>
	<path id="XMLID_231_" class="st50" d="M1496.1,365.5c-0.2-0.4-0.5-0.7-0.8-0.9C1495.6,364.8,1495.9,365.1,1496.1,365.5z"/>
	<path id="XMLID_229_" class="st50" d="M1494.5,419.8v-55.3c-0.7,0-1.4,0.4-1.6,1.2c-3.6,12.7-12,43-12,52.4c0,7,5.2,12.7,12,13.6
		c0.6,0.1,1.1,0.1,1.7,0.1V419.8z"/>
	<path id="XMLID_228_" class="st51" d="M1508.1,416.6c-0.7-10.3-7.9-36.6-11.5-49.4c-0.2-0.5-0.3-1.1-0.4-1.6c0-0.1,0-0.1,0-0.1
		c0,0,0,0,0,0c-0.2-0.4-0.5-0.7-0.8-0.9c-0.1,0-0.2-0.1-0.2-0.1c-0.1,0-0.2,0-0.3-0.1c-0.1,0-0.2,0-0.3,0v55.3v12
		c0.6,0,1.1,0,1.7-0.1c0.1,0,0.2,0,0.4,0c1.8-0.3,3.5-0.9,5-1.8c0.2-0.1,0.4-0.2,0.6-0.4c1.6-1.1,3-2.6,4-4.2
		c0.3-0.6,0.6-1.2,0.9-1.8c0.2-0.4,0.3-0.8,0.5-1.3c0.4-1.3,0.6-2.6,0.6-4.1C1508.1,417.6,1508.1,417.1,1508.1,416.6z"/>
</g>
<g id="XMLID_235_">
	<path id="XMLID_243_" class="st49" d="M943,426v10.4c0,0.9,1.7,1,1.7,1v-11.3C944.1,426.1,943.5,426,943,426z"/>
	<path id="XMLID_242_" class="st43" d="M944.7,437.4c0,0,1.7-0.1,1.7-1V426c-0.6,0.1-1.1,0.1-1.7,0.1V437.4z"/>
	<path id="XMLID_240_" class="st50" d="M946.8,361.6c-0.2-0.5-0.3-1.1-0.4-1.6c0-0.1,0-0.1,0-0.1c0,0,0,0.1,0,0.1
		C946.5,360.5,946.6,361,946.8,361.6z"/>
	<path id="XMLID_239_" class="st50" d="M946.3,359.9c-0.2-0.4-0.5-0.7-0.8-0.9C945.8,359.1,946.1,359.4,946.3,359.9z"/>
	<path id="XMLID_238_" class="st50" d="M944.7,414.1v-55.3c-0.7,0-1.4,0.4-1.6,1.2c-3.6,12.7-12,43-12,52.4c0,7,5.2,12.7,12,13.6
		c0.6,0.1,1.1,0.1,1.7,0.1V414.1z"/>
	<path id="XMLID_236_" class="st51" d="M958.3,411c-0.7-10.3-7.9-36.6-11.5-49.4c-0.2-0.5-0.3-1.1-0.4-1.6c0-0.1,0-0.1,0-0.1
		c0,0,0,0,0,0c-0.2-0.4-0.5-0.7-0.8-0.9c-0.1,0-0.2-0.1-0.2-0.1c-0.1,0-0.2,0-0.3-0.1c-0.1,0-0.2,0-0.3,0v55.3v12
		c0.6,0,1.1,0,1.7-0.1c0.1,0,0.2,0,0.4,0c1.8-0.3,3.5-0.9,5-1.8c0.2-0.1,0.4-0.2,0.6-0.4c1.6-1.1,3-2.6,4-4.2
		c0.3-0.6,0.6-1.2,0.9-1.8c0.2-0.4,0.3-0.8,0.5-1.3c0.4-1.3,0.6-2.6,0.6-4.1C958.3,412,958.3,411.5,958.3,411z"/>
</g>
<g id="XMLID_244_">
	<path id="XMLID_251_" class="st49" d="M787.3,358.4v10.4c0,0.9,1.7,1,1.7,1v-11.3C788.5,358.5,787.9,358.5,787.3,358.4z"/>
	<path id="XMLID_250_" class="st43" d="M789,369.8c0,0,1.7-0.1,1.7-1v-10.4c-0.6,0.1-1.1,0.1-1.7,0.1V369.8z"/>
	<path id="XMLID_249_" class="st50" d="M791.1,294c-0.2-0.5-0.3-1.1-0.4-1.6c0-0.1,0-0.1,0-0.1c0,0,0,0.1,0,0.1
		C790.8,292.9,791,293.4,791.1,294z"/>
	<path id="XMLID_248_" class="st50" d="M790.6,292.3c-0.2-0.4-0.5-0.7-0.8-0.9C790.2,291.5,790.5,291.8,790.6,292.3z"/>
	<path id="XMLID_247_" class="st50" d="M789,346.5v-55.3c-0.7,0-1.4,0.4-1.6,1.2c-3.6,12.7-12,43-12,52.4c0,7,5.2,12.7,12,13.6
		c0.6,0.1,1.1,0.1,1.7,0.1V346.5z"/>
	<path id="XMLID_246_" class="st51" d="M802.7,343.4c-0.7-10.3-7.9-36.6-11.5-49.4c-0.2-0.5-0.3-1.1-0.4-1.6c0-0.1,0-0.1,0-0.1
		c0,0,0,0,0,0c-0.2-0.4-0.5-0.7-0.8-0.9c-0.1,0-0.2-0.1-0.2-0.1c-0.1,0-0.2,0-0.3-0.1c-0.1,0-0.2,0-0.3,0v55.3v12
		c0.6,0,1.1,0,1.7-0.1c0.1,0,0.2,0,0.4,0c1.8-0.3,3.5-0.9,5-1.8c0.2-0.1,0.4-0.2,0.6-0.4c1.6-1.1,3-2.6,4-4.2
		c0.3-0.6,0.6-1.2,0.9-1.8c0.2-0.4,0.3-0.8,0.5-1.3c0.4-1.3,0.6-2.6,0.6-4.1C802.7,344.4,802.7,343.9,802.7,343.4z"/>
</g>
<g id="XMLID_252_">
	<path id="XMLID_258_" class="st49" d="M608.8,360.8v10.4c0,0.9,1.7,1,1.7,1v-11.3C610,360.9,609.4,360.9,608.8,360.8z"/>
	<path id="XMLID_257_" class="st43" d="M610.5,372.2c0,0,1.7-0.1,1.7-1v-10.4c-0.6,0.1-1.1,0.1-1.7,0.1V372.2z"/>
	<path id="XMLID_256_" class="st50" d="M612.6,296.4c-0.2-0.5-0.3-1.1-0.4-1.6c0-0.1,0-0.1,0-0.1c0,0,0,0.1,0,0.1
		C612.3,295.4,612.5,295.9,612.6,296.4z"/>
	<path id="XMLID_255_" class="st50" d="M612.1,294.7c-0.2-0.4-0.5-0.7-0.8-0.9C611.7,294,612,294.3,612.1,294.7z"/>
	<path id="XMLID_254_" class="st50" d="M610.5,349v-55.3c-0.7,0-1.4,0.4-1.6,1.2c-3.6,12.7-12,43-12,52.4c0,7,5.2,12.7,12,13.6
		c0.6,0.1,1.1,0.1,1.7,0.1V349z"/>
	<path id="XMLID_253_" class="st51" d="M624.1,345.8c-0.7-10.3-7.9-36.6-11.5-49.4c-0.2-0.5-0.3-1.1-0.4-1.6c0-0.1,0-0.1,0-0.1
		c0,0,0,0,0,0c-0.2-0.4-0.5-0.7-0.8-0.9c-0.1,0-0.2-0.1-0.2-0.1c-0.1,0-0.2,0-0.3-0.1c-0.1,0-0.2,0-0.3,0V349v12
		c0.6,0,1.1,0,1.7-0.1c0.1,0,0.2,0,0.4,0c1.8-0.3,3.5-0.9,5-1.8c0.2-0.1,0.4-0.2,0.6-0.4c1.6-1.1,3-2.6,4-4.2
		c0.3-0.6,0.6-1.2,0.9-1.8c0.2-0.4,0.3-0.8,0.5-1.3c0.4-1.3,0.6-2.6,0.6-4.1C624.2,346.8,624.2,346.3,624.1,345.8z"/>
</g>
<g id="XMLID_324_">
	<path id="XMLID_288_" class="st52" d="M971.1,538.1c-0.1-0.4,0.1-0.9,0.5-1l1.6-0.6c0.4-0.1,0.9,0.1,1,0.5l8.9,25.4l-3.1,1.1
		L971.1,538.1z"/>
	<path id="XMLID_287_" class="st52" d="M981.3,536.2c0-0.4,0.3-0.8,0.7-0.9l1.7-0.1c0.4,0,0.8,0.3,0.9,0.7l2.2,26.8l-3.2,0.3
		L981.3,536.2z"/>
</g>
<path id="XMLID_286_" class="st53" d="M975.2,529.3c-0.1-0.4,0.2-0.8,0.6-0.9l1.6-0.3c0.4-0.1,0.8,0.2,0.9,0.6l4.9,26.5l-3.2,0.6
	L975.2,529.3z"/>
<circle id="XMLID_285_" class="st54" cx="953" cy="530.2" r="9.4"/>
<path id="XMLID_284_" class="st55" d="M953.8,528.5c-0.4-1.3-1.8-2.1-3.1-1.7l-12.1,3.4c-1.3,0.4-2.1,1.8-1.7,3.1s1.8,2.1,3.1,1.7
	l12.1-3.4C953.4,531.2,954.2,529.8,953.8,528.5z"/>
<path id="XMLID_283_" class="st56" d="M958.6,527.7l3.1-0.9c0.2,0.6,0.4,1.2,0.5,1.9l-17.9,5.1c-1.8-4.4,0-9.5,4.2-11.8
	c4.2-2.2,9.3-1,12,2.7l-2.6,0.7c-0.6,0.2-1,0.8-0.8,1.5l0,0C957.3,527.5,958,527.9,958.6,527.7z"/>
<path id="XMLID_282_" class="st57" d="M959.1,612.3c-1.1-0.4-1.6-1.7-1.1-2.7l12.9-31c0.4-1.1,1.7-1.6,2.7-1.1
	c1.1,0.4,1.6,1.7,1.1,2.7l-12.9,31C961.4,612.2,960.2,612.8,959.1,612.3z"/>
<path id="XMLID_316_" class="st2" d="M901.2,610.5c0-11.5,9.3-20.8,20.8-20.8c11.5,0,20.8,9.3,20.8,20.8c0,11.5-9.3,20.8-20.8,20.8
	C910.6,631.3,901.2,622,901.2,610.5z M904.5,610.5c0,9.7,7.9,17.6,17.6,17.6s17.6-7.9,17.6-17.6c0-9.7-7.9-17.6-17.6-17.6
	C912.4,592.9,904.5,600.8,904.5,610.5z"/>
<path id="XMLID_313_" class="st58" d="M922.1,591.3c10.6,0,19.2,8.6,19.2,19.2c0,10.6-8.6,19.2-19.2,19.2
	c-10.6,0-19.2-8.6-19.2-19.2C902.9,599.9,911.5,591.3,922.1,591.3 M922.1,588.3c-12.3,0-22.2,10-22.2,22.2c0,12.3,10,22.2,22.2,22.2
	s22.2-10,22.2-22.2S934.3,588.3,922.1,588.3L922.1,588.3z"/>
<path id="XMLID_277_" class="st59" d="M899.8,610.5c0,12.3,10,22.2,22.2,22.2c0,0,0.1,0,0.1,0v-3c0,0-0.1,0-0.1,0
	c-10.6,0-19.2-8.6-19.2-19.2c0-10.6,8.6-19.2,19.2-19.2c0,0,0.1,0,0.1,0v-3c0,0-0.1,0-0.1,0C909.8,588.3,899.8,598.2,899.8,610.5z"
	/>
<path id="SVGCleanerId_0" class="st60" d="M922.1,605.2c-2.9,0-5.3,2.4-5.3,5.3c0,2.9,2.4,5.3,5.3,5.3c2.9,0,5.3-2.4,5.3-5.3
	C927.4,607.6,925,605.2,922.1,605.2L922.1,605.2z"/>
<g id="XMLID_311_">
	<path id="SVGCleanerId_0_1_" class="st60" d="M922.1,605.2c-2.9,0-5.3,2.4-5.3,5.3c0,2.9,2.4,5.3,5.3,5.3c2.9,0,5.3-2.4,5.3-5.3
		C927.4,607.6,925,605.2,922.1,605.2L922.1,605.2z"/>
</g>
<path id="XMLID_308_" class="st2" d="M965.5,610.5c0-11.5,9.3-20.8,20.8-20.8s20.8,9.3,20.8,20.8c0,11.5-9.3,20.8-20.8,20.8
	C974.9,631.3,965.5,622,965.5,610.5z M968.8,610.5c0,9.7,7.9,17.6,17.6,17.6c9.7,0,17.6-7.9,17.6-17.6c0-9.7-7.9-17.6-17.6-17.6
	C976.7,592.9,968.8,600.8,968.8,610.5z"/>
<path id="XMLID_305_" class="st58" d="M986.3,591.3c10.6,0,19.2,8.6,19.2,19.2c0,10.6-8.6,19.2-19.2,19.2s-19.2-8.6-19.2-19.2
	C967.2,599.9,975.7,591.3,986.3,591.3 M986.3,588.3c-12.3,0-22.2,10-22.2,22.2c0,12.3,10,22.2,22.2,22.2s22.2-10,22.2-22.2
	S998.6,588.3,986.3,588.3L986.3,588.3z"/>
<path id="XMLID_272_" class="st59" d="M964.1,610.5c0,12.3,10,22.2,22.2,22.2c0,0,0.1,0,0.1,0v-3c0,0-0.1,0-0.1,0
	c-10.6,0-19.2-8.6-19.2-19.2c0-10.6,8.6-19.2,19.2-19.2c0,0,0.1,0,0.1,0v-3c0,0-0.1,0-0.1,0C974.1,588.3,964.1,598.2,964.1,610.5z"
	/>
<path id="XMLID_271_" class="st60" d="M986.3,605.2c-2.9,0-5.3,2.4-5.3,5.3c0,2.9,2.4,5.3,5.3,5.3s5.3-2.4,5.3-5.3
	C991.7,607.6,989.3,605.2,986.3,605.2L986.3,605.2z"/>
<path id="XMLID_270_" class="st57" d="M957.4,612l-28.2-25.4c-0.7-0.6-0.9-1.6-0.6-2.4c0.3-0.8,1.1-1.4,2-1.4c0,0,0,0,0,0l39.7,0
	c0.7,0,1.4,0.4,1.8,0.9l17.4,25.4c0.5,0.7,0.5,1.5,0.1,2.2c-0.4,0.7-1.1,1.2-1.9,1.2h-29c-1.2,0-2.2-1-2.2-2.2c0-1.2,1-2.2,2.2-2.2
	h24.9l-14.4-21.1l-33,0l24,21.7c0.9,0.8,1,2.2,0.2,3.1C959.6,612.7,958.3,612.8,957.4,612z"/>
<path id="XMLID_269_" class="st57" d="M921.4,612.4c-1.1-0.4-1.7-1.6-1.4-2.7l12.7-37.8h-5.3c-1.2,0-2.2-1-2.2-2.2
	c0-1.2,1-2.2,2.2-2.2h8.4c0.7,0,1.4,0.3,1.8,0.9c0.4,0.6,0.5,1.3,0.3,2l-13.7,40.6c-0.3,0.9-1.1,1.5-2.1,1.5
	C921.8,612.6,921.6,612.5,921.4,612.4z"/>
<path id="XMLID_268_" class="st59" d="M927.4,571.9h9.9l0.5-1.5c0.2-0.7,0.1-1.4-0.3-2c-0.4-0.6-1.1-0.9-1.8-0.9h-8.4
	c-1.2,0-2.2,1-2.2,2.2C925.2,571,926.2,571.9,927.4,571.9z"/>
<path id="XMLID_267_" class="st61" d="M963.3,575h16.4c1.7,0,3.1,1.4,3.1,3.1c0,1.7-1.4,3.1-3.1,3.1h-16.4c-1.7,0-3.1-1.4-3.1-3.1
	C960.2,576.4,961.6,575,963.3,575z"/>
<path id="XMLID_266_" class="st59" d="M962.4,614.5l-11.7-4.7c-1.3-0.5-2-2-1.5-3.4c0.5-1.3,2-2,3.4-1.5l11.7,4.7
	c1.3,0.5,2,2,1.5,3.4C965.2,614.3,963.7,615,962.4,614.5z"/>
<path id="XMLID_265_" class="st54" d="M956.2,604.9c0.6,1.8,2.3,2.8,4.1,2.8c0.5,0,1-0.1,1.5-0.3c2.2-0.8,3.4-3.3,2.6-5.6l-6.4-17.5
	l18.9-7.2c3.8-1.5,5.7-5.7,4.2-9.5l-8.9-23.2c-1.2-3.2-4.5-5-7.4-3.9l-9.2,3.5c-2.8,1.1-4.1,4.6-2.9,7.8l8.3,22.1l-10.2,3.9
	c-2.2,0.8-3.3,3.3-2.5,5.5L956.2,604.9z"/>
<path id="XMLID_264_" class="st62" d="M958.6,584.2l18.2-7c3.8-1.5,5.7-5.7,4.2-9.5l-8.9-23.2c-1.2-3.2-4.5-5-7.4-3.9l-9.2,3.5
	c-2.8,1.1-4.1,4.6-2.9,7.8l8.3,22.1l-5.6,2.1L958.6,584.2z"/>
<path id="XMLID_263_" class="st63" d="M961.1,574l-8.3-22.1c-1.2-3.2,0.1-6.7,2.9-7.8l9.2-3.5c2.8-1.1,6.1,0.6,7.4,3.9l8.9,23.3
	c0.5,1.3,0.6,2.7,0.4,4L961.1,574z"/>
<g id="XMLID_292_">
	<path id="XMLID_262_" class="st55" d="M953.4,545.8l8.4,14.2c2.5,4.2,7,6.7,11.8,6.7h7.2l-1.6-4.1h-5.6c-3.4,0-6.5-1.8-8.3-4.7
		l-8.5-14.3l-1.2,0.5C954.7,544.4,953.9,545.1,953.4,545.8z"/>
	<path id="XMLID_261_" class="st55" d="M974.9,551.7l11.2-4.3l6.6,17.2c0.6,1.7-0.2,3.5-1.9,4.2l-5.2,2c-1.7,0.6-3.5-0.2-4.2-1.9
		L974.9,551.7z"/>
</g>
<path id="XMLID_260_" class="st54" d="M933.6,569.2c-0.3-2,1.1-3.9,3.1-4.2l14.6-2.2l7.8-16.7c0.9-1.9,3.1-2.7,4.9-1.8
	c1.9,0.9,2.7,3.1,1.8,4.9l-8.6,18.5c-0.5,1.1-1.6,1.9-2.8,2.1l-16.5,2.5C935.8,572.7,934,571.3,933.6,569.2z"/>
<path id="XMLID_259_" class="st64" d="M965.8,549.3c0.9-1.9,0.1-4.1-1.8-4.9c-1.9-0.9-4.1-0.1-4.9,1.8l-4.2,9l6.8,3.1L965.8,549.3z"
	/>
<path id="XMLID_309_" class="st65" d="M1251,416.3h-11.1v59.4c0,0.7,0.6,1.3,1.3,1.3h8.5c0.7,0,1.3-0.6,1.3-1.3L1251,416.3
	L1251,416.3z"/>
<path id="XMLID_307_" class="st66" d="M1266.6,412.3c0,18.4-9.5,27.9-21.2,27.9c-11.7,0-21.2-9.5-21.2-27.9s11.3-38.7,21.2-38.7
	S1266.6,393.9,1266.6,412.3z"/>
<g id="XMLID_331_">
	<path id="XMLID_306_" class="st67" d="M1164.9,469.3c0,0.7-0.6,1.3-1.3,1.3h-2.9c-0.7,0-1.3-0.6-1.3-1.3v-35.9
		c0-0.7,0.6-1.3,1.3-1.3h2.9c0.7,0,1.3,0.6,1.3,1.3C1164.9,433.4,1164.9,469.3,1164.9,469.3z"/>
	<path id="XMLID_304_" class="st67" d="M1211.9,470.6h-2.9c-0.7,0-1.3-0.6-1.3-1.3v-35.9c0-0.7,0.6-1.3,1.3-1.3h2.9
		c0.7,0,1.3,0.6,1.3,1.3v35.9C1213.2,470,1212.6,470.6,1211.9,470.6z"/>
</g>
<path id="XMLID_303_" class="st68" d="M1223.3,465.3c0.1,0.3,0,0.6-0.2,0.9c-0.2,0.2-0.5,0.4-0.8,0.4h-72c-0.3,0-0.6-0.2-0.8-0.4
	s-0.3-0.6-0.2-0.9l1.6-6.2c0.1-0.5,0.5-0.8,1-0.8h69c0.5,0,0.9,0.3,1,0.8L1223.3,465.3z"/>
<g id="XMLID_327_">
	<path id="XMLID_302_" class="st65" d="M1220.1,453h-67.7c-0.7,0-1.3-0.6-1.3-1.3v-4.6c0-0.7,0.6-1.3,1.3-1.3h67.7
		c0.7,0,1.3,0.6,1.3,1.3v4.6C1221.5,452.4,1220.9,453,1220.1,453z"/>
	<path id="XMLID_301_" class="st65" d="M1220.1,442.2h-67.7c-0.7,0-1.3-0.6-1.3-1.3v-4.6c0-0.7,0.6-1.3,1.3-1.3h67.7
		c0.7,0,1.3,0.6,1.3,1.3v4.6C1221.5,441.6,1220.9,442.2,1220.1,442.2z"/>
</g>
<path id="XMLID_300_" class="st18" d="M1186,414.1c3.7,0,6.8,3,6.8,6.8s-3,6.8-6.8,6.8c-3.7,0-6.8-3-6.8-6.8
	S1182.2,414.1,1186,414.1"/>
<path id="XMLID_299_" class="st69" d="M1198.4,484.5c-2-0.3-3.4-2.2-3.1-4.2l2.4-15.8l-9.3-3.5c-1.9-0.7-2.9-2.8-2.2-4.7
	c0.7-1.9,2.8-2.9,4.7-2.2l12.1,4.5c1.6,0.6,2.6,2.3,2.3,4l-2.9,18.7C1202.3,483.5,1200.4,484.8,1198.4,484.5z"/>
<path id="XMLID_298_" class="st70" d="M1169.1,481.5l-2.9-18.7c-0.3-1.7,0.7-3.4,2.3-4l12.1-4.5c1.9-0.7,4,0.3,4.7,2.2
	c0.7,1.9-0.3,4-2.2,4.7l-9.3,3.5l2.4,15.8c0.3,2-1.1,3.9-3.1,4.2C1171.3,484.8,1169.4,483.5,1169.1,481.5z"/>
<path id="XMLID_297_" class="st71" d="M1189,461.1h-6.2c-3.1,0-5.6-2.5-5.6-5.6l0,0v-22.4h17.3v22.5l0,0
	C1194.6,458.6,1192.1,461.1,1189,461.1z"/>
<path id="XMLID_296_" class="st52" d="M1185.8,451.2l-6.5-2v-10c0-0.6,0.6-1.1,1.2-0.9l5.3,1.7V451.2z"/>
<path id="XMLID_295_" class="st72" d="M1185.8,451.2l6.6-2v-10c0-0.6-0.6-1.1-1.2-0.9l-5.3,1.7V451.2L1185.8,451.2z"/>
<circle id="XMLID_294_" class="st54" cx="1186" cy="420.9" r="6.8"/>
<g id="XMLID_315_">
	<path id="XMLID_293_" class="st67" d="M1156.5,480.2h-2.8c-0.7,0-1.3-0.6-1.3-1.3v-12.3h5.5v12.3
		C1157.9,479.6,1157.3,480.2,1156.5,480.2z"/>
	<path id="XMLID_291_" class="st67" d="M1220.2,478.9c0,0.7-0.6,1.3-1.3,1.3h-2.8c-0.7,0-1.3-0.6-1.3-1.3v-12.3h5.5L1220.2,478.9
		L1220.2,478.9z"/>
</g>
<path id="XMLID_290_" class="st54" d="M1205.7,444.7c-0.9-2.2-3-6.9-4.7-10.6c-1.2-2.5-3.8-4.1-6.5-4.1c-1.9,0-15,0-16.9,0
	c-2.8,0-5.3,1.6-6.5,4.1c-1.8,3.7-3.9,8.4-4.7,10.6c-0.6,1.5,0.1,3.3,1.6,3.9l11.4,5c1.5,0.7,3.3,0,4-1.6c0.7-1.5,0-3.4-1.6-4
	l-8.7-3.8c1-2.3,2.3-5.1,3.4-7.4c0.2-0.4,0.6-0.6,1-0.6c1.9,0,15,0,16.9,0c0.4,0,0.8,0.3,1,0.6c1.1,2.3,2.4,5.2,3.4,7.4l-8.7,3.8
	c-1.5,0.7-2.2,2.5-1.6,4c0.7,1.5,2.5,2.2,4,1.6l11.4-5C1205.6,447.9,1206.3,446.2,1205.7,444.7z"/>
<path id="XMLID_289_" class="st71" d="M1201,434.1c-1.2-2.5-3.8-4.1-6.5-4.1h-5.1c0,0,0,0,0,0c0.1,2-1.7,3.7-3.7,3.7
	c-2.1,0-3.6-1.7-3.7-3.7c0,0,0,0,0,0h-4.5c-2.8,0-5.3,1.6-6.5,4.1c-0.9,1.9-1.9,4-2.7,5.9l5.9,1.9c1-2.2,1.7-3.8,2.4-5.1
	c0.2-0.4,0.6-0.6,1-0.6h16.9c0.4,0,0.8,0.3,1,0.6c0.6,1.3,1.4,2.9,2.4,5.1l5.7-2.3C1202.4,437.2,1201.6,435.5,1201,434.1z"/>
<g id="XMLID_319_">
	<path id="XMLID_317_" class="st73" d="M1665.6,188.3c-4.4-0.9-8.8-0.1-12.4,2c-2.5-3.4-6.1-5.9-10.5-6.8c-9.5-2-18.8,4.1-20.8,13.5
		c0,0,0,0.1,0,0.1c-0.1,0.3,0.1,0.6,0.4,0.8c0.3,0.1,0.6,0,0.8-0.2c3.8-5.2,10.5-6.4,17.6-4.9c4.4,0.9,8.1,3.4,10.5,6.8
		c3.6-2.1,8-2.9,12.4-2c7.2,1.5,12.8,5.3,14.1,11.6c0.1,0.3,0.3,0.5,0.7,0.5c0.3,0,0.6-0.2,0.7-0.5c0,0,0-0.1,0-0.1
		C1681.2,199.6,1675.1,190.3,1665.6,188.3z"/>
	<path id="XMLID_314_" class="st73" d="M1690.1,171c-3.4-1.6-7.2-1.8-10.5-0.7c-1.4-3.2-3.9-6-7.3-7.6c-7.4-3.4-16.2-0.2-19.6,7.1
		c0,0,0,0,0,0c-0.1,0.3,0,0.6,0.2,0.7c0.2,0.2,0.5,0.2,0.7,0c4.1-3.5,9.8-3.2,15.3-0.6c3.4,1.6,5.9,4.4,7.3,7.6
		c3.4-1,7.1-0.9,10.5,0.7c5.7,2.6,9.6,6.9,9.4,12.5c0,0.2,0.2,0.5,0.4,0.5c0.2,0.1,0.5-0.1,0.6-0.3c0.1-0.1,0.1-0.2,0.2-0.3
		C1700.7,183.2,1697.5,174.4,1690.1,171z"/>
	<path id="XMLID_312_" class="st73" d="M1645.8,144.3c0.2,0.1,0.3,0,0.4-0.1c1.8-2.6,5.2-3.3,8.8-2.7c2.2,0.4,4.1,1.6,5.4,3.3
		c1.8-1.1,4-1.6,6.2-1.2c3.6,0.7,6.5,2.5,7.3,5.6c0,0.2,0.2,0.3,0.4,0.3c0.2,0,0.3-0.1,0.3-0.3c0.9-4.8-2.3-9.4-7.1-10.3
		c-2.2-0.4-4.4,0.1-6.2,1.2c-1.3-1.7-3.2-2.9-5.4-3.3c-4.8-0.9-9.4,2.3-10.3,7.1C1645.6,144.1,1645.7,144.3,1645.8,144.3z"/>
	<path id="XMLID_310_" class="st73" d="M1687.5,143.7c1.3,1.1,2,2.7,2.2,4.2c1.6,0,3.2,0.6,4.5,1.7c2.1,1.9,3.3,4.4,2.4,6.8
		c0,0.1,0,0.2,0.1,0.2c0.1,0.1,0.2,0,0.3,0c0.1-0.1,0.2-0.2,0.2-0.2c2.5-2.7,2.2-7-0.5-9.4c-1.3-1.1-2.9-1.7-4.5-1.7
		c-0.2-1.6-0.9-3.1-2.2-4.2c-2.7-2.5-7-2.2-9.4,0.5c-0.1,0.1-0.1,0.2,0,0.3c0.1,0.1,0.2,0.1,0.3,0.1
		C1683,141,1685.4,141.9,1687.5,143.7z"/>
</g>
<path id="XMLID_338_" class="st74" d="M1659,470.2L1659,470.2h227.7l0,0c0-10.7-8.7-19.5-19.5-19.5h-188.8
	C1667.7,450.7,1659,459.4,1659,470.2z"/>
<g id="XMLID_355_">
	<path id="XMLID_337_" class="st75" d="M1816.8,487.1V445c0-2.3,1.9-4.2,4.2-4.2s4.2,1.9,4.2,4.2v42.1c0,2.3-1.9,4.2-4.2,4.2
		S1816.8,489.5,1816.8,487.1z"/>
	<path id="XMLID_336_" class="st75" d="M1797,487.1V445c0-2.3,1.9-4.2,4.2-4.2s4.2,1.9,4.2,4.2v42.1c0,2.3-1.9,4.2-4.2,4.2
		S1797,489.5,1797,487.1z"/>
</g>
<polygon id="XMLID_335_" class="st74" points="1630.9,558.4 1630.9,610.7 1897.8,610.7 1897.8,558.4 1764.4,522.8 "/>
<path id="XMLID_334_" class="st76" d="M1630.9,527.8v30.6h266.9v-30.6c0-22.5-18.2-40.7-40.7-40.7h-185.6
	C1649.1,487.1,1630.9,505.4,1630.9,527.8z"/>
<g id="XMLID_349_">
	<rect id="XMLID_333_" x="1727.6" y="504.1" class="st77" width="73.6" height="38.6"/>
	<path id="XMLID_332_" class="st77" d="M1821,504.1L1821,504.1v38.6h59.8v-15c0-13-10.6-23.7-23.7-23.7H1821L1821,504.1z"/>
	<path id="XMLID_330_" class="st77" d="M1707.7,542.8h-59.8v-15c0-13,10.6-23.7,23.7-23.7h36.2V542.8z"/>
</g>
<path id="XMLID_329_" class="st78" d="M1630.9,610.7h41.8v-4.3c0-11.1-9-20.1-20.1-20.1h-21.8V610.7L1630.9,610.7z"/>
<path id="XMLID_328_" class="st75" d="M1623.7,606.4v8.1c0,3.3,2.6,5.9,5.9,5.9h23.1c3.3,0,5.9-2.6,5.9-5.9v-8.1
	c0-3.3-2.6-5.9-5.9-5.9h-23.1C1626.3,600.5,1623.7,603.2,1623.7,606.4z"/>
<path id="XMLID_326_" class="st78" d="M1856,606.4L1856,606.4v4.3h41.8v-24.4h-21.8C1865,586.3,1856,595.3,1856,606.4L1856,606.4z"
	/>
<path id="XMLID_325_" class="st75" d="M1905.1,606.4v8.1c0,3.3-2.6,5.9-5.9,5.9h-23.1c-3.3,0-5.9-2.6-5.9-5.9v-8.1
	c0-3.3,2.6-5.9,5.9-5.9h23.1C1902.4,600.5,1905.1,603.2,1905.1,606.4z"/>
<circle id="XMLID_323_" class="st79" cx="1704.7" cy="616.4" r="25.5"/>
<circle id="XMLID_322_" class="st76" cx="1704.7" cy="616.4" r="11.7"/>
<circle id="XMLID_321_" class="st79" cx="1829.7" cy="616.4" r="25.5"/>
<circle id="XMLID_320_" class="st76" cx="1829.7" cy="616.4" r="11.7"/>
<path id="XMLID_318_" class="st75" d="M1684,573.4c0-2.3,1.9-4.2,4.2-4.2h19.5c2.3,0,4.2,1.9,4.2,4.2s-1.9,4.2-4.2,4.2h-19.5
	C1685.9,577.7,1684,575.8,1684,573.4z"/>
<g id="XMLID_3_">
	<path id="XMLID_350_" class="st80" d="M404.6,418.2c0,0,5.2,10.9,5.2,24h5.4C415.3,442.1,415.7,424.4,404.6,418.2z"/>
	<path id="XMLID_348_" class="st81" d="M431.1,418.2c0,0-5.2,10.9-5.2,24h-5.4C420.5,442.1,420,424.4,431.1,418.2z"/>
	<path id="XMLID_347_" class="st82" d="M435.2,428.1c0,0-3.9,4.7-3.9,14h-5.4C425.8,442.1,424.9,431.2,435.2,428.1z"/>
	<path id="XMLID_345_" class="st83" d="M400.6,428.1c0,0,3.9,4.7,3.9,14h5.4C409.9,442.1,410.9,431.2,400.6,428.1z"/>
	<path id="XMLID_343_" class="st84" d="M426.3,410c0,0-5.7,13.6-5.7,32.1h-5.4C415.2,442.1,414.2,420.3,426.3,410z"/>
	<g id="XMLID_342_">
	</g>
	<g id="XMLID_341_">
	</g>
	<g id="XMLID_340_">
	</g>
	<g id="XMLID_135_">
	</g>
	<g id="XMLID_134_">
	</g>
	<g id="XMLID_23_">
	</g>
	<g id="XMLID_21_">
	</g>
	<g id="XMLID_19_">
	</g>
	<g id="XMLID_18_">
	</g>
	<g id="XMLID_17_">
	</g>
	<g id="XMLID_16_">
	</g>
	<g id="XMLID_15_">
	</g>
	<g id="XMLID_14_">
	</g>
	<g id="XMLID_13_">
	</g>
	<g id="XMLID_4_">
	</g>
</g>
<g id="XMLID_2_">
	<path id="XMLID_371_" class="st80" d="M826.8,306.8c0,0,5.2,10.9,5.2,24h5.4C837.5,330.8,837.9,313,826.8,306.8z"/>
	<path id="XMLID_370_" class="st81" d="M853.3,306.8c0,0-5.2,10.9-5.2,24h-5.4C842.7,330.8,842.2,313,853.3,306.8z"/>
	<path id="XMLID_369_" class="st82" d="M857.4,316.8c0,0-3.9,4.7-3.9,14H848C848,330.8,847.1,319.9,857.4,316.8z"/>
	<path id="XMLID_368_" class="st83" d="M822.8,316.8c0,0,3.9,4.7,3.9,14h5.4C832.1,330.8,833.1,319.9,822.8,316.8z"/>
	<path id="XMLID_367_" class="st84" d="M848.5,298.6c0,0-5.7,13.6-5.7,32.1h-5.4C837.4,330.8,836.4,308.9,848.5,298.6z"/>
	<g id="XMLID_366_">
	</g>
	<g id="XMLID_365_">
	</g>
	<g id="XMLID_364_">
	</g>
	<g id="XMLID_363_">
	</g>
	<g id="XMLID_362_">
	</g>
	<g id="XMLID_361_">
	</g>
	<g id="XMLID_360_">
	</g>
	<g id="XMLID_359_">
	</g>
	<g id="XMLID_358_">
	</g>
	<g id="XMLID_357_">
	</g>
	<g id="XMLID_356_">
	</g>
	<g id="XMLID_354_">
	</g>
	<g id="XMLID_353_">
	</g>
	<g id="XMLID_352_">
	</g>
	<g id="XMLID_351_">
	</g>
</g>
<g id="XMLID_372_">
	<path id="XMLID_392_" class="st80" d="M1260.9,452.2c0,0,5.2,10.9,5.2,24h5.4C1271.6,476.2,1272,458.4,1260.9,452.2z"/>
	<path id="XMLID_391_" class="st81" d="M1287.4,452.2c0,0-5.2,10.9-5.2,24h-5.4C1276.8,476.2,1276.3,458.4,1287.4,452.2z"/>
	<path id="XMLID_390_" class="st82" d="M1291.4,462.2c0,0-3.9,4.7-3.9,14h-5.4C1282.1,476.2,1281.2,465.3,1291.4,462.2z"/>
	<path id="XMLID_389_" class="st83" d="M1256.9,462.2c0,0,3.9,4.7,3.9,14h5.4C1266.2,476.2,1267.1,465.3,1256.9,462.2z"/>
	<path id="XMLID_388_" class="st84" d="M1282.5,444c0,0-5.7,13.6-5.7,32.1h-5.4C1271.4,476.2,1270.5,454.3,1282.5,444z"/>
	<g id="XMLID_387_">
	</g>
	<g id="XMLID_386_">
	</g>
	<g id="XMLID_385_">
	</g>
	<g id="XMLID_384_">
	</g>
	<g id="XMLID_383_">
	</g>
	<g id="XMLID_382_">
	</g>
	<g id="XMLID_381_">
	</g>
	<g id="XMLID_380_">
	</g>
	<g id="XMLID_379_">
	</g>
	<g id="XMLID_378_">
	</g>
	<g id="XMLID_377_">
	</g>
	<g id="XMLID_376_">
	</g>
	<g id="XMLID_375_">
	</g>
	<g id="XMLID_374_">
	</g>
	<g id="XMLID_373_">
	</g>
</g>
<g id="XMLID_393_">
	<path id="XMLID_413_" class="st80" d="M1390.4,419.7c0,0,5.2,10.9,5.2,24h5.4C1401.1,443.7,1401.5,426,1390.4,419.7z"/>
	<path id="XMLID_412_" class="st81" d="M1416.9,419.7c0,0-5.2,10.9-5.2,24h-5.4C1406.3,443.7,1405.9,426,1416.9,419.7z"/>
	<path id="XMLID_411_" class="st82" d="M1421,429.7c0,0-3.9,4.7-3.9,14h-5.4C1411.6,443.7,1410.7,432.8,1421,429.7z"/>
	<path id="XMLID_410_" class="st83" d="M1386.4,429.7c0,0,3.9,4.7,3.9,14h5.4C1395.7,443.7,1396.7,432.8,1386.4,429.7z"/>
	<path id="XMLID_409_" class="st84" d="M1412.1,411.6c0,0-5.7,13.6-5.7,32.1h-5.4C1401,443.7,1400,421.8,1412.1,411.6z"/>
	<g id="XMLID_408_">
	</g>
	<g id="XMLID_407_">
	</g>
	<g id="XMLID_406_">
	</g>
	<g id="XMLID_405_">
	</g>
	<g id="XMLID_404_">
	</g>
	<g id="XMLID_403_">
	</g>
	<g id="XMLID_402_">
	</g>
	<g id="XMLID_401_">
	</g>
	<g id="XMLID_400_">
	</g>
	<g id="XMLID_399_">
	</g>
	<g id="XMLID_398_">
	</g>
	<g id="XMLID_397_">
	</g>
	<g id="XMLID_396_">
	</g>
	<g id="XMLID_395_">
	</g>
	<g id="XMLID_394_">
	</g>
</g>
<g id="XMLID_443_">
	<path id="XMLID_441_" class="st85" d="M407,401.8c0-11.8-7.2-21.9-17.4-26.3c1.8-3.5,2.8-7.5,2.8-11.7c0-14-11.4-25.4-25.4-25.4
		c-4,0-7.8,0.9-11.1,2.6c-3-10.7-12.8-18.6-24.5-18.6s-21.5,7.9-24.5,18.6c-3.4-1.6-7.1-2.6-11.1-2.6c-14,0-25.4,11.4-25.4,25.4
		c0,4.2,1,8.2,2.8,11.7c-10.2,4.3-17.4,14.5-17.4,26.3c0,15.3,12.1,27.8,27.2,28.4c2.1,7.6,10.3,13.3,20,13.3
		c5.5,0,10.5-1.8,14.2-4.8c3.7,3,8.7,4.8,14.2,4.8c5.5,0,10.5-1.8,14.2-4.8c3.7,3,8.7,4.8,14.2,4.8c9.7,0,17.9-5.7,20-13.3
		C394.9,429.6,407,417.1,407,401.8z"/>
	<g id="XMLID_463_">
		<path id="XMLID_440_" class="st86" d="M329.8,322.6c-0.3,0-0.6,0-0.9,0.1c-0.1,0-0.2,0-0.3,0c-0.3,0-0.7,0.1-1,0.1
			c-0.1,0-0.1,0-0.2,0c-0.4,0.1-0.8,0.1-1.2,0.2c0,0,0,0,0,0c6.7,1.4,12.9,6,16.9,11.9c2.8,4.1,7.6,6.5,12.6,6.2c0,0,0.1,0,0.1,0
			c-3-10.7-12.8-18.6-24.5-18.6c-0.4,0-0.8,0-1.2,0C330,322.6,329.9,322.6,329.8,322.6z"/>
		<path id="XMLID_439_" class="st86" d="M389.6,375.6c1.8-3.5,2.8-7.5,2.8-11.7c0-14-11.4-25.4-25.4-25.4c-1.7,0-3.4,0.2-5.1,0.5
			c11.6,2.4,20.3,12.6,20.3,24.9c0,4.2-1,8.2-2.8,11.7c10.2,4.3,17.4,14.5,17.4,26.3c0,15.3-12.1,27.8-27.2,28.4
			c-1.7,6.3-7.5,11.2-14.9,12.8c1.6,0.3,3.3,0.5,5.1,0.5c9.7,0,17.9-5.7,20-13.3c15.1-0.7,27.2-13.1,27.2-28.4
			C407,390,399.8,379.9,389.6,375.6z"/>
	</g>
	<path id="XMLID_438_" class="st87" d="M313.2,434.6c-2.3,3.9-11.8,8.2-15.3,8.5c0.4,0.1,0.8,0.2,1.2,0.2c0,0,0.1,0,0.1,0
		c0.4,0.1,0.8,0.1,1.2,0.2c0,0,0,0,0,0c0.4,0,0.7,0.1,1.1,0.1c0.1,0,0.2,0,0.3,0c0.4,0,0.8,0,1.2,0l0,0c5,0,9.6-1.5,13.2-4.1
		l0.6-0.5l-3.2-5.2L313.2,434.6z"/>
	<path id="XMLID_437_" class="st88" d="M344.1,441.1l10.9-17.2c0.9-1.4,0.6-3.1-0.6-4.2l0,0c-1.3-1.1-3.2-1.1-4.5,0.2l-8,8.1
		c-1.1,1.1-2.9,0.2-2.7-1.3l2.4-17.5c0.3-1.9-1.1-3.6-3-3.7l-2.2-0.1c-1.7-0.1-3.1,1-3.4,2.7l-4.2,23.9c-0.2,1.3-1.9,1.8-2.8,0.7
		l-13.2-16.2c-0.9-1.1-2.5-1.5-3.8-0.9l-2.3,1c-1.8,0.8-2.5,3-1.5,4.7l13.5,22.6c2,3.3,2.8,7.1,2.3,10.9
		c-1.8,13.5-3.9,26.3-12.9,36.7h46.6l0,0c-9.6-11.1-11.9-25-13.2-39.6C341.2,448,342.1,444.3,344.1,441.1z"/>
	<path id="XMLID_436_" class="st89" d="M355,423.9c0.9-1.4,0.6-3.1-0.6-4.2l0,0c-1.3-1.1-3.2-1.1-4.5,0.2l-3.6,3.6l0,0l-4.4,4.5
		c-1.1,1.1-2.9,0.2-2.7-1.3l2.4-17.5c0.2-1.8-1.1-3.5-2.9-3.7l-6.6,41.2c-0.1,0.5-0.2,1.1-0.3,1.6l0,0l0,0c-0.1,1.1-0.1,2.3,0,3.4
		c1.3,14.6,3.6,28.4,13.2,39.6l0,0h9.7l0,0c-9.6-11.1-11.9-25-13.2-39.6c-0.3-3.7,0.6-7.5,2.6-10.7L355,423.9z"/>
	<path id="XMLID_419_" class="st90" d="M326.5,342.5c-7.1,0-13.3,4.2-16,10.3c-2.9-2-6.4-3.2-10.2-3.2c-9.7,0-17.6,7.9-17.6,17.6
		c0,3.2,0.9,6.2,2.4,8.8c-8.5,1.3-14.9,8.6-14.9,17.4c0,9.7,7.9,17.6,17.6,17.6s56.4-41.2,56.4-51S336.3,342.5,326.5,342.5z"/>
	<g id="XMLID_458_">
	</g>
	<g id="XMLID_457_">
	</g>
	<g id="XMLID_456_">
	</g>
	<g id="XMLID_455_">
	</g>
	<g id="XMLID_454_">
	</g>
	<g id="XMLID_453_">
	</g>
	<g id="XMLID_452_">
	</g>
	<g id="XMLID_451_">
	</g>
	<g id="XMLID_450_">
	</g>
	<g id="XMLID_449_">
	</g>
	<g id="XMLID_448_">
	</g>
	<g id="XMLID_447_">
	</g>
	<g id="XMLID_446_">
	</g>
	<g id="XMLID_445_">
	</g>
	<g id="XMLID_444_">
	</g>
</g>
<g id="XMLID_420_">
	<path id="XMLID_418_" class="st91" d="M109.3,361.1L109.3,361.1c3.6-5,5.7-11.2,5.7-17.8c0-17-13.8-30.8-30.8-30.8
		c-0.3,0-0.5,0-0.7,0c-5.2-8.1-14.3-13.4-24.7-13.4c-12,0-22.3,7.2-26.9,17.5C13.6,321.4,0,338,0,357.9c0,10.9,4.1,20.9,10.9,28.4
		c-0.1,1.2-0.2,2.4-0.2,3.7c0,20.7,16.8,37.4,37.4,37.4c2.3,0,11.2-0.2,13.4-0.6l0.9-9.3c5.3,2.9,11.4,4.5,17.8,4.5
		c20.7,0,37.4-16.8,37.4-37.4C117.7,375.7,114.5,367.5,109.3,361.1z"/>
	<path id="XMLID_417_" class="st92" d="M61.5,413.4c-4.3,1.1-9,1.1-14.1-1.3c-6.9-3.2-11.9-9.8-12.5-17.4c-0.3-3,0.1-5.8,0.9-8.5
		c0.3-1-0.1-2.1-0.9-2.8c-6.6-5.4-10.8-13.6-10.8-22.7c0-11.9,7.1-22.1,17.2-26.7c1.1-0.5,1.7-1.5,1.6-2.7c-0.1-0.9-0.1-1.8-0.1-2.6
		c0-13.9,9.7-25.6,22.7-28.6c-2.1-0.5-4.4-0.8-6.7-0.8c-12,0-22.3,7.2-26.9,17.5C13.6,321.4,0,338,0,357.9
		c0,10.9,4.1,20.9,10.9,28.4c-0.1,1.2-0.2,2.4-0.2,3.7c0,20.7,16.8,37.4,37.4,37.4c2.3,0,11.2-0.2,13.4-0.6v-8.2L61.5,413.4
		L61.5,413.4L61.5,413.4z"/>
	<path id="XMLID_416_" class="st93" d="M56.2,414.1c-0.1,0-0.2,0-0.3,0l-2.4,50.8h16l-2.4-49.7c-0.1-1.8-1.9-3.1-3.5-2.4
		C61.3,413.6,58.8,414.1,56.2,414.1z"/>
	<path id="XMLID_415_" class="st94" d="M67.2,415.2c-0.1-1.8-1.9-3.1-3.5-2.4c-2.3,0.9-4.8,1.4-7.5,1.4c-0.1,0-0.2,0-0.3,0
		l-2.4,50.8h8v-43.5c0-1.2,0.7-2.2,1.8-2.5l3.9-1.3L67.2,415.2z"/>
	<path id="XMLID_414_" class="st92" d="M74.9,467.6H48.1c-1.5,0-2.7-1.2-2.7-2.7c0-1.5,1.2-2.7,2.7-2.7h26.7c1.5,0,2.7,1.2,2.7,2.7
		C77.5,466.4,76.4,467.6,74.9,467.6z"/>
	<g id="XMLID_435_">
	</g>
	<g id="XMLID_434_">
	</g>
	<g id="XMLID_433_">
	</g>
	<g id="XMLID_432_">
	</g>
	<g id="XMLID_431_">
	</g>
	<g id="XMLID_430_">
	</g>
	<g id="XMLID_429_">
	</g>
	<g id="XMLID_428_">
	</g>
	<g id="XMLID_427_">
	</g>
	<g id="XMLID_426_">
	</g>
	<g id="XMLID_425_">
	</g>
	<g id="XMLID_424_">
	</g>
	<g id="XMLID_423_">
	</g>
	<g id="XMLID_422_">
	</g>
	<g id="XMLID_421_">
	</g>
</g>
<g id="XMLID_339_">
	
		<image style="overflow:visible;opacity:0.75;" width="2907" height="1214" id="XMLID_471_" xlink:href="C0CC052449C05F7C.png"  transform="matrix(0.24 0 0 0.24 20.2856 198.6929)">
	</image>
	<g id="XMLID_461_">
		<text id="XMLID_469_" transform="matrix(1 0 0 1 28.2858 250.4011)"><tspan x="0" y="0" class="st95 st96">  PORTFOLIO - WEB-BOOK  </tspan><tspan x="0" y="67.2" class="st95 st96">BY: KEVIN GYAN-BAFFOUR</tspan></text>
	</g>
</g>
</svg>
