<?xml version="1.0" encoding="utf-8"?>
<!-- Generator: Adobe Illustrator 19.0.0, SVG Export Plug-In . SVG Version: 6.00 Build 0)  -->
<svg version="1.1" id="Layer_1" xmlns="http://www.w3.org/2000/svg" xmlns:xlink="http://www.w3.org/1999/xlink" x="0px" y="0px"
	 viewBox="-991 641.8 400 400" style="enable-background:new -991 641.8 400 400;" xml:space="preserve">
<style type="text/css">
	.st0{display:none;}
	.st1{display:inline;}
	.st2{fill:#CAAFA5;}
	.st3{fill:none;stroke:#010101;stroke-width:0.3271;stroke-miterlimit:10;}
	.st4{display:inline;fill:#050505;stroke:#010101;stroke-width:0.3271;stroke-miterlimit:10;}
	.st5{display:inline;fill:none;stroke:#010101;stroke-width:0.3271;stroke-miterlimit:10;}
	.st6{display:inline;fill:#80544F;stroke:#010101;stroke-width:0.3271;stroke-miterlimit:10;}
	.st7{fill:#683929;}
	.st8{fill:#B4887C;}
	.st9{display:inline;fill:#815141;stroke:#010101;stroke-width:0.3271;stroke-miterlimit:10;}
	.st10{display:inline;fill:#B47D6B;stroke:#010101;stroke-width:0.3271;stroke-miterlimit:10;}
	.st11{display:inline;fill:#C18685;stroke:#010101;stroke-width:0.3271;stroke-miterlimit:10;}
	.st12{display:inline;fill:#B48D85;stroke:#010101;stroke-width:0.3271;stroke-miterlimit:10;}
	.st13{fill:#050505;}
	.st14{display:inline;stroke:#010101;stroke-width:0.3271;stroke-miterlimit:10;}
	.st15{display:inline;fill:#805046;stroke:#010101;stroke-width:0.3271;stroke-miterlimit:10;}
	.st16{display:inline;fill:#8D604C;stroke:#010101;stroke-width:0.3271;stroke-miterlimit:10;}
	.st17{display:inline;fill:#9E7369;stroke:#010101;stroke-width:0.3271;stroke-miterlimit:10;}
	.st18{display:inline;fill:#C19881;stroke:#010101;stroke-width:0.3271;stroke-miterlimit:10;}
	.st19{fill:#020101;}
	.st20{display:inline;fill:#020101;stroke:#010101;stroke-width:0.3271;stroke-miterlimit:10;}
	.st21{display:inline;fill:#B48578;stroke:#010101;stroke-width:0.3271;stroke-miterlimit:10;}
	.st22{display:inline;fill:#B47763;stroke:#010101;stroke-width:0.3271;stroke-miterlimit:10;}
	.st23{fill:#754130;}
	.st24{display:inline;fill:#A97B77;stroke:#010101;stroke-width:0.3271;stroke-miterlimit:10;}
	.st25{display:inline;fill:#070000;stroke:#010101;stroke-width:0.3271;stroke-miterlimit:10;}
	.st26{display:inline;fill:#B49D8A;stroke:#010101;stroke-width:0.3271;stroke-miterlimit:10;}
	.st27{display:inline;fill:#B8918E;stroke:#010101;stroke-width:0.3271;stroke-miterlimit:10;}
	.st28{display:inline;opacity:0.77;}
	.st29{opacity:0.66;}
	.st30{opacity:0.41;fill:#050404;stroke:#010101;stroke-width:2.6168;stroke-miterlimit:10;enable-background:new    ;}
	.st31{fill:none;stroke:#010101;stroke-width:2.6168;stroke-miterlimit:10;}
	.st32{opacity:0.7;}
	.st33{fill:#050404;stroke:#010101;stroke-width:2.6168;stroke-miterlimit:10;}
	.st34{fill:#FFFFFF;}
	.st35{fill:#98D9D5;}
	.st36{display:inline;fill:#C1E8E6;}
	.st37{display:inline;fill:#FFFFFF;}
	.st38{display:inline;fill:#082947;}
	.st39{display:inline;fill:#F2EBD9;}
	.st40{display:inline;fill:#FF9D49;}
	.st41{display:inline;fill:#FF6E1D;}
	.st42{display:inline;fill:#185F8D;}
	.st43{display:inline;fill:#BD1515;}
	.st44{display:inline;fill:#6DA8D6;}
	.st45{display:inline;fill:#F2484B;}
	.st46{display:inline;fill:#FFCC75;}
	.st47{fill:#082947;}
	.st48{display:inline;fill:#FF5A5A;}
	.st49{display:inline;fill:#FFE6C3;}
	.st50{display:inline;fill:#F5B955;}
	.st51{display:inline;fill:#32C8AF;}
	.st52{display:inline;fill:#AAE6FF;}
	.st53{fill:#A5DC69;}
	.st54{fill:#F5B955;}
	.st55{fill:#F0F0FA;}
	.st56{fill:#78D2FA;}
	.st57{fill:#231F20;}
	.st58{fill:#FF5A5A;}
	.st59{fill:#C8F5FF;}
	.st60{fill:#46C373;}
	.st61{fill:#6E87F5;}
	.st62{fill:#F5C86E;}
	.st63{fill:#AAE6FF;}
	.st64{fill:#4BB9F5;}
	.st65{fill:#BEBEBE;}
	.st66{fill:#FF9155;}
	.st67{fill:#878791;}
</style>
<g id="face" class="st0">
	<g id="XMLID_460_" class="st1">
		<g id="XMLID_31_">
			<path id="XMLID_43_" class="st2" d="M-711.1,833.7c4.1,26.7-25.3,100.5-64.9,100c-39.4-0.5-64.8-74.3-64.9-100
				c0-1.2,0-11.4,0.9-24.8c1-15.5,1.5-24.6,3-30.7c5.2-21,30.9-46.1,60.9-44.4c30,1.7,50.4,29.5,55.3,48.1c1.3,4.8,3.3,16,6.2,32
				C-712.7,823.6-711.3,832.3-711.1,833.7z"/>
			<path id="XMLID_42_" class="st3" d="M-711.1,833.7c4.1,26.7-25.3,100.5-64.9,100c-39.4-0.5-64.8-74.3-64.9-100
				c0-1.2,0-11.4,0.9-24.8c1-15.5,1.5-24.6,3-30.7c5.2-21,30.9-46.1,60.9-44.4c30,1.7,50.4,29.5,55.3,48.1c1.3,4.8,3.3,16,6.2,32
				C-712.7,823.6-711.3,832.3-711.1,833.7z"/>
		</g>
	</g>
	<path id="XMLID_459_" class="st4" d="M-719.9,807.2c-0.9-1.5-5.5-9.1-5.5-9.1l-3-2.6l-7-1.3h-5.2l-6.7,0.9h-6.1l2-2h-1.1l-0.9-2.6
		h13.1h8.6l6.4,2.6l3.5,5.8L-719.9,807.2z"/>
	<polygon id="XMLID_452_" class="st5" points="-732.2,822.3 -737.9,822.3 -741.6,820.7 -745.3,819.3 -748.6,818.2 -744.9,819.9 
		-741.6,821.5 -738.8,822.9 -736.7,823.4 	"/>
	<path id="XMLID_446_" class="st6" d="M-759.2,815.5l2.2,3.5l3.5,3.2l3.7,3.7l6.7,5l-4.4-1.7l-3.6-2.4c-0.8-0.7-1.7-1.3-2.5-2
		c-0.3-0.3-0.6-0.6-0.8-0.8l-1,2.1l-3.7-1l-5.2-4.3l-3.2-3.8l4.4-1.5H-759.2L-759.2,815.5z"/>
	<g id="XMLID_447_" class="st1">
		<g id="XMLID_26_">
			<polygon id="XMLID_38_" class="st7" points="-793.7,855.8 -790.9,856.5 -784.4,853.6 -782.9,853.2 -779.4,854.8 -775.2,854.8 
				-769.5,854.3 -765.5,854.8 -760.4,855.4 -755.8,854.8 -753.7,851.4 -756.1,848.6 -760.1,847.4 -766.2,845.8 -772.7,847.6 
				-778.9,847.4 -783.2,844.5 -786.9,846.7 -789.1,846.6 -793,847.5 -795.6,847.4 -796.9,847.6 -796.9,850.4 			"/>
			<polygon id="XMLID_37_" class="st3" points="-793.7,855.8 -790.9,856.5 -784.4,853.6 -782.9,853.2 -779.4,854.8 -775.2,854.8 
				-769.5,854.3 -765.5,854.8 -760.4,855.4 -755.8,854.8 -753.7,851.4 -756.1,848.6 -760.1,847.4 -766.2,845.8 -772.7,847.6 
				-778.9,847.4 -783.2,844.5 -786.9,846.7 -789.1,846.6 -793,847.5 -795.6,847.4 -796.9,847.6 -796.9,850.4 			"/>
		</g>
	</g>
	<path id="XMLID_440_" class="st4" d="M-734.7,896.9c-0.8-3.2-7.1-17.3-7.1-17.3l-5.7-9l-9.7-8.8l-7.1-4l-8.1,2.6l-1.6-0.2l-6.6-3.7
		l-11.6,6.3l-8.4,7.8l-8.3,12.1c-2.7,7.3-5.3,14.7-8,22c1.8,2.5,3.6,5,5.4,7.4c2.4-9.4,4.8-18.8,7.2-28.2l8.1-11.2l10.7-7.1l2.9-0.4
		l7,2.4l7.8-2.2l6.4,1.6l7.5,6.6l5,6.6l7.1,13.8l2,6.4L-734.7,896.9z"/>
	<g id="XMLID_455_" class="st1">
		<g id="XMLID_21_">
			<polygon id="XMLID_33_" class="st8" points="-801,885.1 -793,883.5 -783.7,880.7 -780.4,880.2 -775.3,881.7 -767.5,880.2 
				-762.1,880.2 -756.2,881.7 -749.8,882.6 -758.5,891.9 -772.1,893 -781.3,892.9 -790.2,891.9 			"/>
			<polygon id="XMLID_32_" class="st3" points="-801,885.1 -793,883.5 -783.7,880.7 -780.4,880.2 -775.3,881.7 -767.5,880.2 
				-762.1,880.2 -756.2,881.7 -749.8,882.6 -758.5,891.9 -772.1,893 -781.3,892.9 -790.2,891.9 			"/>
		</g>
	</g>
	<polygon id="XMLID_454_" class="st9" points="-751.6,876.4 -756.4,871.3 -761.2,867 -767.5,865.4 -775.3,867.6 -783,865.3 
		-785.2,865.6 -795.9,872.6 -797.4,874.6 -790.2,872.6 -785.2,874.4 -779.9,874.4 -775.4,873.3 -773.3,875.7 -766.3,876.4 
		-761.1,875.8 -757.9,873.3 -752.8,876.4 	"/>
	<polygon id="XMLID_453_" class="st10" points="-800.1,908.4 -788.6,919.3 -776.6,915.5 -780.2,905.1 -787,903.5 	"/>
	<path id="XMLID_441_" class="st11" d="M-767.5,903.7l-2.4,11.8l2.4,1.8l8.9-2.9l2-4.6c-0.7-2.3-1.4-4.6-2.1-6.8
		C-761.7,903.3-764.6,903.5-767.5,903.7z"/>
	<path id="XMLID_438_" class="st12" d="M-793,855.9l-12.3,13.7l-7.7-7.9l-2.6-11.3l-8.3-11.6l-8.2-7.9l-6.4-3.6l-2.2-4.1l-2.5,17.9
		l1.5,10.4l9.8,24.9l9.5,18.9c1.9,3.4,3.8,6.9,5.7,10.3c2.4-8.4,5.8-17.7,10.7-27.3c1.3-2.7,2.7-5.2,4.1-7.6
		c4.1-3.2,8.3-6.3,12.3-9.5l9.1-4.9l-2.5-3.2L-793,855.9z"/>
	<g id="XMLID_485_" class="st1">
		<g id="XMLID_16_">
			<path id="XMLID_28_" class="st13" d="M-709.7,841.1c1.2,8.8,2.4,17.5,3.6,26.3c0.1,7.4-0.6,17.5-4.1,28.8
				c-2,6.5-4.4,11.9-6.9,16.5c-3.5,6.2-9,15.1-16.5,23.3c-4.8,5.3-8.3,8.1-10.3,9.6c-3.6,2.7-6.7,4.5-9.1,5.8
				c4.4-16.9,8.8-33.8,13.1-50.8l5-5.2l14.2-18.6l5-15L-709.7,841.1z"/>
			<path id="XMLID_27_" class="st3" d="M-709.7,841.1c1.2,8.8,2.4,17.5,3.6,26.3c0.1,7.4-0.6,17.5-4.1,28.8
				c-2,6.5-4.4,11.9-6.9,16.5c-3.5,6.2-9,15.1-16.5,23.3c-4.8,5.3-8.3,8.1-10.3,9.6c-3.6,2.7-6.7,4.5-9.1,5.8
				c4.4-16.9,8.8-33.8,13.1-50.8l5-5.2l14.2-18.6l5-15L-709.7,841.1z"/>
		</g>
	</g>
	<path id="XMLID_484_" class="st4" d="M-842.6,835.8c-1,10.6-2,21.2-3,31.8c0.7,7.6,2,16.3,4.3,25.5c1.3,5.5,2.9,10.7,4.5,15.4
		c1.6,4.4,3.3,8.1,4.9,11c1.3,2.4,3.1,5.7,6.1,9.6c0.8,1,2.4,3,5.7,7c1.5,1.8,2.6,3.2,2.7,3.3c3.7,4.4,15.7,12.1,24.8,17.5
		c-8.1-19.7-16.1-39.4-24.2-59.1l-4.8-5.4l-13.4-19.2l-4.3-15.2C-840.5,850.5-841.5,843.2-842.6,835.8z"/>
	<polygon id="XMLID_483_" class="st14" points="-753.7,881.7 -757.4,881.7 -762.9,880.2 -771,880.9 -775.3,881.7 -780.4,880.2 
		-785.2,880.9 -791.5,882.8 -801.7,885.1 -795.1,874.9 -790.4,873.3 -782,875.1 -776.5,873.3 -773.3,875.7 -768.7,875.4 
		-762.4,876.7 -757.9,873.3 -751.6,878.5 	"/>
	<polygon id="XMLID_482_" class="st14" points="-750.1,883.5 -758.5,891.9 -772.1,893 -780.4,893 -790.2,891.9 -799.1,887.2 
		-801.7,885.1 -800.1,908.4 -787,903.5 -780.2,905.1 -776.6,915.5 -770,915.5 -767.5,903.7 -759.2,905.6 -755.4,912.1 -748.6,899.5 
		-751.6,896.1 	"/>
	<path id="XMLID_450_" class="st15" d="M-805.3,797.5l10.3,4.1l5.2,7.1l1.1,5.9l-3.7,3.6l-6.7,6.5c1.7-0.7,3.2-1.3,4.9-2
		c0.6-0.4,1.3-0.7,2-1.1l-0.8,3.1l12.5-9.2l-1.5-4.4l-3.2,3.2v-6.5l-3.4-5.2c-0.4-0.8-1.3-2.3-3.1-3.4c-0.9-0.5-1.7-0.8-2.4-1
		c-1.7-0.3-3.2-0.5-4.9-0.7H-805.3L-805.3,797.5z"/>
	<polygon id="XMLID_449_" class="st16" points="-795.3,841.1 -790.5,841.1 -785.2,834 -780.6,827.1 -779.1,820.8 -779.1,816.2 
		-779.1,812.6 -780.6,809.1 -780.6,802.8 -784.4,796.6 -791.9,792.1 -799.4,792.1 -807.1,792.1 -809.3,792.1 -809.3,793.2 
		-806.7,797.5 -798.9,797.5 -793,798.8 -787.9,803.5 -785.2,807.8 -785.2,814.3 -782.1,811.1 -780.6,815.5 -792.1,824 -792.2,821.6 
		-799.1,824.7 -805.3,828.4 -803.8,829.6 -800.9,830.9 -800.7,831.7 -794.2,829.3 -797.8,833.7 -796.9,841.1 	"/>
	<path id="XMLID_448_" class="st17" d="M-756.2,789.7l-9.4,6.7l-3.9,9l-2,5.7l-5.3,1.5l-2.4-0.1l-0.8,14l3.7-3.2l0.3-5.2h4.1
		l-0.6,7.3l4.8,6.7l7.3,6.4l4.9,3.8l-0.6-5.2l-6.2-5.5l-2.5-4.4l9.4,6.1l0.6-5.1l-0.8-2.4l-3.7-1l-6.7-6.1c-0.6-1-1.2-2-1.8-3
		c0.6-2.5,1.1-5,1.8-7.6l2.6-4.9l4.7-6l7.3-1.1l8.6-2l-4.6,0.6h-6.1l2-2h-1.1l-0.9-2.6h13.1l-12.3-1.3L-756.2,789.7z"/>
	<path id="XMLID_439_" class="st6" d="M-740.6,794.1l-6.3,3.4l-7.6,2.5l-4.7,3.5l-2.2,4.6v4.1l1.7,2.6l-7.9,2.3
		c-0.1-0.5-0.2-1-0.3-1.6c0.6-2.4,1.3-4.7,1.9-7.1c0.5-1.5,1.3-3.2,2.4-5.1c1.7-2.6,3.5-4.4,4.9-5.7c3.4-0.6,6.7-1.2,10-1.8
		L-740.6,794.1z"/>
	<path id="XMLID_436_" class="st18" d="M-717.5,833.1c0.8,0.5,1.7,1.2,2.5,2.2c1.2,1.3,2,2.5,2.5,3.5c0.3,1.2,0.6,2.5,0.9,4
		c0.2,1.2,0.3,2.3,0.4,3.4c-3,9.9-6,19.8-9,29.7l-14.5,19.5l-8.4-18l-4.2-6.7l-9.7-8.8l-7.1-4l-6.9,2.2l1.4-5.7l7.6,1l7.5,2.9
		l15.9,7.2c0.8-0.4,1.7-0.7,2.5-1.1c0.8-1.4,1.7-2.8,2.4-4.2c1-3.2,1.9-6.4,2.9-9.5l-6-6l-6.4-5.1l-6.2-2.1l-5.1,0.2l-2.3-0.8
		l-5.5-4.8l-2.5-4.4l8.4,5.5l1,0.6l0.6-5.1l-0.8-2.4l1-2.1l3.3,2.9l6.5,4.1h3L-717.5,833.1z"/>
	<g id="XMLID_445_" class="st1">
		<g id="XMLID_14_">
			<path id="XMLID_23_" class="st19" d="M-842.2,836.3c-0.7,11.5-1.4,23.1-2.2,34.6l8.5,28.7l13,28.9l17.5,17.9l12.7,10.9
				c5.3,0.9,10.7,1.7,15.9,2.6c12.6,0.4,23.8-5,28.6-14.3c2.4-4.6,2.7-9.3,2.6-12.6c-3.3-4.6-6.6-9.1-9.9-13.7
				c-15.6,0.2-31.2,0.4-46.8,0.6c-4.6-4.4-9.2-9-13.8-13.4c-2.1-3.7-4.2-7.5-6.3-11.2c-2.8-5.9-5.6-11.8-8.4-17.8
				c-1.1-2.2-2.2-4.5-3.2-6.7l-7.6-19.4C-841.8,846.4-842,841.3-842.2,836.3z"/>
			<path id="XMLID_22_" class="st3" d="M-842.2,836.3c-0.7,11.5-1.4,23.1-2.2,34.6l8.5,28.7l13,28.9l17.5,17.9l12.7,10.9
				c5.3,0.9,10.7,1.7,15.9,2.6c12.6,0.4,23.8-5,28.6-14.3c2.4-4.6,2.7-9.3,2.6-12.6c-3.3-4.6-6.6-9.1-9.9-13.7
				c-15.6,0.2-31.2,0.4-46.8,0.6c-4.6-4.4-9.2-9-13.8-13.4c-2.1-3.7-4.2-7.5-6.3-11.2c-2.8-5.9-5.6-11.8-8.4-17.8
				c-1.1-2.2-2.2-4.5-3.2-6.7l-7.6-19.4C-841.8,846.4-842,841.3-842.2,836.3z"/>
		</g>
	</g>
	<polygon id="XMLID_443_" class="st20" points="-814.4,794.1 -818.4,791 -823.6,792.5 -828.3,796.2 -829.8,800.1 -825.1,796.8 
		-819.3,795 	"/>
	<path id="XMLID_442_" class="st20" d="M-810.1,793.8c-1.3-1.1-2.5-2.2-3.8-3.4l7.8-1.3h5.3l7.1,0.8l-1.4,3.2h-11
		C-807.4,793.3-808.8,793.6-810.1,793.8z"/>
	<path id="XMLID_437_" class="st21" d="M-746.9,797.5l7.6,1.3c1.1-0.1,2.2-0.2,3.3-0.3c1.1,0.7,2.2,1.4,3.2,2.2
		c2.6,2.2,5.2,4.4,7.8,6.5l2.6,3.9v4.4c-0.4,0.8-0.8,1.5-1.1,2.3c-1,0.8-1.9,1.6-2.9,2.4c-2.4,1-4.6,2-7,3.1
		c1.7,1.6,3.2,3.2,4.9,4.8c2.9,0.6,5.8,1.1,8.6,1.7l4.9,2.3l-1.6-13.3v-7.4l-4.3-8.4l1,4.4l-5.5-9.1l-3-2.6l-5.8-1.1l-6.4-0.2
		L-746.9,797.5z"/>
	<path id="XMLID_435_" class="st22" d="M-795.3,841.1l-2.1,3.4c0,0.4,0.1,0.9,0.1,1.4c0.1,0.7,0.3,1.3,0.4,1.8
		c1.2,0.3,2.9,0.4,4.9,0.3c1.4-0.1,2.6-0.4,3.6-0.7c0.5-0.1,1.1-0.3,1.6-0.4l2.7-1.7h-5.1l-3.6-0.8l2.4-3.3H-795.3z"/>
	<g id="XMLID_481_" class="st1">
		<g id="XMLID_12_">
			<polygon id="XMLID_18_" class="st23" points="-755.4,842.5 -753.5,846.9 -753.7,851.4 -756.1,848.6 -763.3,846.5 -759.2,845.1 
				-758.4,843.2 -762.3,839.9 -766.2,837 -768.2,834 -768.5,830.9 			"/>
			<polygon id="XMLID_17_" class="st3" points="-755.4,842.5 -753.5,846.9 -753.7,851.4 -756.1,848.6 -763.3,846.5 -759.2,845.1 
				-758.4,843.2 -762.3,839.9 -766.2,837 -768.2,834 -768.5,830.9 			"/>
		</g>
	</g>
	<polygon id="XMLID_480_" class="st12" points="-793.7,746.5 -809.7,759.6 -822.1,771 -827.1,781.8 -836,793.8 -836,797.5 
		-820.3,787 -803.8,784 -792.5,780.4 -784.2,772 -782.5,762.5 -788.4,755.3 -774.5,751.8 -761,755.6 -755.4,767.4 -760.2,774.3 
		-755.4,781.1 -740.4,785.6 -728.3,789.1 -719.9,795.5 -725.1,780.1 -735.2,766.4 -751.6,751.1 -763.3,744.2 -782.2,742.3 	"/>
	<polygon id="XMLID_479_" class="st10" points="-802.4,866.5 -805.3,869.7 -813,861.7 -815.6,850.4 -824,838.9 -832.1,830.9 
		-825.9,833.2 -817.3,837.5 -810.7,836.4 -807.3,849.6 -805.3,859.1 -801.7,862.4 -799.6,861.3 -793,855.9 -802.4,866.9 	"/>
	<path id="XMLID_478_" class="st24" d="M-805.3,797.1c-3.5,1-7,2-10.4,3l-1.3,3.5c-0.6,0.8-1.3,1.7-2,2.5c-1.5,0.9-3,1.8-4.6,2.7
		c-1.1,0.8-2.4,1.5-3.5,2.3c0.2-1.1,0.4-2.3,0.6-3.4c-0.4-0.6-1-1.1-1.4-1.7l-2.8-0.4l-1.5-2.3l3.1-3.7l3.9-2.7l10.7-2.7l5.1-0.8
		C-808,794.5-806.7,795.9-805.3,797.1z"/>
	<polygon id="XMLID_477_" class="st25" points="-739.7,900.5 -755.4,919.3 -746.9,942.8 	"/>
	<polygon id="XMLID_476_" class="st26" points="-836,806.6 -838.4,818.2 -836,827.7 -832.1,830.9 -829.8,823.4 -825.9,816.6 
		-829.8,811.1 -830.6,805.5 	"/>
	<path id="XMLID_475_" class="st10" d="M-745.3,838.7c2.2,2.4,4.4,4.8,6.7,7.1c0.6,0.7,2.5,2.7,2.7,5.8c0.1,1.3-0.1,2.5-0.4,3.3
		c-0.9,1.1-1.7,2.2-2.6,3.2c-2.4-0.1-4.8-0.1-7.2-0.2c-5.1-0.8-10.3-1.7-15.4-2.5c4.1,1.7,8.3,3.4,12.5,5.1c3.5,1.6,7,3.2,10.4,4.8
		c0.8-0.3,1.7-0.6,2.5-1c0.4-0.8,0.9-1.7,1.4-2.5l3.1-5.3l0.9-6c-1.4-1.7-2.8-3.4-4.1-5.1c-1.6-1.8-4.2-4.3-7.9-5.8
		C-743.7,839.2-744.5,838.9-745.3,838.7z"/>
	<path id="XMLID_474_" class="st27" d="M-766.7,842c0.2,1.3,0.3,2.5,0.5,3.7c-1.4,0.6-3.2,1.3-5.3,1.8c-2,0.4-3.8,0.6-5.3,0.6
		c-0.8-0.1-2.2-0.4-3.7-1.3c-1.3-0.8-2.2-1.8-2.7-2.4c-1.2-1.1-2.5-2.3-3.7-3.4h-3.7l10-14c-0.3,0.9-0.6,1.7-0.8,2.6
		c-0.3,1.3-0.5,2.7-0.8,4.1c-0.2,1-0.4,1.9-0.6,2.9c0.1,1.5,0.1,3,0.2,4.6c0.1,0.4,0.4,1,1,1.7c0.6,0.8,1.4,1.2,1.8,1.5
		c0.9,0.4,2.1,0.8,3.6,0.9c2.4,0.2,4.3-0.4,5.3-0.8c0.4-0.4,0.8-0.7,1.3-1.1c0.4-3,0.8-6,1.2-9.1
		C-767.8,836.9-767.2,839.4-766.7,842z"/>
	<g id="glasses" class="st28">
		<g id="XMLID_434_">
			<g id="XMLID_69_">
				<g id="XMLID_99_">
					<g id="XMLID_105_" class="st29">
						<circle id="XMLID_107_" class="st30" cx="-809.2" cy="814.9" r="25.5"/>
						<circle id="XMLID_106_" class="st31" cx="-809.2" cy="814.9" r="25.5"/>
					</g>
					<g id="XMLID_102_" class="st32">
						<circle id="XMLID_104_" class="st30" cx="-739.9" cy="816" r="25.5"/>
						<circle id="XMLID_103_" class="st31" cx="-739.9" cy="816" r="25.5"/>
					</g>
					<rect id="XMLID_101_" x="-839.8" y="809.9" class="st33" width="4.9" height="9.9"/>
					<rect id="XMLID_100_" x="-714.1" y="809.9" class="st33" width="4.9" height="9.9"/>
				</g>
			</g>
		</g>
		<path id="XMLID_433_" class="st33" d="M-765.8,819.3c-0.4-0.4-3.6-4.6-9.3-4.5c-5.5,0.1-8.7,4.1-9.1,4.5c0-2.6,0-5.1,0-7.8h18.4
			V819.3L-765.8,819.3z"/>
	</g>
</g>
<g id="humaneyes" class="st0">
	<g id="XMLID_470_" class="st1">
		<path id="XMLID_432_" class="st34" d="M-792.5,812.2c0.3,5.7-8.3,11.4-15.9,10.8c-6.3-0.4-13.7-5.2-13.4-10.8
			c0.3-5.3,7.4-9,12.8-9.6C-801.7,801.9-792.8,806.6-792.5,812.2z"/>
		<path id="XMLID_431_" class="st34" d="M-728.5,812.4c0.3,5.7-8.3,11.4-15.9,10.8c-6.3-0.4-13.7-5.2-13.4-10.8
			c0.3-5.3,7.4-9,12.8-9.6C-737.6,802-728.7,806.7-728.5,812.4z"/>
	</g>
	<g id="XMLID_465_" class="st1">
		<circle id="XMLID_429_" cx="-807.2" cy="812.9" r="7.6"/>
		<circle id="XMLID_428_" class="st34" cx="-809.8" cy="810.3" r="2.6"/>
	</g>
	<g id="XMLID_427_" class="st1">
		<circle id="XMLID_451_" cx="-743.1" cy="812.9" r="7.6"/>
		<circle id="XMLID_457_" class="st34" cx="-745.7" cy="810.3" r="2.6"/>
	</g>
</g>
<g class="st0">
	<g class="st1">
		<polygon class="st35" points="-982.4,997.4 -982.4,993.3 -987.2,993.3 		"/>
		<path class="st35" d="M-952.1,1015l10.8,9.3c0.4,0.4,0.5,1,0.1,1.5l1.6,1.3c0.4-0.4,1-0.5,1.5-0.1l10,8.6v-41.1L-952.1,1015z"/>
		<polygon class="st35" points="-934.7,997.4 -929.9,993.3 -934.7,993.3 		"/>
	</g>
	<path class="st36" d="M-941.2,1025.7c-0.2,0.2-0.5,0.4-0.8,0.4c-0.2,0-0.5-0.1-0.7-0.2l-11-9.5l-4.2,3.6c-0.2,0.2-0.4,0.2-0.7,0.2
		c-0.2,0-0.5-0.1-0.7-0.2l-4.2-3.6l-23.8,20.4h57.2l-9.6-8.2c-0.4-0.4-0.5-1-0.1-1.5L-941.2,1025.7z"/>
	<polygon class="st37" points="-965,1015 -988.9,994.5 -988.9,1035.6 	"/>
	<path class="st38" d="M-926.1,992.2C-926.1,992.2-926.1,992.2-926.1,992.2C-926.1,992.2-926.1,992.2-926.1,992.2c0-0.1,0-0.1,0-0.1
		c0,0,0,0,0-0.1c0,0,0,0,0,0c0,0,0,0,0,0c0,0,0,0,0-0.1c0,0,0,0,0,0c0,0,0,0,0-0.1c0,0,0,0,0,0c0,0,0,0,0-0.1c0,0,0,0,0,0
		c0,0,0,0,0-0.1c0,0,0,0,0,0c0,0,0,0,0-0.1c0,0,0,0,0,0c0,0,0,0,0,0c0,0,0,0,0,0c0,0,0,0,0,0c0,0,0,0,0,0c0,0,0,0,0,0c0,0,0,0,0,0
		c0,0,0,0,0,0c0,0,0,0,0,0c0,0,0,0,0,0c0,0,0,0-0.1,0c0,0,0,0,0,0c0,0,0,0-0.1,0c0,0,0,0,0,0c0,0,0,0-0.1,0c0,0,0,0,0,0
		c0,0,0,0-0.1,0c0,0,0,0,0,0c0,0,0,0,0,0h-7.6V975c0-0.6-0.5-1-1-1h-45.6c-0.6,0-1,0.5-1,1v16.2h-7.6c0,0,0,0,0,0c0,0,0,0-0.1,0
		c0,0,0,0,0,0c0,0,0,0-0.1,0c0,0,0,0-0.1,0c0,0,0,0,0,0c0,0,0,0-0.1,0c0,0,0,0,0,0c0,0,0,0,0,0c0,0,0,0,0,0c0,0,0,0,0,0c0,0,0,0,0,0
		c0,0,0,0,0,0c0,0,0,0,0,0c0,0,0,0,0,0c0,0,0,0,0,0c0,0,0,0,0,0c0,0,0,0,0,0c0,0,0,0,0,0c0,0,0,0,0,0.1c0,0,0,0,0,0c0,0,0,0,0,0.1
		c0,0,0,0,0,0c0,0,0,0,0,0.1c0,0,0,0,0,0c0,0,0,0,0,0.1c0,0,0,0,0,0c0,0,0,0,0,0.1c0,0,0,0,0,0c0,0,0,0,0,0c0,0,0,0,0,0.1
		c0,0,0,0,0,0c0,0,0,0,0,0.1c0,0,0,0,0,0v45.6c0,0,0,0,0,0c0,0,0,0,0,0.1c0,0,0,0,0,0c0,0,0,0,0,0.1c0,0,0,0,0,0c0,0,0,0,0,0
		c0,0,0,0,0,0c0,0,0,0,0,0c0,0,0,0,0,0.1c0,0,0,0,0,0c0,0,0,0,0,0.1c0,0,0,0,0,0c0,0,0,0,0,0.1c0,0,0,0,0,0c0,0,0,0,0,0.1
		c0,0,0,0,0,0c0,0,0,0,0,0c0,0,0,0,0.1,0.1c0,0,0,0,0,0c0,0,0,0,0,0c0,0,0,0,0,0c0,0,0,0,0.1,0c0,0,0,0,0,0c0,0,0,0,0.1,0
		c0,0,0,0,0,0c0,0,0,0,0.1,0c0,0,0,0,0,0c0,0,0.1,0,0.1,0c0,0,0,0,0,0c0,0,0.1,0,0.1,0c0,0,0.1,0,0.1,0h62.8c0,0,0.1,0,0.1,0
		c0,0,0.1,0,0.1,0c0,0,0,0,0,0c0,0,0.1,0,0.1,0c0,0,0,0,0,0c0,0,0,0,0.1,0c0,0,0,0,0,0c0,0,0,0,0.1,0c0,0,0,0,0,0c0,0,0,0,0,0
		c0,0,0,0,0,0c0,0,0,0,0,0c0,0,0,0,0,0c0,0,0,0,0.1-0.1c0,0,0,0,0,0c0,0,0,0,0,0c0,0,0,0,0-0.1c0,0,0,0,0,0c0,0,0,0,0-0.1
		c0,0,0,0,0,0c0,0,0,0,0-0.1c0,0,0,0,0,0c0,0,0,0,0-0.1c0,0,0,0,0,0c0,0,0,0,0-0.1c0,0,0,0,0,0c0,0,0,0,0,0c0,0,0,0,0-0.1
		c0,0,0,0,0,0c0,0,0,0,0-0.1c0,0,0,0,0,0L-926.1,992.2L-926.1,992.2z M-938.2,1027c-0.4-0.4-1.1-0.3-1.5,0.1
		c-0.4,0.4-0.3,1.1,0.1,1.5l9.6,8.2h-57.2l23.8-20.4l4.2,3.6c0.2,0.2,0.4,0.2,0.7,0.2c0.2,0,0.5-0.1,0.7-0.2l4.2-3.6l11,9.5
		c0.2,0.2,0.4,0.2,0.7,0.2c0.3,0,0.6-0.1,0.8-0.4c0.4-0.4,0.3-1.1-0.1-1.5l-10.8-9.3l24-20.5v41.1L-938.2,1027z M-936.8,999.1
		l-21.8,18.6l-21.8-18.6V976h43.5V999.1z M-965,1015l-24,20.5v-41.1L-965,1015z M-934.7,997.4v-4.1h4.8L-934.7,997.4z M-982.4,997.4
		l-4.8-4.1h4.8V997.4z"/>
	<polygon class="st37" points="-980.3,999.1 -958.5,1017.8 -936.8,999.1 -936.8,976 -980.3,976 	"/>
</g>
<g class="st0">
	<path class="st39" d="M-623.7,977.5v-10.4c0-4.9-4.5-8.9-10-8.9h-5.9c-0.6,0-1.1-0.3-1.5-0.7c-2.1-2.8-5.6-4.5-9.3-4.5
		c-3.8,0-7.3,1.7-9.3,4.5c-0.3,0.4-0.9,0.7-1.5,0.7h-5.9c-5.5,0-10,4-10,8.9v10.4c0,0.9-0.8,1.6-1.8,1.6H-702v58.6h103.2v-58.6
		h-23.2C-622.9,979.1-623.7,978.4-623.7,977.5z M-677.1,1025c0,0.4-0.2,0.8-0.5,1.1l-8.9,7.9c-0.3,0.3-0.8,0.5-1.2,0.5
		c-0.4,0-0.9-0.2-1.2-0.5l-8.9-7.9c-0.3-0.3-0.5-0.7-0.5-1.1v-41.2c0-0.9,0.8-1.6,1.8-1.6h17.9c1,0,1.8,0.7,1.8,1.6V1025
		L-677.1,1025z M-667.1,961.3h9.3c0.8-3,3.8-5.2,7.4-5.2c3.6,0,6.6,2.2,7.4,5.2h9.3c3.6,0,6.5,2.6,6.5,5.7c0,3.2-2.9,5.7-6.5,5.7
		h-33.4c-3.6,0-6.5-2.6-6.5-5.7S-670.7,961.3-667.1,961.3z M-671.8,976h42.8c1,0,1.8,0.7,1.8,1.6s-0.8,1.6-1.8,1.6h-42.8
		c-1,0-1.8-0.7-1.8-1.6S-672.8,976-671.8,976z M-652.1,1025c0,0.4-0.2,0.8-0.5,1.1l-8.9,7.9c-0.3,0.3-0.8,0.5-1.2,0.5
		c-0.4,0-0.9-0.2-1.2-0.5l-8.9-7.9c-0.3-0.3-0.5-0.7-0.5-1.1v-41.2c0-0.9,0.8-1.6,1.8-1.6h17.9c1,0,1.8,0.7,1.8,1.6V1025z
		 M-627.2,1025c0,0.4-0.2,0.8-0.5,1.1l-8.9,7.9c-0.3,0.3-0.8,0.5-1.2,0.5s-0.9-0.2-1.2-0.5l-8.9-7.9c-0.3-0.3-0.5-0.7-0.5-1.1v-41.2
		c0-0.9,0.8-1.6,1.8-1.6h17.9c1,0,1.8,0.7,1.8,1.6V1025L-627.2,1025z M-604,982.2c1,0,1.8,0.7,1.8,1.6v41.2c0,0.4-0.2,0.8-0.5,1.1
		l-8.9,7.9c-0.3,0.3-0.8,0.5-1.2,0.5s-0.9-0.2-1.2-0.5l-8.9-7.9c-0.3-0.3-0.5-0.7-0.5-1.1v-41.2c0-0.9,0.8-1.6,1.8-1.6H-604z"/>
	<path class="st40" d="M-614.9,994.7h9.1v-9.4h-14.4v11h3.5C-616.7,995.4-615.9,994.7-614.9,994.7z"/>
	<path class="st41" d="M-641.6,996.3c0-0.9,0.8-1.6,1.8-1.6h9.1v-9.4h-14.4v11C-645.1,996.3-641.6,996.3-641.6,996.3z"/>
	<path class="st42" d="M-691.4,996.3c0-0.9,0.8-1.6,1.8-1.6h9.1v-9.4H-695v11C-695,996.3-691.4,996.3-691.4,996.3z"/>
	<path class="st43" d="M-666.5,996.3c0-0.9,0.8-1.6,1.8-1.6h9.1v-9.4H-670v11C-670,996.3-666.5,996.3-666.5,996.3z"/>
	<path class="st44" d="M-680.6,1024.4v-26.5h-9.1c-1,0-1.8-0.7-1.8-1.6h-3.5v28.1l7.2,6.4L-680.6,1024.4z"/>
	<path class="st45" d="M-655.7,1024.4v-26.5h-9.1c-1,0-1.8-0.7-1.8-1.6h-3.5v28.1l7.2,6.4L-655.7,1024.4z"/>
	<path class="st40" d="M-630.7,1024.4v-26.5h-9.1c-1,0-1.8-0.7-1.8-1.6h-3.5v28.1l7.2,6.4L-630.7,1024.4z"/>
	<path class="st46" d="M-605.8,1024.4v-26.5h-9.1c-1,0-1.8-0.7-1.8-1.6c0,0-3.5,0-3.5,0v28.1l7.2,6.4L-605.8,1024.4z"/>
	<g class="st1">
		<path class="st47" d="M-623.7,983.8v41.2c0,0.4,0.2,0.8,0.5,1.1l8.9,7.9c0.3,0.3,0.8,0.5,1.2,0.5c0.4,0,0.9-0.2,1.2-0.5l8.9-7.9
			c0.3-0.3,0.5-0.7,0.5-1.1v-41.2c0-0.9-0.8-1.6-1.8-1.6h-17.9C-622.9,982.2-623.7,982.9-623.7,983.8z M-620.2,985.3h14.4v9.4h-9.1
			c-1,0-1.8,0.7-1.8,1.6c0,0.9,0.8,1.6,1.8,1.6h9.1v26.5l-7.2,6.4l-7.2-6.4L-620.2,985.3L-620.2,985.3z"/>
		<path class="st47" d="M-678.8,982.2h-17.9c-1,0-1.8,0.7-1.8,1.6v41.2c0,0.4,0.2,0.8,0.5,1.1l8.9,7.9c0.3,0.3,0.8,0.5,1.2,0.5
			c0.4,0,0.9-0.2,1.2-0.5l8.9-7.9c0.3-0.3,0.5-0.7,0.5-1.1v-41.2C-677.1,982.9-677.9,982.2-678.8,982.2z M-695,985.3h14.4v9.4h-9.1
			c-1,0-1.8,0.7-1.8,1.6c0,0.9,0.8,1.6,1.8,1.6h9.1v26.5l-7.2,6.4l-7.2-6.4C-695,1024.4-695,985.3-695,985.3z"/>
		<path class="st47" d="M-597,976h-23.2v-8.9c0-6.6-6.1-12-13.5-12h-5c-2.8-3.3-7.1-5.2-11.7-5.2s-9,1.9-11.7,5.2h-5
			c-7.4,0-13.5,5.4-13.5,12v8.9h-23.2c-1,0-1.8,0.7-1.8,1.6v61.7c0,0.9,0.8,1.6,1.8,1.6H-597c1,0,1.8-0.7,1.8-1.6v-61.7
			C-595.3,976.7-596,976-597,976z M-598.8,1037.6H-702v-58.6h23.2c1,0,1.8-0.7,1.8-1.6v-10.4c0-4.9,4.5-8.9,10-8.9h5.9
			c0.6,0,1.1-0.3,1.5-0.7c2.1-2.8,5.6-4.5,9.3-4.5c3.8,0,7.3,1.7,9.3,4.5c0.3,0.4,0.9,0.7,1.5,0.7h5.9c5.5,0,10,4,10,8.9v10.4
			c0,0.9,0.8,1.6,1.8,1.6h23.2V1037.6z"/>
		<path class="st47" d="M-667.1,972.8h33.4c3.6,0,6.5-2.6,6.5-5.7c0-3.2-2.9-5.7-6.5-5.7h-9.3c-0.8-3-3.8-5.2-7.4-5.2
			c-3.6,0-6.6,2.2-7.4,5.2h-9.3c-3.6,0-6.5,2.6-6.5,5.7C-673.6,970.2-670.7,972.8-667.1,972.8z M-667.1,964.5h10.8
			c1,0,1.8-0.7,1.8-1.6c0-2,1.8-3.7,4.1-3.7s4.1,1.6,4.1,3.7c0,0.9,0.8,1.6,1.8,1.6h10.9c1.6,0,2.9,1.2,2.9,2.6
			c0,1.4-1.3,2.6-2.9,2.6h-33.4c-1.6,0-2.9-1.2-2.9-2.6C-670,965.6-668.7,964.5-667.1,964.5z"/>
		<path class="st47" d="M-629,982.2h-17.9c-1,0-1.8,0.7-1.8,1.6v41.2c0,0.4,0.2,0.8,0.5,1.1l8.9,7.9c0.3,0.3,0.8,0.5,1.2,0.5
			s0.9-0.2,1.2-0.5l8.9-7.9c0.3-0.3,0.5-0.7,0.5-1.1v-41.2C-627.2,982.9-628,982.2-629,982.2z M-645.1,985.3h14.4v9.4h-9.1
			c-1,0-1.8,0.7-1.8,1.6c0,0.9,0.8,1.6,1.8,1.6h9.1v26.5l-7.2,6.4l-7.2-6.4L-645.1,985.3L-645.1,985.3z"/>
		<path class="st47" d="M-653.9,982.2h-17.9c-1,0-1.8,0.7-1.8,1.6v41.2c0,0.4,0.2,0.8,0.5,1.1l8.9,7.9c0.3,0.3,0.8,0.5,1.2,0.5
			c0.4,0,0.9-0.2,1.2-0.5l8.9-7.9c0.3-0.3,0.5-0.7,0.5-1.1v-41.2C-652.1,982.9-652.9,982.2-653.9,982.2z M-670,985.3h14.4v9.4h-9.1
			c-1,0-1.8,0.7-1.8,1.6c0,0.9,0.8,1.6,1.8,1.6h9.1v26.5l-7.2,6.4l-7.2-6.4L-670,985.3L-670,985.3z"/>
		<path class="st47" d="M-671.8,979.1h42.8c1,0,1.8-0.7,1.8-1.6s-0.8-1.6-1.8-1.6h-42.8c-1,0-1.8,0.7-1.8,1.6
			S-672.8,979.1-671.8,979.1z"/>
	</g>
</g>
<g class="st0">
	<path class="st48" d="M-895.3,700.2l3.1-0.9c0.8,0.6,1.6,1,2.6,1.3l0.7,2.8h5.4l0.7-2.8c0.9-0.3,1.8-0.8,2.6-1.3l3.1,0.9l2.7-4.3
		l-2.4-2c0.1-0.4,0.1-0.9,0.1-1.3c0-0.5,0-0.9-0.1-1.3l2.4-2l-2.7-4.3l-3.1,0.9c-0.8-0.6-1.6-1-2.6-1.3l-0.7-2.8h-5.4l-0.7,2.8
		c-0.9,0.3-1.8,0.8-2.6,1.3l-3.1-0.9l-2.7,4.3l2.4,2c-0.1,0.4-0.1,0.9-0.1,1.3c0,0.5,0,0.9,0.1,1.3l-2.4,2L-895.3,700.2z"/>
	<path class="st49" d="M-916.1,725.7L-916.1,725.7c-7.4,0-13.4-5.4-13.4-12.1v-8.2c0-6.7,6-12.1,13.4-12.1l0,0
		c7.4,0,13.4,5.4,13.4,12.1v8.2C-902.7,720.3-908.7,725.7-916.1,725.7z"/>
	<path class="st50" d="M-902.7,707.5v-2.1c0-6.7-6-12.1-13.4-12.1l0,0c-7.4,0-13.4,5.4-13.4,12.1v3h4.8c4.3,0,8.3-2,10.5-5.4l0,0
		l2.7,2.4c2.2,1.9,5.1,3,8.1,3L-902.7,707.5z"/>
	<path class="st51" d="M-883.7,757v-13c0-4.7-3.5-8.8-8.4-10l0,0H-940l0,0c-5,1.2-8.4,5.3-8.4,10v13H-883.7z"/>
	<path class="st52" d="M-900.6,728.9h-30.9c-4.7,0-8.5,3.5-8.5,7.7V757h47.9v-20.4C-892.1,732.3-895.9,728.9-900.6,728.9z"/>
	<ellipse class="st37" cx="-916.1" cy="743" rx="4.7" ry="4.3"/>
	<path class="st1" d="M-916.1,737.1c-3.5,0-6.4,2.6-6.4,5.8s2.9,5.8,6.4,5.8s6.4-2.6,6.4-5.8S-912.5,737.1-916.1,737.1z
		 M-916.1,745.7c-1.7,0-3-1.2-3-2.8s1.4-2.8,3-2.8s3,1.2,3,2.8S-914.4,745.7-916.1,745.7z"/>
	<path class="st1" d="M-916.1,727.3c8.3,0,15.1-6.1,15.1-13.6v-8.2c0-7.5-6.8-13.6-15.1-13.6s-15.1,6.1-15.1,13.6v8.2
		C-931.1,721.1-924.4,727.3-916.1,727.3z M-916.1,694.8c6.4,0,11.7,4.7,11.7,10.6v1.4c-2.3-0.3-4.4-1.2-6.1-2.7l-2.4-2.2
		c-0.4-0.3-0.9-0.5-1.4-0.4c-0.5,0.1-1,0.3-1.2,0.7c-1.9,2.9-5.4,4.6-9,4.6h-3.2v-1.4C-927.8,699.6-922.5,694.8-916.1,694.8z
		 M-927.8,709.9h3.2c4.2,0,8.1-1.7,10.7-4.6l1,0.9c2.3,2.1,5.3,3.3,8.5,3.6v3.8c0,5.8-5.2,10.6-11.7,10.6c-6.4,0-11.7-4.7-11.7-10.6
		L-927.8,709.9L-927.8,709.9L-927.8,709.9z"/>
	<path class="st1" d="M-878.6,755.5h-3.4V744c0-5.3-3.9-9.9-9.4-11.4c-1.7-3.1-5.2-5.2-9.2-5.2h-30.9c-4,0-7.5,2.1-9.2,5.2
		c-5.6,1.5-9.4,6.1-9.4,11.4v11.5h-3.4c-0.9,0-1.7,0.7-1.7,1.5s0.8,1.5,1.7,1.5h75c0.9,0,1.7-0.7,1.7-1.5S-877.7,755.5-878.6,755.5z
		 M-885.4,744v11.5h-5.1v-18.9c0-0.1,0-0.2,0-0.4C-887.4,737.8-885.4,740.7-885.4,744z M-946.8,744c0-3.3,2-6.2,5.1-7.7
		c0,0.1,0,0.2,0,0.4v18.9h-5.1V744z M-931.6,755.5v-7.1c0-0.8-0.8-1.5-1.7-1.5c-0.9,0-1.7,0.7-1.7,1.5v7.1h-3.4v-18.9
		c0-3.4,3.1-6.2,6.8-6.2h30.9c3.8,0,6.8,2.8,6.8,6.2v18.9H-931.6z"/>
	<path class="st1" d="M-954.4,691.6c0.3,0.3,0.8,0.4,1.2,0.4s0.9-0.1,1.2-0.4c0.7-0.6,0.7-1.6,0-2.2l-3.2-2.9l3.2-2.9
		c0.7-0.6,0.7-1.6,0-2.2c-0.7-0.6-1.7-0.6-2.4,0l-4.4,4c-0.3,0.3-0.5,0.7-0.5,1.1s0.2,0.8,0.5,1.1L-954.4,691.6z"/>
	<path class="st1" d="M-938.7,691.6c0.3,0.3,0.8,0.4,1.2,0.4s0.9-0.1,1.2-0.4l4.4-4c0.7-0.6,0.7-1.6,0-2.2l-4.4-4
		c-0.7-0.6-1.7-0.6-2.4,0c-0.7,0.6-0.7,1.6,0,2.2l3.2,2.9l-3.2,2.9C-939.3,690-939.3,691-938.7,691.6z"/>
	<path class="st1" d="M-949.3,692.6c0.3,0.1,0.6,0.2,0.9,0.2c0.6,0,1.1-0.3,1.5-0.8l6.2-9.5c0.5-0.7,0.2-1.7-0.6-2.1
		c-0.8-0.4-1.8-0.2-2.3,0.5l-6.2,9.5C-950.4,691.3-950.1,692.2-949.3,692.6z"/>
	<path class="st1" d="M-899.5,696.7l2.7,4.3c0.4,0.6,1.2,0.9,2,0.7l2.2-0.7c0.4,0.3,0.9,0.5,1.4,0.7l0.5,2.1
		c0.2,0.7,0.9,1.2,1.7,1.2h5.4c0.8,0,1.5-0.5,1.7-1.2l0.5-2.1c0.5-0.2,0.9-0.5,1.4-0.7l2.2,0.7c0.8,0.2,1.6-0.1,2-0.7l2.7-4.3
		c0.4-0.6,0.3-1.4-0.3-1.9l-1.7-1.4c0-0.2,0-0.5,0-0.7c0-0.2,0-0.5,0-0.7l1.7-1.4c0.6-0.5,0.7-1.3,0.3-1.9l-2.7-4.3
		c-0.4-0.6-1.2-0.9-2-0.7l-2.2,0.7c-0.4-0.3-0.9-0.5-1.4-0.7l-0.5-2.1c-0.2-0.7-0.9-1.2-1.7-1.2h-5.4c-0.8,0-1.5,0.5-1.7,1.2
		l-0.5,2.1c-0.5,0.2-0.9,0.5-1.4,0.7l-2.2-0.7c-0.8-0.2-1.6,0.1-2,0.7l-2.7,4.3c-0.4,0.6-0.3,1.4,0.3,1.9l1.7,1.4c0,0.2,0,0.5,0,0.7
		c0,0.2,0,0.5,0,0.7l-1.7,1.4C-899.7,695.3-899.9,696.1-899.5,696.7z M-894,693.7c-0.1-0.4-0.1-0.7-0.1-1.1c0-0.4,0-0.7,0.1-1.1
		c0.1-0.5-0.1-1-0.5-1.4l-1.4-1.1l1.4-2.1l1.8,0.5c0.5,0.2,1.1,0.1,1.6-0.3c0.6-0.5,1.3-0.8,2.1-1.1c0.5-0.2,0.9-0.6,1-1.1l0.4-1.6
		h2.7l0.4,1.6c0.1,0.5,0.5,0.9,1,1.1c0.8,0.3,1.5,0.6,2.1,1.1c0.4,0.3,1,0.4,1.6,0.3l1.8-0.5l1.4,2.1l-1.4,1.1
		c-0.4,0.3-0.6,0.9-0.5,1.4c0.1,0.4,0.1,0.7,0.1,1.1c0,0.4,0,0.7-0.1,1.1c-0.1,0.5,0.1,1,0.5,1.4l1.4,1.1l-1.4,2.1l-1.8-0.5
		c-0.5-0.2-1.1-0.1-1.6,0.3c-0.6,0.5-1.3,0.8-2.1,1.1c-0.5,0.2-0.9,0.6-1,1.1l-0.4,1.6h-2.7l-0.4-1.6c-0.1-0.5-0.5-0.9-1-1.1
		c-0.8-0.3-1.5-0.6-2.1-1.1c-0.4-0.3-1-0.4-1.6-0.3l-1.8,0.5l-1.4-2.1l1.4-1.1C-894.1,694.8-893.9,694.2-894,693.7z"/>
	<path class="st1" d="M-957.6,701.3h13.2c0.9,0,1.7-0.7,1.7-1.5s-0.8-1.5-1.7-1.5h-13.2c-0.9,0-1.7,0.7-1.7,1.5
		S-958.5,701.3-957.6,701.3z"/>
	<path class="st1" d="M-938.6,701.3h4.1c0.9,0,1.7-0.7,1.7-1.5s-0.8-1.5-1.7-1.5h-4.1c-0.9,0-1.7,0.7-1.7,1.5
		S-939.6,701.3-938.6,701.3z"/>
	<path class="st1" d="M-947.5,714.5c0-0.8-0.8-1.5-1.7-1.5h-8.4c-0.9,0-1.7,0.7-1.7,1.5s0.8,1.5,1.7,1.5h8.4
		C-948.2,716-947.5,715.3-947.5,714.5z"/>
	<path class="st1" d="M-935.9,713h-7.4c-0.9,0-1.7,0.7-1.7,1.5s0.8,1.5,1.7,1.5h7.4c0.9,0,1.7-0.7,1.7-1.5S-934.9,713-935.9,713z"/>
	<path class="st1" d="M-957.6,708.7h2.2c0.9,0,1.7-0.7,1.7-1.5s-0.8-1.5-1.7-1.5h-2.2c-0.9,0-1.7,0.7-1.7,1.5
		S-958.5,708.7-957.6,708.7z"/>
	<path class="st1" d="M-935.9,705.6h-13.8c-0.9,0-1.7,0.7-1.7,1.5s0.8,1.5,1.7,1.5h13.8c0.9,0,1.7-0.7,1.7-1.5
		S-934.9,705.6-935.9,705.6z"/>
	<path class="st1" d="M-874.6,727.4c-0.4,0-0.9,0.2-1.2,0.4c-0.3,0.3-0.5,0.7-0.5,1.1c0,0.4,0.2,0.8,0.5,1.1
		c0.3,0.3,0.7,0.4,1.2,0.4c0.4,0,0.9-0.2,1.2-0.4c0.3-0.3,0.5-0.7,0.5-1.1c0-0.4-0.2-0.8-0.5-1.1
		C-873.7,727.5-874.1,727.4-874.6,727.4z"/>
	<path class="st1" d="M-888.9,730.4h8.3c0.9,0,1.7-0.7,1.7-1.5s-0.8-1.5-1.7-1.5h-8.3c-0.9,0-1.7,0.7-1.7,1.5
		S-889.8,730.4-888.9,730.4z"/>
	<path class="st1" d="M-889.5,721.5c0-0.8-0.8-1.5-1.7-1.5h-4.3c-0.9,0-1.7,0.7-1.7,1.5s0.8,1.5,1.7,1.5h4.3
		C-890.3,723.1-889.5,722.4-889.5,721.5z"/>
	<path class="st1" d="M-872.9,721.5c0-0.8-0.8-1.5-1.7-1.5h-10c-0.9,0-1.7,0.7-1.7,1.5s0.8,1.5,1.7,1.5h10
		C-873.6,723.1-872.9,722.4-872.9,721.5z"/>
	<path class="st1" d="M-886.3,694.2c0.4,0,0.9-0.2,1.2-0.4c0.3-0.3,0.5-0.7,0.5-1.1c0-0.4-0.2-0.8-0.5-1.1c-0.3-0.3-0.7-0.4-1.2-0.4
		c-0.4,0-0.9,0.2-1.2,0.4c-0.3,0.3-0.5,0.7-0.5,1.1c0,0.4,0.2,0.8,0.5,1.1C-887.2,694-886.7,694.2-886.3,694.2z"/>
	<path class="st1" d="M-920.7,716c0.4,0,0.9-0.2,1.2-0.4c0.3-0.3,0.5-0.7,0.5-1.1c0-0.4-0.2-0.8-0.5-1.1c-0.3-0.3-0.7-0.4-1.2-0.4
		c-0.4,0-0.9,0.2-1.2,0.4s-0.5,0.7-0.5,1.1c0,0.4,0.2,0.8,0.5,1.1C-921.6,715.9-921.1,716-920.7,716z"/>
	<path class="st1" d="M-911.5,716c0.4,0,0.9-0.2,1.2-0.4c0.3-0.3,0.5-0.7,0.5-1.1c0-0.4-0.2-0.8-0.5-1.1c-0.3-0.3-0.7-0.4-1.2-0.4
		c-0.4,0-0.9,0.2-1.2,0.4s-0.5,0.7-0.5,1.1c0,0.4,0.2,0.8,0.5,1.1C-912.4,715.9-911.9,716-911.5,716z"/>
	<path class="st1" d="M-933.3,741.4c-0.4,0-0.9,0.2-1.2,0.4s-0.5,0.7-0.5,1.1c0,0.4,0.2,0.8,0.5,1.1c0.3,0.3,0.7,0.4,1.2,0.4
		c0.4,0,0.9-0.2,1.2-0.4c0.3-0.3,0.5-0.7,0.5-1.1c0-0.4-0.2-0.8-0.5-1.1C-932.4,741.6-932.9,741.4-933.3,741.4z"/>
</g>
<g>
	<polygon class="st53" points="-797.8,663.2 -792.7,666.2 -785,663 -783.5,657.2 -773.8,657.2 -772.4,663 -764.6,666.2 
		-759.6,663.2 -752.7,670 -755.7,675.1 -752.5,682.9 -746.8,684.3 -746.8,694 -752.5,695.5 -755.7,703.2 -752.7,708.3 -759.6,715.2 
		-764.6,712.1 -772.4,715.3 -773.8,721.1 -783.5,721.1 -785,715.3 -792.7,712.1 -797.8,715.2 -804.7,708.3 -801.6,703.2 
		-804.9,695.5 -810.6,694 -810.6,684.3 -804.9,682.9 -801.6,675.1 -804.7,670 	"/>
	<path class="st34" d="M-758.5,689c0-11.2-9.1-20.2-20.3-20.2c-10.8,0.1-19.7,8.8-20,19.6c-0.2,5.6,2,10.8,5.6,14.5
		c3.4,3.5,5.3,8.3,5.3,13.2v0.2h18.5v-0.2c0-5,2-9.7,5.4-13.4C-760.6,699.3-758.5,694.4-758.5,689z"/>
	<path class="st54" d="M-773.2,729.2h-10.8c-2.1,0-3.8-1.7-3.8-3.8v-8.9h18.5v8.9C-769.4,727.5-771.1,729.2-773.2,729.2z"/>
	<path d="M-746.4,682.7l-4.9-1.2l-2.6-6.2l2.6-4.3c0.4-0.7,0.3-1.5-0.2-2l-6.9-6.9c-0.5-0.5-1.4-0.6-2-0.2l-4.3,2.6l-6.2-2.6
		l-1.2-4.9c-0.2-0.7-0.8-1.3-1.6-1.3h-9.7c-0.8,0-1.4,0.5-1.6,1.3l-1.2,4.9l-6.2,2.6l-4.3-2.6c-0.7-0.4-1.5-0.3-2,0.2l-6.9,6.9
		c-0.5,0.5-0.6,1.4-0.2,2l2.6,4.3l-2.6,6.2l-4.9,1.2c-0.7,0.2-1.3,0.8-1.3,1.6v9.7c0,0.8,0.5,1.4,1.3,1.6l4.9,1.2l2.6,6.2l-2.6,4.3
		c-0.4,0.7-0.3,1.5,0.2,2l6.9,6.9c0.5,0.5,1.4,0.6,2,0.2l4.3-2.6l3,1.2c0,0.3,0,0.7,0,1v0.2v8.9c0,3,2.5,5.5,5.5,5.5h10.8
		c3,0,5.5-2.5,5.5-5.5v-8.9v-0.2c0-0.3,0-0.7,0-1l2.9-1.2l4.3,2.6c0.3,0.2,0.6,0.2,0.9,0.2c0.4,0,0.9-0.2,1.2-0.5l6.9-6.9
		c0.5-0.5,0.6-1.4,0.2-2l-2.6-4.3l2.6-6.2l4.9-1.2c0.7-0.2,1.3-0.8,1.3-1.6v-9.7C-745.1,683.5-745.6,682.9-746.4,682.7z M-771,714.8
		h-15.3c-0.3-4.9-2.3-9.4-5.7-12.9c-3.5-3.6-5.3-8.3-5.2-13.3c0.3-9.8,8.5-17.9,18.4-18c0,0,0.1,0,0.1,0c4.9,0,9.5,1.9,13,5.4
		c3.5,3.5,5.5,8.2,5.5,13.1c0,4.7-1.8,9.3-5,12.7C-768.6,705.4-770.7,710-771,714.8z M-771.1,725.4c0,1.2-1,2.2-2.2,2.2h-10.8
		c-1.2,0-2.2-1-2.2-2.2v-1.1h5.5c0.9,0,1.7-0.7,1.7-1.7c0-0.9-0.7-1.7-1.7-1.7h-5.5v-2.8h15.2L-771.1,725.4L-771.1,725.4z
		 M-748.4,692.7l-4.5,1.1c-0.5,0.1-0.9,0.5-1.1,1l-3.2,7.8c-0.2,0.5-0.2,1,0.1,1.5l2.4,3.9l-5,5l-3.9-2.4c-0.5-0.3-1-0.3-1.5-0.1
		l-1.8,0.7c0.8-2.7,2.2-5.2,4.2-7.3c3.8-4.1,6-9.4,6-15c0-5.9-2.3-11.4-6.4-15.5c-4.2-4.1-9.7-6.4-15.5-6.3c-5.7,0-11,2.3-15.1,6.2
		c-4.1,4-6.4,9.3-6.6,15c-0.2,5.9,2,11.5,6.1,15.7c2,2,3.4,4.5,4.1,7.2l-1.8-0.8c-0.5-0.2-1-0.2-1.5,0.1l-3.9,2.4l-5-5l2.4-3.9
		c0.3-0.5,0.3-1,0.1-1.5l-3.2-7.8c-0.2-0.5-0.6-0.8-1.1-1l-4.5-1.1v-7.1l4.5-1.1c0.5-0.1,0.9-0.5,1.1-1l3.2-7.8
		c0.2-0.5,0.2-1-0.1-1.5l-2.4-3.9l5-5l3.9,2.4c0.5,0.3,1,0.3,1.5,0.1l7.8-3.2c0.5-0.2,0.8-0.6,1-1.1l1.1-4.5h7.1l1.1,4.5
		c0.1,0.5,0.5,0.9,1,1.1l7.8,3.2c0.5,0.2,1,0.2,1.5-0.1l3.9-2.4l5,5l-2.4,3.9c-0.3,0.5-0.3,1-0.1,1.5l3.2,7.8c0.2,0.5,0.6,0.8,1.1,1
		l4.5,1.1L-748.4,692.7L-748.4,692.7L-748.4,692.7z"/>
	<path d="M-787.5,686.9c-0.4,0-0.9,0.2-1.2,0.5c-0.3,0.3-0.5,0.7-0.5,1.2c0,0.4,0.2,0.9,0.5,1.2c0.3,0.3,0.7,0.5,1.2,0.5
		c0.4,0,0.9-0.2,1.2-0.5c0.3-0.3,0.5-0.7,0.5-1.2c0-0.4-0.2-0.9-0.5-1.2C-786.6,687.1-787.1,686.9-787.5,686.9z"/>
	<path d="M-778.7,686.9c-0.4,0-0.9,0.2-1.2,0.5c-0.3,0.3-0.5,0.7-0.5,1.2c0,0.4,0.2,0.9,0.5,1.2c0.3,0.3,0.7,0.5,1.2,0.5
		c0.4,0,0.9-0.2,1.2-0.5c0.3-0.3,0.5-0.7,0.5-1.2c0-0.4-0.2-0.9-0.5-1.2C-777.8,687.1-778.2,686.9-778.7,686.9z"/>
	<path d="M-769.9,686.9c-0.4,0-0.9,0.2-1.2,0.5c-0.3,0.3-0.5,0.7-0.5,1.2c0,0.4,0.2,0.9,0.5,1.2c0.3,0.3,0.7,0.5,1.2,0.5
		c0.4,0,0.9-0.2,1.2-0.5c0.3-0.3,0.5-0.7,0.5-1.2c0-0.4-0.2-0.9-0.5-1.2C-769,687.1-769.4,686.9-769.9,686.9z"/>
	<path d="M-778.7,653.2c0.9,0,1.7-0.7,1.7-1.7v-4.1c0-0.9-0.7-1.7-1.7-1.7c-0.9,0-1.7,0.7-1.7,1.7v4.1
		C-780.3,652.4-779.6,653.2-778.7,653.2z"/>
	<path d="M-806.1,662.6c0.4,0,0.9-0.2,1.2-0.5c0.6-0.6,0.6-1.7,0-2.4l-5.3-5.3c-0.6-0.6-1.7-0.6-2.4,0c-0.6,0.6-0.6,1.7,0,2.4
		l5.3,5.3C-806.9,662.4-806.5,662.6-806.1,662.6z"/>
	<path d="M-744.8,654.4c-0.6-0.6-1.7-0.6-2.4,0l-5.3,5.3c-0.6,0.6-0.6,1.7,0,2.4c0.3,0.3,0.7,0.5,1.2,0.5c0.4,0,0.9-0.2,1.2-0.5
		l5.3-5.3C-744.1,656.1-744.1,655.1-744.8,654.4z"/>
	<path d="M-775.1,724.2c0.4,0,0.9-0.2,1.2-0.5c0.3-0.3,0.5-0.7,0.5-1.2c0-0.4-0.2-0.9-0.5-1.2c-0.3-0.3-0.7-0.5-1.2-0.5
		c-0.4,0-0.9,0.2-1.2,0.5c-0.3,0.3-0.5,0.7-0.5,1.2c0,0.4,0.2,0.9,0.5,1.2C-776,724-775.5,724.2-775.1,724.2z"/>
	<path d="M-778.8,676.7C-778.8,676.7-778.8,676.7-778.8,676.7L-778.8,676.7c1,0,1.7-0.8,1.7-1.7c0-0.9-0.7-1.6-1.7-1.6c0,0,0,0,0,0
		l-0.1,0c-0.9,0-1.7,0.8-1.6,1.7C-780.5,676-779.7,676.7-778.8,676.7z"/>
	<path d="M-764.6,682.3c-1.6-3.4-4.5-6.2-8-7.7c-0.8-0.4-1.8,0-2.2,0.9s0,1.8,0.9,2.2c2.8,1.2,5,3.3,6.3,6c0.3,0.6,0.9,0.9,1.5,0.9
		c0.2,0,0.5-0.1,0.7-0.2C-764.5,684.1-764.2,683.1-764.6,682.3z"/>
</g>
<g>
	<rect x="-925.5" y="714.4" class="st55" width="18.2" height="9"/>
	<path class="st34" d="M-960.3,668v-13.3c0-4.5,3.7-8.2,8.2-8.2h73.2c4.5,0,8.2,3.7,8.2,8.2v51.6c0,4.5-3.7,8.2-8.2,8.2h-46.7
		L-960.3,668z"/>
	<g>
		<path class="st56" d="M-870.7,700.5h-54.8v13.9h46.7c4.5,0,8.2-3.7,8.2-8.2V700.5z"/>
		<path class="st56" d="M-925.5,731.6h28.3l0,0c0-4.5-3.7-8.2-8.2-8.2h-20.1V731.6z"/>
	</g>
	<path class="st34" d="M-933,668h-45c-4.1,0-7.5,3.3-7.5,7.5v78.4c0,4.1,3.3,7.5,7.5,7.5h45c4.1,0,7.5-3.3,7.5-7.5v-78.4
		C-925.5,671.3-928.9,668-933,668z"/>
	<path class="st54" d="M-933.7,668h-43.6c-4.5,0-8.2,3.7-8.2,8.2v8.6h60v-8.6C-925.5,671.6-929.2,668-933.7,668z"/>
	<path class="st57" d="M-983.6,684.8h57.2"/>
	<path d="M-878.9,644.2h-73.2c-5.8,0-10.5,4.7-10.5,10.5v11H-978c-5.4,0-9.8,4.4-9.8,9.8v78.4c0,5.4,4.4,9.8,9.8,9.8h45
		c5.4,0,9.8-4.4,9.8-9.8V734h25.9c1.3,0,2.3-1,2.3-2.3c0-5.6-4.5-10.2-10-10.5v-4.3h26.1c5.8,0,10.5-4.7,10.5-10.5v-51.6
		C-868.3,648.9-873.1,644.2-878.9,644.2z M-978,670.3h45c2.8,0,5.1,2.3,5.1,5.1v7h-55.3v-7C-983.2,672.6-980.9,670.3-978,670.3z
		 M-940.9,665.6h-2.6v-3.9c0-0.7,0.6-1.3,1.3-1.3c0.7,0,1.3,0.6,1.3,1.3V665.6z M-926.7,666.8c0,0.3-0.1,0.6-0.4,0.9
		c-0.7-0.5-1.4-1-2.2-1.3v-4.8c0-0.7,0.6-1.3,1.3-1.3c0.7,0,1.3,0.6,1.3,1.3L-926.7,666.8L-926.7,666.8z M-927.9,753.9
		c0,2.8-2.3,5.1-5.1,5.1h-45c-2.8,0-5.1-2.3-5.1-5.1v-66.7h55.3V753.9z M-900.1,729.3h-23.1v-3.5h15.9h1.8
		C-903,725.8-901,727.2-900.1,729.3z M-909.6,721.1h-13.6v-4.3h13.6V721.1z M-873,706.2c0,3.2-2.6,5.8-5.8,5.8h-28.4h-15.9v-9.2
		h33.6c1.3,0,2.3-1,2.3-2.3c0-1.3-1-2.3-2.3-2.3h-33.6v-22.7c0-1.5-0.3-2.9-0.9-4.1c1.3-1.1,2.1-2.7,2.1-4.5v-5.2c0-3.3-2.7-6-6-6
		c-3.3,0-6,2.7-6,6v4.1h-2.4v-3.9c0-3.3-2.7-6-6-6s-6,2.7-6,6v3.9h-9.8v-11c0-3.2,2.6-5.8,5.8-5.8h73.2c3.2,0,5.9,2.6,5.9,5.8V706.2
		z"/>
	<path d="M-879.5,698.2c-0.6,0-1.2,0.2-1.6,0.7c-0.4,0.4-0.7,1-0.7,1.6c0,0.6,0.2,1.2,0.7,1.6c0.4,0.4,1,0.7,1.6,0.7
		c0.6,0,1.2-0.2,1.6-0.7c0.4-0.4,0.7-1,0.7-1.6c0-0.6-0.2-1.2-0.7-1.6C-878.3,698.4-878.9,698.2-879.5,698.2z"/>
	<path d="M-915.5,705.1c-0.6,0-1.2,0.2-1.6,0.7c-0.4,0.4-0.7,1-0.7,1.6c0,0.6,0.2,1.2,0.7,1.6c0.4,0.4,1,0.7,1.6,0.7
		c0.6,0,1.2-0.2,1.6-0.7c0.4-0.4,0.7-1,0.7-1.6c0-0.6-0.2-1.2-0.7-1.6C-914.3,705.4-914.9,705.1-915.5,705.1z"/>
	<path d="M-949,678.7h13.4c1.3,0,2.3-1,2.3-2.3c0-1.3-1-2.3-2.3-2.3H-949c-1.3,0-2.3,1-2.3,2.3C-951.3,677.7-950.3,678.7-949,678.7z
		"/>
	<path d="M-969.3,678.7c0.6,0,1.2-0.2,1.6-0.7c0.4-0.4,0.7-1,0.7-1.6c0-0.6-0.2-1.2-0.7-1.6c-0.4-0.4-1-0.7-1.6-0.7
		c-0.6,0-1.2,0.2-1.7,0.7c-0.4,0.4-0.7,1-0.7,1.6c0,0.6,0.2,1.2,0.7,1.6C-970.5,678.5-969.9,678.7-969.3,678.7z"/>
	<path d="M-976.2,678.7c0.6,0,1.2-0.2,1.6-0.7c0.4-0.4,0.7-1,0.7-1.6c0-0.6-0.2-1.2-0.7-1.6c-0.4-0.4-1-0.7-1.6-0.7
		c-0.6,0-1.2,0.2-1.6,0.7c-0.4,0.4-0.7,1-0.7,1.6c0,0.6,0.2,1.2,0.7,1.6C-977.4,678.5-976.8,678.7-976.2,678.7z"/>
	<path d="M-962.4,678.7c0.6,0,1.2-0.2,1.6-0.7c0.4-0.4,0.7-1,0.7-1.6c0-0.6-0.2-1.2-0.7-1.6c-0.4-0.4-1-0.7-1.6-0.7
		c-0.6,0-1.2,0.2-1.6,0.7c-0.4,0.4-0.7,1-0.7,1.6c0,0.6,0.2,1.2,0.7,1.6C-963.6,678.5-963,678.7-962.4,678.7z"/>
	<path d="M-916.5,672.8c1.3,0,2.3-1,2.3-2.3V658c0-1.3-1-2.3-2.3-2.3c-1.3,0-2.3,1-2.3,2.3v12.5
		C-918.9,671.7-917.8,672.8-916.5,672.8z"/>
	<path d="M-880.9,672.8c1.3,0,2.3-1,2.3-2.3V658c0-1.3-1-2.3-2.3-2.3c-1.3,0-2.3,1-2.3,2.3v12.5
		C-883.3,671.7-882.2,672.8-880.9,672.8z"/>
	<path d="M-899.9,666.9v-5.2c0-3.3-2.7-6-6-6s-6,2.7-6,6v5.2c0,3.3,2.7,6,6,6S-899.9,670.2-899.9,666.9z M-904.6,666.9
		c0,0.7-0.6,1.3-1.3,1.3c-0.7,0-1.3-0.6-1.3-1.3v-5.2c0-0.7,0.6-1.3,1.3-1.3c0.7,0,1.3,0.6,1.3,1.3V666.9z"/>
	<path d="M-891.6,655.6c-3.3,0-6,2.7-6,6v5.2c0,3.3,2.7,6,6,6s6-2.7,6-6v-5.2C-885.7,658.3-888.3,655.6-891.6,655.6z M-890.3,666.8
		c0,0.7-0.6,1.3-1.3,1.3s-1.3-0.6-1.3-1.3v-5.2c0-0.7,0.6-1.3,1.3-1.3s1.3,0.6,1.3,1.3V666.8z"/>
	<path d="M-888,677.2c-1.3,0-2.3,1-2.3,2.3V692c0,1.3,1,2.3,2.3,2.3c1.3,0,2.3-1,2.3-2.3v-12.5C-885.7,678.2-886.7,677.2-888,677.2z
		"/>
	<path d="M-878.6,692v-12.5c0-1.3-1-2.3-2.3-2.3c-1.3,0-2.3,1-2.3,2.3V692c0,1.3,1,2.3,2.3,2.3C-879.7,694.3-878.6,693.2-878.6,692z
		"/>
	<path d="M-913,677.3c-3.3,0-6,2.7-6,6v5.2c0,3.3,2.7,6,6,6s6-2.7,6-6v-5.2C-907.1,680-909.7,677.3-913,677.3z M-911.7,688.4
		c0,0.7-0.6,1.3-1.3,1.3s-1.3-0.6-1.3-1.3v-5.2c0-0.7,0.6-1.3,1.3-1.3s1.3,0.6,1.3,1.3V688.4z"/>
	<path d="M-898.7,677.2c-3.3,0-6,2.7-6,6v5.2c0,3.3,2.7,6,6,6c3.3,0,6-2.7,6-6v-5.2C-892.8,679.8-895.5,677.2-898.7,677.2z
		 M-897.5,688.3c0,0.7-0.6,1.3-1.3,1.3c-0.7,0-1.3-0.6-1.3-1.3v-5.2c0-0.7,0.6-1.3,1.3-1.3c0.7,0,1.3,0.6,1.3,1.3V688.3z"/>
	<path d="M-972.4,702.9h15.2c1.3,0,2.3-1,2.3-2.3c0-1.3-1-2.3-2.3-2.3h-15.2c-1.3,0-2.3,1-2.3,2.3
		C-974.7,701.8-973.6,702.9-972.4,702.9z"/>
	<path d="M-949.1,702.9h11.6c1.3,0,2.3-1,2.3-2.3c0-1.3-1-2.3-2.3-2.3h-11.6c-1.3,0-2.3,1-2.3,2.3
		C-951.4,701.8-950.4,702.9-949.1,702.9z"/>
	<path d="M-937.5,720.6h-4.3c-1.3,0-2.3,1-2.3,2.3c0,1.3,1,2.3,2.3,2.3h4.3c1.3,0,2.3-1,2.3-2.3
		C-935.2,721.6-936.2,720.6-937.5,720.6z"/>
	<path d="M-972.4,725.3h21.2c1.3,0,2.3-1,2.3-2.3s-1-2.3-2.3-2.3h-21.2c-1.3,0-2.3,1-2.3,2.3S-973.6,725.3-972.4,725.3z"/>
	<path d="M-972.4,714.1h7.6c1.3,0,2.3-1,2.3-2.3c0-1.3-1-2.3-2.3-2.3h-7.6c-1.3,0-2.3,1-2.3,2.3C-974.7,713-973.6,714.1-972.4,714.1
		z"/>
	<path d="M-955.9,711.7c0,1.3,1,2.3,2.3,2.3h16.1c1.3,0,2.3-1,2.3-2.3c0-1.3-1-2.3-2.3-2.3h-16.1
		C-954.8,709.4-955.9,710.4-955.9,711.7z"/>
	<path d="M-937.5,743c-0.6,0-1.2,0.2-1.6,0.7c-0.4,0.4-0.7,1-0.7,1.6c0,0.6,0.2,1.2,0.7,1.6c0.4,0.4,1,0.7,1.6,0.7
		c0.6,0,1.2-0.2,1.6-0.7c0.4-0.4,0.7-1,0.7-1.6c0-0.6-0.2-1.2-0.7-1.6C-936.3,743.2-936.9,743-937.5,743z"/>
	<path d="M-946.3,743h-26.1c-1.3,0-2.3,1-2.3,2.3c0,1.3,1,2.3,2.3,2.3h26.1c1.3,0,2.3-1,2.3-2.3C-944,744-945,743-946.3,743z"/>
	<path d="M-972.4,736.5h7.6c1.3,0,2.3-1,2.3-2.3c0-1.3-1-2.3-2.3-2.3h-7.6c-1.3,0-2.3,1-2.3,2.3
		C-974.7,735.4-973.6,736.5-972.4,736.5z"/>
	<path d="M-937.5,731.8h-16.1c-1.3,0-2.3,1-2.3,2.3c0,1.3,1,2.3,2.3,2.3h16.1c1.3,0,2.3-1,2.3-2.3
		C-935.2,732.8-936.2,731.8-937.5,731.8z"/>
</g>
<g>
	<path class="st34" d="M-814.1,1038.2h-5.5c-3.8,0-6.9-3.1-6.9-6.9v-70.9c0-3.8,3.1-6.9,6.9-6.9h70.9c3.8,0,6.9,3.1,6.9,6.9v70.9
		c0,3.8-3.1,6.9-6.9,6.9h-7.1H-814.1z"/>
	<path class="st56" d="M-748.7,953.5h-70.9c-3.8,0-6.9,3.1-6.9,6.9v5.5h84.7v-5.5C-741.8,956.6-744.9,953.5-748.7,953.5z"/>
	<path class="st58" d="M-753.1,995.9h-18.7c-1.1,0-2-0.9-2-2v-18.7c0-1.1,0.9-2,2-2h18.7c1.1,0,2,0.9,2,2v18.7
		C-751.1,995-752,995.9-753.1,995.9z"/>
	<path class="st59" d="M-787,973.1h-27.4c-1.6,0-2.8,1.3-2.8,2.8v27.4c0,1.6,1.3,2.8,2.8,2.8h27.4c1.6,0,2.8-1.3,2.8-2.8V976
		C-784.2,974.4-785.4,973.1-787,973.1z"/>
	<g>
		<path class="st53" d="M-810.5,994.2l-6.7,9.6c0.2,1.4,1.4,2.4,2.8,2.4h17.9l-7.9-12C-805.8,992.1-809,992-810.5,994.2z"/>
		<path class="st53" d="M-784.2,994.4l-5.1-6.6c-1.6-2.1-4.8-1.9-6.1,0.4l-10.3,18h18.6c1.6,0,2.8-1.3,2.8-2.8L-784.2,994.4
			L-784.2,994.4z"/>
	</g>
	<path class="st58" d="M-753.1,1028.9h-18.7c-1.1,0-2-0.9-2-2v-18.7c0-1.1,0.9-2,2-2h18.7c1.1,0,2,0.9,2,2v18.7
		C-751.1,1028-752,1028.9-753.1,1028.9z"/>
	<path class="st57" d="M-824.6,965.9h81.8"/>
	<path class="st34" d="M-765.7,986.9v-4.9c0-1.1,1.2-1.8,2.1-1.2l4.2,2.4c0.9,0.5,0.9,1.9,0,2.4l-4.2,2.4
		C-764.5,988.7-765.7,988-765.7,986.9z M-763.6,1021.2l4.2-2.4c0.9-0.5,0.9-1.9,0-2.4l-4.2-2.4c-0.9-0.5-2.1,0.1-2.1,1.2v4.9
		C-765.7,1021.1-764.5,1021.7-763.6,1021.2z"/>
	<path d="M-748.7,951.8h-70.9c-4.7,0-8.6,3.9-8.6,8.6v70.9c0,4.7,3.9,8.6,8.6,8.6h70.9c4.7,0,8.6-3.9,8.6-8.6v-70.9
		C-740.1,955.7-744,951.8-748.7,951.8z M-819.6,955.2h70.9c2.8,0,5.2,2.3,5.2,5.2v3.8h-81.1c-0.1,0-0.1,0-0.2,0v-3.8
		C-824.8,957.6-822.5,955.2-819.6,955.2z M-748.7,1036.5h-70.9c-2.8,0-5.2-2.3-5.2-5.2v-63.7c0.1,0,0.1,0,0.2,0h81.1v63.7
		C-743.6,1034.2-745.9,1036.5-748.7,1036.5z"/>
	<path d="M-790,961.4h38.9c1,0,1.7-0.8,1.7-1.7s-0.8-1.7-1.7-1.7H-790c-1,0-1.7,0.8-1.7,1.7S-791,961.4-790,961.4z"/>
	<path d="M-810.3,961.4c0.5,0,0.9-0.2,1.2-0.5c0.3-0.3,0.5-0.8,0.5-1.2s-0.2-0.9-0.5-1.2c-0.3-0.3-0.8-0.5-1.2-0.5
		c-0.5,0-0.9,0.2-1.2,0.5c-0.3,0.3-0.5,0.8-0.5,1.2s0.2,0.9,0.5,1.2C-811.2,961.3-810.8,961.4-810.3,961.4z"/>
	<path d="M-817.2,961.4c0.5,0,0.9-0.2,1.2-0.5c0.3-0.3,0.5-0.8,0.5-1.2s-0.2-0.9-0.5-1.2c-0.3-0.3-0.8-0.5-1.2-0.5s-0.9,0.2-1.2,0.5
		c-0.3,0.3-0.5,0.8-0.5,1.2s0.2,0.9,0.5,1.2C-818.1,961.3-817.7,961.4-817.2,961.4z"/>
	<path d="M-803.5,961.4c0.5,0,0.9-0.2,1.2-0.5c0.3-0.3,0.5-0.8,0.5-1.2s-0.2-0.9-0.5-1.2c-0.3-0.3-0.8-0.5-1.2-0.5
		c-0.5,0-0.9,0.2-1.2,0.5c-0.3,0.3-0.5,0.8-0.5,1.2s0.2,0.9,0.5,1.2C-804.4,961.3-803.9,961.4-803.5,961.4z"/>
	<path d="M-787,971.4h-7c-1,0-1.7,0.8-1.7,1.7s0.8,1.7,1.7,1.7h7c0.6,0,1.1,0.5,1.1,1.1v13.4l-2.9-3.8c-0.9-1.2-2.3-1.8-3.8-1.7
		c-1.5,0.1-2.8,0.9-3.5,2.2l-5.4,9.4l-2.8-4.3c-0.7-1-1.8-1.6-3-1.7c-1.2,0-2.4,0.6-3.1,1.6l-5,7.2V976c0-0.6,0.5-1.1,1.1-1.1h5.5
		c1,0,1.7-0.8,1.7-1.7s-0.8-1.7-1.7-1.7h-5.5c-2.5,0-4.5,2-4.5,4.5v27.4c0,2.5,2,4.5,4.5,4.5h27.4c2.5,0,4.5-2,4.5-4.5V976
		C-782.5,973.5-784.5,971.4-787,971.4z M-815.3,1004l7.7-11c0,0,0.1-0.1,0.2-0.1c0,0,0,0,0,0c0.1,0,0.2,0.1,0.2,0.1l7.5,11.4h-14.7
		C-814.8,1004.5-815.1,1004.3-815.3,1004z M-787,1004.5h-8.6l-3.8-5.8l6.3-10.9c0.2-0.4,0.6-0.5,0.8-0.5c0.2,0,0.5,0,0.8,0.4
		l5.3,6.9c0.1,0.1,0.2,0.3,0.4,0.4v8.5C-785.9,1004-786.4,1004.5-787,1004.5z"/>
	<path d="M-800.7,974.9c0.5,0,0.9-0.2,1.2-0.5c0.3-0.3,0.5-0.8,0.5-1.2s-0.2-0.9-0.5-1.2c-0.3-0.3-0.8-0.5-1.2-0.5s-0.9,0.2-1.2,0.5
		c-0.3,0.3-0.5,0.8-0.5,1.2s0.2,0.9,0.5,1.2C-801.6,974.7-801.2,974.9-800.7,974.9z"/>
	<path d="M-784.2,1019.6h-33c-1,0-1.7,0.8-1.7,1.7s0.8,1.7,1.7,1.7h33c1,0,1.7-0.8,1.7-1.7S-783.2,1019.6-784.2,1019.6z"/>
	<path d="M-784.2,1012.7h-33c-1,0-1.7,0.8-1.7,1.7s0.8,1.7,1.7,1.7h33c1,0,1.7-0.8,1.7-1.7S-783.2,1012.7-784.2,1012.7z"/>
	<path d="M-794,1026.5c-0.5,0-0.9,0.2-1.2,0.5c-0.3,0.3-0.5,0.8-0.5,1.2s0.2,0.9,0.5,1.2c0.3,0.3,0.8,0.5,1.2,0.5
		c0.5,0,0.9-0.2,1.2-0.5c0.3-0.3,0.5-0.8,0.5-1.2s-0.2-0.9-0.5-1.2C-793.1,1026.7-793.5,1026.5-794,1026.5z"/>
	<path d="M-800.7,1026.5h-16.5c-1,0-1.7,0.8-1.7,1.7c0,1,0.8,1.7,1.7,1.7h16.5c1,0,1.7-0.8,1.7-1.7
		C-799,1027.3-799.8,1026.5-800.7,1026.5z"/>
	<path d="M-753.1,971.4h-18.7c-2.1,0-3.7,1.7-3.7,3.7v18.7c0,2.1,1.7,3.7,3.7,3.7h18.7c2.1,0,3.7-1.7,3.7-3.7v-18.7
		C-749.4,973.1-751.1,971.4-753.1,971.4z M-752.9,993.9c0,0.2-0.1,0.3-0.3,0.3h-18.7c-0.2,0-0.3-0.1-0.3-0.3v-18.7
		c0-0.2,0.1-0.3,0.3-0.3h18.7c0.2,0,0.3,0.1,0.3,0.3V993.9z"/>
	<path d="M-753.1,1004.5h-18.7c-2.1,0-3.7,1.7-3.7,3.7v18.7c0,2.1,1.7,3.7,3.7,3.7h18.7c2.1,0,3.7-1.7,3.7-3.7v-18.7
		C-749.4,1006.1-751.1,1004.5-753.1,1004.5z M-752.9,1026.9c0,0.2-0.1,0.3-0.3,0.3h-18.7c-0.2,0-0.3-0.1-0.3-0.3v-18.7
		c0-0.2,0.1-0.3,0.3-0.3h18.7c0.2,0,0.3,0.1,0.3,0.3V1026.9z"/>
	<path d="M-758.5,1014.8l-4.2-2.4c-1-0.6-2.2-0.6-3.1,0s-1.6,1.6-1.6,2.7v4.9c0,1.1,0.6,2.1,1.6,2.7c0.5,0.3,1,0.4,1.6,0.4
		c0.5,0,1.1-0.1,1.6-0.4h0l4.2-2.4c1-0.6,1.6-1.6,1.6-2.7C-756.9,1016.4-757.5,1015.4-758.5,1014.8z M-763.9,1019.4v-3.8l3.3,1.9
		L-763.9,1019.4z"/>
	<path d="M-758.5,981.8l-4.2-2.4c-1-0.6-2.2-0.6-3.1,0c-1,0.6-1.6,1.6-1.6,2.7v4.9c0,1.1,0.6,2.1,1.6,2.7c0.5,0.3,1,0.4,1.6,0.4
		c0.5,0,1.1-0.1,1.6-0.4l4.2-2.4c1-0.6,1.6-1.6,1.6-2.7C-756.9,983.4-757.5,982.4-758.5,981.8z M-763.9,986.4v-3.8l3.3,1.9
		L-763.9,986.4z"/>
</g>
<g>
	<rect x="-948.1" y="994.6" class="st53" width="65.9" height="42"/>
	<rect x="-948.1" y="936.2" class="st59" width="65.9" height="28.6"/>
	<polygon class="st53" points="-902.9,964.8 -919.5,948.2 -936.1,964.8 	"/>
	<polygon class="st60" points="-883.9,964 -904.7,943.3 -914.6,953.2 -903.6,964.2 	"/>
	<path class="st61" d="M-982.6,1021.9v-41.3c0-3.3,2.7-6,6-6h28.8c3.3,0,6,2.7,6,6v50c0,3.3-2.7,6-6,6h-28.8c-3.3,0-6-2.7-6-6
		V1021.9"/>
	<rect x="-982.6" y="986.5" class="st34" width="40.8" height="39.1"/>
	<rect x="-899.7" y="973.4" class="st58" width="11" height="11"/>
	<rect x="-921" y="973.4" class="st56" width="11" height="11"/>
	<rect x="-942" y="973.4" class="st62" width="11" height="11"/>
	<circle class="st58" cx="-962.2" cy="1001.9" r="7.3"/>
	<circle class="st34" cx="-915.5" cy="1011.2" r="7.3"/>
	<circle class="st62" cx="-936.1" cy="948.5" r="4.1"/>
	<path d="M-882.2,934.2h-66.1c-1.1,0-2,0.9-2,2v36.3h-26.2c-4.4,0-8.1,3.6-8.1,8.1v5.8v39.1v5c0,4.4,3.6,8.1,8.1,8.1h94.4
		c1.1,0,2-0.9,2-2V936.2C-880.2,935.1-881.1,934.2-882.2,934.2z M-902.1,962.8l-9.6-9.6l7-7l16.6,16.6H-902.1z M-907.9,962.8h-23.4
		l11.7-11.7L-907.9,962.8z M-884.2,938.3v22.5l-19-19c-0.4-0.4-0.9-0.6-1.4-0.6s-1.1,0.2-1.4,0.6l-8.5,8.5l-3.5-3.5
		c-0.8-0.8-2.1-0.8-2.9,0l-16,16h-9.3v-24.5H-884.2z M-976.6,976.6h28.8c2.2,0,4,1.8,4,4v3.8h-36.7v-3.8
		C-980.5,978.4-978.7,976.6-976.6,976.6z M-980.5,988.5h36.7v35.1h-36.7V988.5z M-948.3,1034.6h-28.3c-2.2,0-4-1.8-4-4v-3h36.7v3
		c0,2.2-1.8,4-4,4H-948.3z M-940.8,1034.6c0.7-1.2,1.1-2.5,1.1-4v-50c0-3.9-2.8-7.2-6.5-7.9v-5.8h62v67.7H-940.8z"/>
	<path d="M-892,992.5c-0.5,0-1.1,0.2-1.4,0.6c-0.4,0.4-0.6,0.9-0.6,1.4c0,0.5,0.2,1.1,0.6,1.4c0.4,0.4,0.9,0.6,1.4,0.6
		s1.1-0.2,1.4-0.6s0.6-0.9,0.6-1.4c0-0.5-0.2-1.1-0.6-1.4C-890.9,992.8-891.5,992.5-892,992.5z"/>
	<path d="M-897.7,994.6c0-1.1-0.9-2-2-2h-34.4c-1.1,0-2,0.9-2,2s0.9,2,2,2h34.4C-898.6,996.6-897.7,995.7-897.7,994.6z"/>
	<path d="M-888.7,971.3h-11c-1.1,0-2,0.9-2,2v11c0,1.1,0.9,2,2,2h11c1.1,0,2-0.9,2-2v-11C-886.7,972.3-887.6,971.3-888.7,971.3z
		 M-890.8,982.4h-6.9v-6.9h6.9V982.4z"/>
	<path d="M-920.8,986.4h11c1.1,0,2-0.9,2-2v-11c0-1.1-0.9-2-2-2h-11c-1.1,0-2,0.9-2,2v11C-922.8,985.5-921.9,986.4-920.8,986.4z
		 M-918.7,975.4h6.9v6.9h-6.9V975.4z"/>
	<path d="M-932.8,982.4h-1.6c-1.1,0-2,0.9-2,2s0.9,2,2,2h3.6c1.1,0,2-0.9,2-2v-11c0-1.1-0.9-2-2-2h-6.9c-1.1,0-2,0.9-2,2
		c0,1.1,0.9,2,2,2h4.8V982.4z"/>
	<path d="M-930.6,1006.4c-0.8-0.8-2.1-0.8-2.9,0l-3.3,3.3c-0.8,0.8-0.8,2.1,0,2.9l3.3,3.3c0.4,0.4,0.9,0.6,1.4,0.6
		c0.5,0,1-0.2,1.4-0.6c0.8-0.8,0.8-2.1,0-2.9l-1.9-1.9l1.9-1.9C-929.8,1008.5-929.8,1007.2-930.6,1006.4z"/>
	<path d="M-895.1,1006.4c-0.8-0.8-2.1-0.8-2.9,0c-0.8,0.8-0.8,2.1,0,2.9l1.9,1.9l-1.9,1.9c-0.8,0.8-0.8,2.1,0,2.9
		c0.4,0.4,0.9,0.6,1.4,0.6c0.5,0,1-0.2,1.4-0.6l3.3-3.3c0.4-0.4,0.6-0.9,0.6-1.4s-0.2-1.1-0.6-1.4L-895.1,1006.4z"/>
	<path d="M-967.2,982.6h10.1c1.1,0,2-0.9,2-2s-0.9-2-2-2h-10.1c-1.1,0-2,0.9-2,2S-968.4,982.6-967.2,982.6z"/>
	<path d="M-962.2,1029.1L-962.2,1029.1c-1.2,0-2.1,0.9-2.1,2c0,1.1,0.9,2,2,2h0c1.1,0,2-0.9,2-2
		C-960.1,1030-961,1029.1-962.2,1029.1z"/>
	<path d="M-962.2,1011.3c5.2,0,9.4-4.2,9.4-9.4c0-5.2-4.2-9.4-9.4-9.4s-9.4,4.2-9.4,9.4C-971.6,1007.1-967.3,1011.3-962.2,1011.3z
		 M-962.2,996.6c2.9,0,5.3,2.4,5.3,5.3c0,2.9-2.4,5.3-5.3,5.3s-5.3-2.4-5.3-5.3C-967.5,999-965.1,996.6-962.2,996.6z"/>
	<path d="M-961.7,1014.8h-7.9c-1.1,0-2,0.9-2,2s0.9,2,2,2h7.9c1.1,0,2-0.9,2-2S-960.5,1014.8-961.7,1014.8z"/>
	<path d="M-954.9,1014.8c-0.5,0-1.1,0.2-1.4,0.6c-0.4,0.4-0.6,0.9-0.6,1.4c0,0.5,0.2,1.1,0.6,1.4c0.4,0.4,0.9,0.6,1.4,0.6
		s1.1-0.2,1.4-0.6c0.4-0.4,0.6-0.9,0.6-1.4c0-0.5-0.2-1.1-0.6-1.4S-954.3,1014.8-954.9,1014.8z"/>
	<path d="M-915.5,1001.8c-5.2,0-9.4,4.2-9.4,9.4c0,5.2,4.2,9.4,9.4,9.4c5.2,0,9.4-4.2,9.4-9.4
		C-906.1,1006-910.3,1001.8-915.5,1001.8z M-915.5,1016.5c-2.9,0-5.3-2.4-5.3-5.3c0-2.9,2.4-5.3,5.3-5.3s5.3,2.4,5.3,5.3
		C-910.2,1014.1-912.6,1016.5-915.5,1016.5z"/>
	<path d="M-908.2,1024.7h-14.7c-1.1,0-2,0.9-2,2c0,1.1,0.9,2,2,2h14.7c1.1,0,2-0.9,2-2C-906.1,1025.6-907,1024.7-908.2,1024.7z"/>
	<path d="M-936.1,954.6c3.4,0,6.1-2.7,6.1-6.1c0-3.4-2.7-6.1-6.1-6.1c-3.4,0-6.1,2.7-6.1,6.1C-942.2,951.9-939.4,954.6-936.1,954.6z
		 M-936.1,946.5c1.1,0,2,0.9,2,2s-0.9,2-2,2s-2-0.9-2-2S-937.2,946.5-936.1,946.5z"/>
</g>
<g>
	<path class="st34" d="M-759,748.5h-52.6c-2.5,0-4.5,2-4.5,4.5v60.8c0,2.5,2,4.5,4.5,4.5h60.8c2.5,0,4.5-2,4.5-4.5v-52.3L-759,748.5
		z"/>
	<path class="st63" d="M-759.3,748.5h-52.3c-2.5,0-4.5,2-4.5,4.5v5.7h56.8V748.5L-759.3,748.5z"/>
	<path class="st64" d="M-746.2,761.6h-8.5c-2.5,0-4.5-2-4.5-4.5v-8.5L-746.2,761.6z"/>
	<path class="st57" d="M-814.6,758.7h54.7"/>
	<rect x="-798.2" y="765.3" class="st53" width="34.1" height="11.4"/>
	<g>
		<rect x="-766.4" y="788.9" class="st54" width="10.2" height="9.1"/>
		<rect x="-786.3" y="788.9" class="st54" width="10.2" height="9.1"/>
		<rect x="-806.2" y="788.9" class="st54" width="10.2" height="9.1"/>
	</g>
	<g>
		<circle class="st58" cx="-761.3" cy="807.8" r="4.1"/>
		<circle class="st58" cx="-781.2" cy="807.8" r="4.1"/>
		<circle class="st58" cx="-801" cy="807.8" r="4.1"/>
	</g>
	<path d="M-745.2,760.6l-13.1-13.1c-0.3-0.3-0.8-0.5-1.3-0.4c-0.1,0-0.2,0-0.3,0h-51.7c-3.3,0-6,2.7-6,6v60.8c0,3.3,2.7,6,6,6h60.8
		c3.3,0,6-2.7,6-6v-52.1C-744.7,761.3-744.9,760.9-745.2,760.6z M-757.8,751.9l8.2,8.2h-5.1c-1.7,0-3.1-1.4-3.1-3.1V751.9z
		 M-811.6,749.9h50.9v7.1c0,0.1,0,0.2,0,0.3h-53.9c0,0-0.1,0-0.1,0V753C-814.7,751.3-813.3,749.9-811.6,749.9z M-750.7,817h-60.8
		c-1.7,0-3.1-1.4-3.1-3.1v-53.7c0,0,0.1,0,0.1,0h2.8v9.7c0,0.8,0.6,1.4,1.4,1.4c0.8,0,1.4-0.6,1.4-1.4v-9.7h49.1c0,0,0,0,0,0
		c1.1,1.7,2.9,2.8,5.1,2.8h7.1v50.9C-747.6,815.6-749,817-750.7,817z"/>
	<path d="M-786,755h21.2c0.8,0,1.4-0.6,1.4-1.4c0-0.8-0.6-1.4-1.4-1.4H-786c-0.8,0-1.4,0.6-1.4,1.4C-787.4,754.4-786.8,755-786,755z
		"/>
	<path d="M-802.2,755c0.4,0,0.7-0.2,1-0.4c0.3-0.3,0.4-0.6,0.4-1c0-0.4-0.2-0.7-0.4-1c-0.3-0.3-0.6-0.4-1-0.4c-0.4,0-0.7,0.2-1,0.4
		s-0.4,0.6-0.4,1c0,0.4,0.2,0.7,0.4,1S-802.6,755-802.2,755z"/>
	<path d="M-808.4,755c0.4,0,0.7-0.2,1-0.4c0.3-0.3,0.4-0.6,0.4-1c0-0.4-0.2-0.7-0.4-1c-0.3-0.3-0.6-0.4-1-0.4c-0.4,0-0.7,0.2-1,0.4
		s-0.4,0.6-0.4,1c0,0.4,0.2,0.7,0.4,1S-808.8,755-808.4,755z"/>
	<path d="M-796,755c0.4,0,0.7-0.2,1-0.4c0.3-0.3,0.4-0.6,0.4-1c0-0.4-0.2-0.7-0.4-1c-0.3-0.3-0.6-0.4-1-0.4s-0.7,0.2-1,0.4
		s-0.4,0.6-0.4,1c0,0.4,0.2,0.7,0.4,1S-796.4,755-796,755z"/>
	<path d="M-780.5,766.7c0.4,0,0.7-0.2,1-0.4c0.3-0.3,0.4-0.6,0.4-1s-0.2-0.7-0.4-1c-0.3-0.3-0.6-0.4-1-0.4s-0.7,0.2-1,0.4
		c-0.3,0.3-0.4,0.6-0.4,1s0.2,0.7,0.4,1C-781.3,766.5-780.9,766.7-780.5,766.7z"/>
	<path d="M-756.1,787.5h-3.7v-5.1c0-0.8-0.6-1.4-1.4-1.4h-18.5V778h15.6c0.8,0,1.4-0.6,1.4-1.4v-11.4c0-0.8-0.6-1.4-1.4-1.4h-10.4
		c-0.8,0-1.4,0.6-1.4,1.4s0.6,1.4,1.4,1.4h9v8.5h-15.6c0,0,0,0,0,0c0,0,0,0,0,0h-15.6v-8.5h9.1c0.8,0,1.4-0.6,1.4-1.4
		s-0.6-1.4-1.4-1.4h-10.5c-0.8,0-1.4,0.6-1.4,1.4v11.4c0,0.8,0.6,1.4,1.4,1.4h15.6v2.8H-801c-0.8,0-1.4,0.6-1.4,1.4v5.1h-3.7
		c-0.8,0-1.4,0.6-1.4,1.4v9.1c0,0.8,0.6,1.4,1.4,1.4h3.7v3c-2.4,0.6-4.1,2.8-4.1,5.4c0,3.1,2.5,5.5,5.5,5.5s5.5-2.5,5.5-5.5
		c0-2.6-1.8-4.7-4.1-5.4v-3h3.7c0.8,0,1.4-0.6,1.4-1.4v-9.1c0-0.8-0.6-1.4-1.4-1.4h-3.7v-3.7h17.1v3.7h-3.7c-0.8,0-1.4,0.6-1.4,1.4
		v9.1c0,0.8,0.6,1.4,1.4,1.4h3.7v3c-2.4,0.6-4.1,2.8-4.1,5.4c0,3.1,2.5,5.5,5.5,5.5c3.1,0,5.5-2.5,5.5-5.5c0-2.6-1.8-4.7-4.1-5.4v-3
		h3.7c0.8,0,1.4-0.6,1.4-1.4v-9.1c0-0.8-0.6-1.4-1.4-1.4h-3.7v-3.7h17.1v3.7h-3.7c-0.8,0-1.4,0.6-1.4,1.4v9.1c0,0.8,0.6,1.4,1.4,1.4
		h3.7v3c-2.4,0.6-4.1,2.8-4.1,5.4c0,3.1,2.5,5.5,5.5,5.5c3.1,0,5.5-2.5,5.5-5.5c0-2.6-1.8-4.7-4.1-5.4v-3h3.7c0.8,0,1.4-0.6,1.4-1.4
		v-9.1C-754.7,788.1-755.4,787.5-756.1,787.5z M-798.3,807.8c0,1.5-1.2,2.7-2.7,2.7c-1.5,0-2.7-1.2-2.7-2.7c0-1.5,1.2-2.7,2.7-2.7
		C-799.6,805.1-798.3,806.3-798.3,807.8z M-797.4,796.6h-7.4v-6.3h7.4V796.6z M-778.5,807.8c0,1.5-1.2,2.7-2.7,2.7
		c-1.5,0-2.7-1.2-2.7-2.7c0-1.5,1.2-2.7,2.7-2.7C-779.7,805.1-778.5,806.3-778.5,807.8z M-777.5,796.6h-7.4v-6.3h7.4V796.6z
		 M-758.6,807.8c0,1.5-1.2,2.7-2.7,2.7s-2.7-1.2-2.7-2.7c0-1.5,1.2-2.7,2.7-2.7S-758.6,806.3-758.6,807.8z M-757.6,796.6h-7.4v-6.3
		h7.4V796.6z"/>
	<path d="M-810.4,773.7c-0.4,0-0.7,0.2-1,0.4c-0.3,0.3-0.4,0.6-0.4,1c0,0.4,0.2,0.7,0.4,1s0.6,0.4,1,0.4c0.4,0,0.7-0.2,1-0.4
		c0.3-0.3,0.4-0.6,0.4-1c0-0.4-0.2-0.7-0.4-1C-809.6,773.8-810,773.7-810.4,773.7z"/>
</g>
<g>
	<path class="st34" d="M-963.9,878h-7.7c-5.3,0-9.7-4.3-9.7-9.7v-82.7c0-5.3,4.3-9.7,9.7-9.7h99.7c5.3,0,9.7,4.3,9.7,9.7v82.7
		c0,5.3-4.3,9.7-9.7,9.7h-9.9H-963.9z"/>
	<path class="st58" d="M-871.9,775.9h-99.7c-5.3,0-9.7,4.3-9.7,9.7v7.7h119.1v-7.7C-862.2,780.3-866.5,775.9-871.9,775.9z"/>
	<path class="st57" d="M-978.6,793.3h115"/>
	<rect x="-970.2" y="868.4" class="st53" width="15.5" height="26.6"/>
	<rect x="-915.9" y="862.1" class="st56" width="15.5" height="32.9"/>
	<rect x="-943.1" y="841.6" class="st62" width="15.5" height="53.4"/>
	<rect x="-888.8" y="838" class="st58" width="15.5" height="57"/>
	<circle class="st62" cx="-936.7" cy="815.1" r="6.3"/>
	<circle class="st56" cx="-908.4" cy="843.9" r="6.3"/>
	<circle class="st58" cx="-881.1" cy="815.1" r="6.3"/>
	<circle class="st53" cx="-962.6" cy="841.6" r="6.3"/>
	<path d="M-868.2,880.1c4.7,0,8.5-3.8,8.5-8.5v-86.1c0-6.7-5.4-12.1-12.1-12.1h-99.7c-6.7,0-12.1,5.4-12.1,12.1v86.1
		c0,4.7,3.8,8.5,8.5,8.5h2.7v12.5h-8.7c-1.3,0-2.4,1.1-2.4,2.4c0,1.3,1.1,2.4,2.4,2.4h119.1c1.3,0,2.4-1.1,2.4-2.4
		c0-1.3-1.1-2.4-2.4-2.4h-8.7v-12.5H-868.2z M-971.6,778.3h99.7c4,0,7.3,3.3,7.3,7.3v5.3h-114c-0.1,0-0.2,0-0.2,0v-5.3
		C-978.9,781.6-975.6,778.3-971.6,778.3z M-967.7,892.6v-21.8h10.7v21.8H-967.7z M-940.6,892.6V844h10.7v48.6H-940.6z M-913.5,892.6
		v-28.1h10.7v28.1H-913.5z M-886.4,892.6v-26.1c0-1.3-1.1-2.4-2.4-2.4c-1.3,0-2.4,1.1-2.4,2.4v26.1h-6.8v-30.5
		c0-1.3-1.1-2.4-2.4-2.4h-15.5c-1.3,0-2.4,1.1-2.4,2.4v30.5h-6.8v-51c0-1.3-1.1-2.4-2.4-2.4h-15.5c-1.3,0-2.4,1.1-2.4,2.4v51h-6.8
		v-24.2c0-1.3-1.1-2.4-2.4-2.4h-15.5c-1.3,0-2.4,1.1-2.4,2.4v6.9h-2.7c-2,0-3.6-1.6-3.6-3.6v-75.9c0.1,0,0.2,0,0.2,0h114v75.9
		c0,2-1.6,3.6-3.6,3.6h-2.7V838c0-1.3-1.1-2.4-2.4-2.4h-15.5c-1.3,0-2.4,1.1-2.4,2.4v12.2c0,1.3,1.1,2.4,2.4,2.4
		c1.3,0,2.4-1.1,2.4-2.4v-9.8h10.7v52.2H-886.4z"/>
	<path d="M-930,787.1h54.7c1.3,0,2.4-1.1,2.4-2.4s-1.1-2.4-2.4-2.4H-930c-1.3,0-2.4,1.1-2.4,2.4S-931.3,787.1-930,787.1z"/>
	<path d="M-958.5,787.1c0.6,0,1.3-0.3,1.7-0.7c0.5-0.5,0.7-1.1,0.7-1.7s-0.3-1.3-0.7-1.7c-0.5-0.5-1.1-0.7-1.7-0.7s-1.3,0.3-1.7,0.7
		c-0.5,0.5-0.7,1.1-0.7,1.7s0.3,1.3,0.7,1.7C-959.8,786.8-959.2,787.1-958.5,787.1z"/>
	<path d="M-968.2,787.1c0.6,0,1.3-0.3,1.7-0.7c0.5-0.5,0.7-1.1,0.7-1.7s-0.3-1.3-0.7-1.7c-0.5-0.5-1.1-0.7-1.7-0.7s-1.3,0.3-1.7,0.7
		c-0.5,0.5-0.7,1.1-0.7,1.7s0.3,1.3,0.7,1.7C-969.5,786.8-968.9,787.1-968.2,787.1z"/>
	<path d="M-948.9,787.1c0.6,0,1.3-0.3,1.7-0.7c0.5-0.5,0.7-1.1,0.7-1.7s-0.3-1.3-0.7-1.7c-0.5-0.5-1.1-0.7-1.7-0.7
		c-0.6,0-1.3,0.3-1.7,0.7c-0.5,0.5-0.7,1.1-0.7,1.7s0.3,1.3,0.7,1.7C-950.1,786.8-949.5,787.1-948.9,787.1z"/>
	<path d="M-888.8,856.4c-0.6,0-1.3,0.3-1.7,0.7c-0.5,0.5-0.7,1.1-0.7,1.7s0.3,1.3,0.7,1.7c0.5,0.5,1.1,0.7,1.7,0.7s1.3-0.3,1.7-0.7
		c0.5-0.5,0.7-1.1,0.7-1.7c0-0.6-0.3-1.3-0.7-1.7C-887.6,856.7-888.2,856.4-888.8,856.4z"/>
	<path d="M-881.1,823.8c4.8,0,8.7-3.9,8.7-8.7s-3.9-8.7-8.7-8.7s-8.7,3.9-8.7,8.7c0,1.9,0.6,3.7,1.7,5.1l-16.1,16.1
		c-1.2-0.7-2.7-1.1-4.2-1.1c-1.4,0-2.7,0.3-3.8,0.9l-16.8-16.8c0.7-1.2,1.1-2.7,1.1-4.2c0-4.8-3.9-8.7-8.7-8.7s-8.7,3.9-8.7,8.7
		c0,1.7,0.5,3.2,1.3,4.6l-14.3,14.3c-1.2-0.7-2.7-1.1-4.2-1.1c-4.8,0-8.7,3.9-8.7,8.7s3.9,8.7,8.7,8.7s8.7-3.9,8.7-8.7
		c0-1.5-0.4-3-1.1-4.2l14.5-14.5c1.2,0.6,2.4,0.9,3.8,0.9c1.5,0,3-0.4,4.2-1.1l16.6,16.6c-0.8,1.3-1.3,2.9-1.3,4.6
		c0,4.8,3.9,8.7,8.7,8.7s8.7-3.9,8.7-8.7c0-1.5-0.4-3-1.1-4.2l16.5-16.5C-883.3,823.6-882.2,823.8-881.1,823.8z M-881.1,811.2
		c2.1,0,3.9,1.7,3.9,3.9s-1.7,3.9-3.9,3.9s-3.9-1.7-3.9-3.9S-883.2,811.2-881.1,811.2z M-962.6,845.5c-2.1,0-3.9-1.7-3.9-3.9
		s1.7-3.9,3.9-3.9s3.9,1.7,3.9,3.9S-960.4,845.5-962.6,845.5z M-936.7,819c-2.1,0-3.9-1.7-3.9-3.9s1.7-3.9,3.9-3.9s3.9,1.7,3.9,3.9
		S-934.5,819-936.7,819z M-908.4,847.8c-2.1,0-3.9-1.7-3.9-3.9s1.7-3.9,3.9-3.9s3.9,1.7,3.9,3.9S-906.3,847.8-908.4,847.8z"/>
	<path d="M-949.5,808.8c0.6,0,1.3-0.3,1.7-0.7c0.5-0.5,0.7-1.1,0.7-1.7s-0.3-1.3-0.7-1.7c-0.5-0.5-1.1-0.7-1.7-0.7
		c-0.6,0-1.3,0.3-1.7,0.7c-0.5,0.5-0.7,1.1-0.7,1.7s0.3,1.3,0.7,1.7C-950.8,808.6-950.2,808.8-949.5,808.8z"/>
	<path d="M-970.2,808.8h11.6c1.3,0,2.4-1.1,2.4-2.4s-1.1-2.4-2.4-2.4h-11.6c-1.3,0-2.4,1.1-2.4,2.4S-971.5,808.8-970.2,808.8z"/>
	<path d="M-958.5,820.5c1.3,0,2.4-1.1,2.4-2.4c0-1.3-1.1-2.4-2.4-2.4h-11.6c-1.3,0-2.4,1.1-2.4,2.4c0,1.3,1.1,2.4,2.4,2.4H-958.5z"
		/>
</g>
<g>
	<path class="st54" d="M-750.9,879.5l-3.6,6.6l-3.6-6.6v-32.5c0-1.4,1.2-2.6,2.6-2.6h2c1.4,0,2.6,1.2,2.6,2.6V879.5z"/>
	<polygon class="st65" points="-750.9,879.5 -758.2,879.5 -754.6,886.2 	"/>
	<path class="st58" d="M-753.6,844.4h-2c-1.4,0-2.6,1.2-2.6,2.6v4.5h7.3v-4.5C-750.9,845.6-752.1,844.4-753.6,844.4z"/>
	<path class="st56" d="M-757.2,908.4L-757.2,908.4c3.4,0,6.2-2.8,6.2-6.2v-9.1h-12.5v9.1C-763.4,905.6-760.6,908.4-757.2,908.4z"/>
	<rect x="-805.7" y="853.8" class="st58" width="33.2" height="11.4"/>
	<g>
		<rect x="-805.7" y="870.4" class="st53" width="6.2" height="6.2"/>
		<rect x="-792.3" y="870.4" class="st53" width="6.2" height="6.2"/>
		<rect x="-778.8" y="870.4" class="st53" width="6.2" height="6.2"/>
	</g>
	<rect x="-805.7" y="893.5" class="st66" width="33.2" height="7.9"/>
	<path d="M-750.9,891.8h-6.4c-0.7,0-1.3,0.6-1.3,1.3c0,0.7,0.6,1.3,1.3,1.3h5.1v7.8c0,2.7-2.2,4.9-4.9,4.9s-4.9-2.2-4.9-4.9v-57.7
		c0-0.7-0.6-1.3-1.3-1.3h-33.4h-18.1c-0.7,0-1.3,0.6-1.3,1.3v57.7c0,4.2,3.4,7.5,7.5,7.5h51.5c4.2,0,7.5-3.4,7.5-7.5v-9.1
		C-749.6,892.3-750.2,891.8-750.9,891.8z M-813.6,902.1v-56.4h16.8h32.1v56.4c0,1.9,0.7,3.6,1.9,4.9h-45.8
		C-811.4,907.1-813.6,904.9-813.6,902.1z"/>
	<path d="M-788.2,855.1c0.3,0,0.7-0.1,0.9-0.4s0.4-0.6,0.4-0.9c0-0.3-0.1-0.7-0.4-0.9c-0.2-0.2-0.6-0.4-0.9-0.4s-0.7,0.1-0.9,0.4
		c-0.2,0.2-0.4,0.6-0.4,0.9c0,0.3,0.1,0.7,0.4,0.9C-788.9,855-788.6,855.1-788.2,855.1z"/>
	<path d="M-772.5,852.5h-10.7c-0.7,0-1.3,0.6-1.3,1.3c0,0.7,0.6,1.3,1.3,1.3h9.4v8.8h-30.6v-8.8h10.5c0.7,0,1.3-0.6,1.3-1.3
		c0-0.7-0.6-1.3-1.3-1.3h-11.8c-0.7,0-1.3,0.6-1.3,1.3v11.4c0,0.7,0.6,1.3,1.3,1.3h33.2c0.7,0,1.3-0.6,1.3-1.3v-11.4
		C-771.2,853.1-771.8,852.5-772.5,852.5z"/>
	<path d="M-805.7,878h6.2c0.7,0,1.3-0.6,1.3-1.3v-6.2c0-0.7-0.6-1.3-1.3-1.3h-6.2c-0.7,0-1.3,0.6-1.3,1.3v6.2
		C-807,877.4-806.5,878-805.7,878z M-804.4,871.7h3.6v3.6h-3.6V871.7z"/>
	<path d="M-786.1,869.1h-6.2c-0.7,0-1.3,0.6-1.3,1.3v6.2c0,0.7,0.6,1.3,1.3,1.3h6.2c0.7,0,1.3-0.6,1.3-1.3v-6.2
		C-784.8,869.7-785.3,869.1-786.1,869.1z M-787.4,875.4h-3.6v-3.6h3.6V875.4z"/>
	<path d="M-772.5,869.1h-6.2c-0.7,0-1.3,0.6-1.3,1.3v6.2c0,0.7,0.6,1.3,1.3,1.3h6.2c0.7,0,1.3-0.6,1.3-1.3v-6.2
		C-771.2,869.7-771.8,869.1-772.5,869.1z M-773.8,875.4h-3.6v-3.6h3.6V875.4z"/>
	<path d="M-805.7,883.3h6.2c0.7,0,1.3-0.6,1.3-1.3c0-0.7-0.6-1.3-1.3-1.3h-6.2c-0.7,0-1.3,0.6-1.3,1.3
		C-807,882.7-806.5,883.3-805.7,883.3z"/>
	<path d="M-786,880.7h-6.2c-0.7,0-1.3,0.6-1.3,1.3c0,0.7,0.6,1.3,1.3,1.3h6.2c0.7,0,1.3-0.6,1.3-1.3
		C-784.7,881.3-785.3,880.7-786,880.7z"/>
	<path d="M-778.8,883.3h6.2c0.7,0,1.3-0.6,1.3-1.3c0-0.7-0.6-1.3-1.3-1.3h-6.2c-0.7,0-1.3,0.6-1.3,1.3
		C-780.1,882.7-779.5,883.3-778.8,883.3z"/>
	<path d="M-805.7,888.5h6.2c0.7,0,1.3-0.6,1.3-1.3c0-0.7-0.6-1.3-1.3-1.3h-6.2c-0.7,0-1.3,0.6-1.3,1.3
		C-807,887.9-806.5,888.5-805.7,888.5z"/>
	<path d="M-772.5,892.2h-33.2c-0.7,0-1.3,0.6-1.3,1.3v7.9c0,0.7,0.6,1.3,1.3,1.3h33.2c0.7,0,1.3-0.6,1.3-1.3v-7.9
		C-771.2,892.7-771.8,892.2-772.5,892.2z M-773.8,900.1h-30.6v-5.3h30.6V900.1z"/>
	<path d="M-786,885.9h-6.2c-0.7,0-1.3,0.6-1.3,1.3c0,0.7,0.6,1.3,1.3,1.3h6.2c0.7,0,1.3-0.6,1.3-1.3
		C-784.7,886.5-785.3,885.9-786,885.9z"/>
	<path d="M-778.8,888.5h6.2c0.7,0,1.3-0.6,1.3-1.3c0-0.7-0.6-1.3-1.3-1.3h-6.2c-0.7,0-1.3,0.6-1.3,1.3
		C-780.1,887.9-779.5,888.5-778.8,888.5z"/>
	<path d="M-758.2,863c0.3,0,0.7-0.1,0.9-0.4c0.2-0.2,0.4-0.6,0.4-0.9c0-0.3-0.1-0.7-0.4-0.9c-0.2-0.2-0.6-0.4-0.9-0.4
		c-0.3,0-0.7,0.1-0.9,0.4c-0.2,0.2-0.4,0.6-0.4,0.9c0,0.3,0.1,0.7,0.4,0.9C-758.9,862.8-758.6,863-758.2,863z"/>
	<path d="M-753.6,843.1h-2c-2.2,0-3.9,1.8-3.9,3.9v9.8c0,0.7,0.6,1.3,1.3,1.3c0.7,0,1.3-0.6,1.3-1.3v-4h4.7v25.3h-4.7v-11.7
		c0-0.7-0.6-1.3-1.3-1.3c-0.7,0-1.3,0.6-1.3,1.3v13c0,0.2,0.1,0.4,0.2,0.6l3.6,6.6c0.2,0.4,0.7,0.7,1.1,0.7c0.5,0,0.9-0.3,1.1-0.7
		l3.6-6.6c0.1-0.2,0.2-0.4,0.2-0.6v-32.5C-749.6,844.9-751.4,843.1-753.6,843.1z M-756.9,850.3v-3.2c0-0.7,0.6-1.3,1.3-1.3h2
		c0.7,0,1.3,0.6,1.3,1.3v3.2H-756.9z M-754.6,883.5l-1.4-2.6h2.9L-754.6,883.5z"/>
</g>
<g>
	<path class="st34" d="M-598,809.8v92.4c0,5.5-4.4,9.9-9.9,9.9h-88.5c-5.5,0-9.9-4.4-9.9-9.9V800.4c0-5.5,4.4-9.9,9.9-9.9h78.1
		L-598,809.8z"/>
	<rect x="-691.7" y="875.1" class="st58" width="19.8" height="19.8"/>
	<rect x="-662.1" y="875.1" class="st56" width="19.8" height="19.8"/>
	<g>
		<rect x="-632.4" y="875.1" class="st53" width="19.8" height="19.8"/>
		<path class="st53" d="M-622.5,828.6L-622.5,828.6c5.5,0,9.9-4.4,9.9-9.9l0,0c0-5.5-4.4-9.9-9.9-9.9l0,0c-5.5,0-9.9,4.4-9.9,9.9
			l0,0C-632.4,824.2-628,828.6-622.5,828.6z"/>
	</g>
	<path class="st56" d="M-652.2,828.6L-652.2,828.6c5.5,0,9.9-4.4,9.9-9.9l0,0c0-5.5-4.4-9.9-9.9-9.9l0,0c-5.5,0-9.9,4.4-9.9,9.9l0,0
		C-662.1,824.2-657.6,828.6-652.2,828.6z"/>
	<path class="st58" d="M-681.8,828.6L-681.8,828.6c5.5,0,9.9-4.4,9.9-9.9l0,0c0-5.5-4.4-9.9-9.9-9.9l0,0c-5.5,0-9.9,4.4-9.9,9.9l0,0
		C-691.7,824.2-687.3,828.6-681.8,828.6z"/>
	<rect x="-673.4" y="841.5" class="st62" width="42.5" height="19.8"/>
	<path class="st56" d="M-598,809.8h-9.4c-5.5,0-9.9-4.4-9.9-9.9v-9.4L-598,809.8z"/>
	<path d="M-645.3,853.8c0.7,0,1.3-0.3,1.7-0.7s0.7-1.1,0.7-1.7c0-0.7-0.3-1.3-0.7-1.7c-0.5-0.5-1.1-0.7-1.7-0.7s-1.3,0.3-1.7,0.7
		c-0.5,0.5-0.7,1.1-0.7,1.7s0.3,1.3,0.7,1.7S-645.9,853.8-645.3,853.8z"/>
	<path d="M-598,856.5c-0.7,0-1.3,0.3-1.7,0.7c-0.5,0.5-0.7,1.1-0.7,1.7s0.3,1.3,0.7,1.7c0.5,0.5,1.1,0.7,1.7,0.7s1.3-0.3,1.7-0.7
		c0.5-0.5,0.7-1.1,0.7-1.7s-0.3-1.3-0.7-1.7S-597.4,856.5-598,856.5z"/>
	<path d="M-596.3,808.1l-19.3-19.3c-0.6-0.6-1.4-0.8-2.2-0.7c-0.2,0-0.3-0.1-0.5-0.1h-78.1c-6.8,0-12.4,5.5-12.4,12.4v101.8
		c0,6.8,5.5,12.4,12.4,12.4h88.5c6.8,0,12.4-5.5,12.4-12.4V871c0-1.4-1.1-2.5-2.5-2.5c-1.4,0-2.5,1.1-2.5,2.5v31.2
		c0,4.1-3.3,7.4-7.4,7.4h-88.5c-4.1,0-7.4-3.3-7.4-7.4V800.4c0-4.1,3.3-7.4,7.4-7.4h76.6v6.9c0,2.9,1,5.6,2.7,7.7
		c-1.6-0.8-3.5-1.2-5.4-1.2c-6.8,0-12.4,5.5-12.4,12.4c0,6,4.3,11,9.9,12.1v12.6h-3.5v-2c0-1.4-1.1-2.5-2.5-2.5h-18.8v-8.2
		c5.6-1.1,9.9-6.1,9.9-12.1c0-6.8-5.5-12.4-12.4-12.4c-6.8,0-12.4,5.5-12.4,12.4c0,6,4.3,11,9.9,12.1v8.2h-18.8
		c-1.4,0-2.5,1.1-2.5,2.5v2h-3.5v-12.6c5.6-1.1,9.9-6.1,9.9-12.1c0-6.8-5.5-12.4-12.4-12.4c-6.8,0-12.4,5.5-12.4,12.4
		c0,6,4.3,11,9.9,12.1v15.1c0,1.4,1.1,2.5,2.5,2.5h5.9v5.4h-5.9c-1.4,0-2.5,1.1-2.5,2.5v16.3h-7.4c-1.4,0-2.5,1.1-2.5,2.5v19.8
		c0,1.4,1.1,2.5,2.5,2.5h19.8c1.4,0,2.5-1.1,2.5-2.5v-19.8c0-1.4-1.1-2.5-2.5-2.5h-7.4v-13.8h3.5v2.5c0,1.4,1.1,2.5,2.5,2.5h18.8
		v8.9h-7.4c-1.4,0-2.5,1.1-2.5,2.5v19.8c0,1.4,1.1,2.5,2.5,2.5h19.8c1.4,0,2.5-1.1,2.5-2.5v-19.8c0-1.4-1.1-2.5-2.5-2.5h-7.4v-8.9
		h18.8c1.4,0,2.5-1.1,2.5-2.5v-2.5h3.5v13.8h-7.4c-1.4,0-2.5,1.1-2.5,2.5v19.8c0,1.4,1.1,2.5,2.5,2.5h19.8c1.4,0,2.5-1.1,2.5-2.5
		v-19.8c0-1.4-1.1-2.5-2.5-2.5h-7.4v-16.3c0-1.4-1.1-2.5-2.5-2.5h-5.9v-5.4h5.9c1.4,0,2.5-1.1,2.5-2.5v-15.1
		c5.6-1.1,9.9-6.1,9.9-12.1c0-2.9-1-5.6-2.7-7.7c1.6,0.8,3.5,1.2,5.4,1.2h6.9V848c0,1.4,1.1,2.5,2.5,2.5c1.4,0,2.5-1.1,2.5-2.5
		v-38.1C-595.6,809.1-595.9,808.5-596.3,808.1z M-659.6,818.7c0-4.1,3.3-7.4,7.4-7.4c4.1,0,7.4,3.3,7.4,7.4c0,4.1-3.3,7.4-7.4,7.4
		C-656.3,826.1-659.6,822.8-659.6,818.7z M-689.3,818.7c0-4.1,3.3-7.4,7.4-7.4c4.1,0,7.4,3.3,7.4,7.4c0,4.1-3.3,7.4-7.4,7.4
		C-685.9,826.1-689.3,822.8-689.3,818.7z M-674.4,892.4h-14.8v-14.8h14.8V892.4z M-644.8,892.4h-14.8v-14.8h14.8V892.4z
		 M-615.1,892.4h-14.8v-14.8h14.8V892.4z M-633.4,858.8H-671v-4.9h13.3c1.4,0,2.5-1.1,2.5-2.5c0-1.4-1.1-2.5-2.5-2.5H-671v-5h37.6
		V858.8z M-622.5,826.1c-4.1,0-7.4-3.3-7.4-7.4c0-4.1,3.3-7.4,7.4-7.4s7.4,3.3,7.4,7.4C-615.1,822.8-618.4,826.1-622.5,826.1z
		 M-607.4,807.3c-4.1,0-7.4-3.3-7.4-7.4v-3.4l10.8,10.8H-607.4z"/>
</g>
<g>
	<path class="st56" d="M-720.9,753.6v3.6c0,5.7,4.6,10.4,10.4,10.4h106.6c5.7,0,10.4-4.6,10.4-10.4v-3.6H-720.9z"/>
	<path class="st55" d="M-705.1,674.9h-1c-5.7,0-10.4,4.6-10.4,10.4v67.9c0,0.2,0.2,0.4,0.4,0.4h117.7c0.2,0,0.4-0.2,0.4-0.4v-67.9
		c0-5.7-4.6-10.4-10.4-10.4h-1.5C-609.8,674.9-705.1,674.9-705.1,674.9z"/>
	<path class="st34" d="M-704.3,731.3v-72.5c0-4.6,3.7-8.3,8.3-8.3h77.6c4.6,0,8.3,3.7,8.3,8.3v72.5c0,4.6-3.7,8.3-8.3,8.3h-77.6
		C-700.6,739.6-704.3,735.9-704.3,731.3z"/>
	<path class="st58" d="M-610.1,658.9c0-4.6-3.7-8.3-8.3-8.3h-77.6c-4.6,0-8.3,3.7-8.3,8.3v10.4h94.2V658.9z"/>
	<path class="st57" d="M-702.2,669.2h91"/>
	<path d="M-593.6,751h-1.8v-65.7c0-6.9-5.4-12.5-12.2-12.9v-13.5c0-6-4.9-10.9-10.9-10.9h-77.6c-6,0-10.9,4.9-10.9,10.9v13.5
		c-6.8,0.4-12.2,6-12.2,12.9v12.4c0,1.4,1.2,2.6,2.6,2.6c1.4,0,2.6-1.2,2.6-2.6v-12.4c0-4,3.1-7.3,7-7.7v53.8
		c0,6,4.9,10.9,10.9,10.9h77.6c6,0,10.9-4.9,10.9-10.9v-53.8c3.9,0.4,7,3.7,7,7.7V751h-113.3v-32.2c0-1.4-1.2-2.6-2.6-2.6
		c-1.4,0-2.6,1.2-2.6,2.6V751h-1.8c-1.4,0-2.6,1.2-2.6,2.6v3.6c0,7.1,5.8,12.9,12.9,12.9h106.6c7.1,0,12.9-5.8,12.9-12.9v-3.6
		C-591,752.1-592.2,751-593.6,751z M-696.1,653.2h77.6c3.1,0,5.7,2.6,5.7,5.7v7.8h-89v-7.8C-701.8,655.7-699.2,653.2-696.1,653.2z
		 M-618.4,737h-77.6c-3.1,0-5.7-2.6-5.7-5.7v-59.5h89v59.5C-612.7,734.5-615.3,737-618.4,737z M-596.2,757.2c0,4.3-3.5,7.8-7.8,7.8
		h-106.6c-4.3,0-7.8-3.5-7.8-7.8v-1h1.7c0,0,0,0,0.1,0H-598c0,0,0,0,0.1,0h1.7V757.2z"/>
	<path d="M-652.6,758h-9.3c-1.4,0-2.6,1.2-2.6,2.6s1.2,2.6,2.6,2.6h9.3c1.4,0,2.6-1.2,2.6-2.6S-651.2,758-652.6,758z"/>
	<path d="M-716.5,710.5c0.7,0,1.3-0.3,1.8-0.8c0.5-0.5,0.8-1.1,0.8-1.8c0-0.7-0.3-1.3-0.8-1.8c-0.5-0.5-1.1-0.8-1.8-0.8
		c-0.7,0-1.3,0.3-1.8,0.8c-0.5,0.5-0.8,1.1-0.8,1.8c0,0.7,0.3,1.3,0.8,1.8S-717.2,710.5-716.5,710.5z"/>
	<path d="M-663.7,662.5h43.3c1.4,0,2.6-1.2,2.6-2.6s-1.2-2.6-2.6-2.6h-43.3c-1.4,0-2.6,1.2-2.6,2.6S-665.2,662.5-663.7,662.5z"/>
	<path d="M-686.3,662.5c0.7,0,1.3-0.3,1.8-0.8c0.5-0.5,0.8-1.1,0.8-1.8c0-0.7-0.3-1.3-0.8-1.8c-0.5-0.5-1.1-0.8-1.8-0.8
		c-0.7,0-1.3,0.3-1.8,0.8c-0.5,0.5-0.8,1.1-0.8,1.8c0,0.7,0.3,1.3,0.8,1.8S-687,662.5-686.3,662.5z"/>
	<path d="M-694,662.5c0.7,0,1.3-0.3,1.8-0.8c0.5-0.5,0.8-1.1,0.8-1.8c0-0.7-0.3-1.3-0.8-1.8c-0.5-0.5-1.1-0.8-1.8-0.8
		c-0.7,0-1.3,0.3-1.8,0.8c-0.5,0.5-0.8,1.1-0.8,1.8c0,0.7,0.3,1.3,0.8,1.8S-694.7,662.5-694,662.5z"/>
	<path d="M-678.7,662.5c0.7,0,1.3-0.3,1.8-0.8c0.5-0.5,0.8-1.1,0.8-1.8c0-0.7-0.3-1.3-0.8-1.8c-0.5-0.5-1.1-0.8-1.8-0.8
		c-0.7,0-1.3,0.3-1.8,0.8c-0.5,0.5-0.8,1.1-0.8,1.8c0,0.7,0.3,1.3,0.8,1.8S-679.4,662.5-678.7,662.5z"/>
	<path d="M-674.8,702c0.5,0.5,1.2,0.8,1.8,0.8c0.7,0,1.3-0.3,1.8-0.8c1-1,1-2.6,0-3.7l-6.9-6.9l6.9-6.9c1-1,1-2.6,0-3.7
		c-1-1-2.6-1-3.7,0l-8.7,8.7c-1,1-1,2.6,0,3.7L-674.8,702z"/>
	<path d="M-643.3,702c0.5,0.5,1.2,0.8,1.8,0.8c0.7,0,1.3-0.3,1.8-0.8l8.7-8.7c1-1,1-2.6,0-3.7l-8.7-8.7c-1-1-2.6-1-3.7,0
		c-1,1-1,2.6,0,3.7l6.9,6.9l-6.9,6.9C-644.4,699.4-644.4,701-643.3,702z"/>
	<path d="M-664.7,704.2c0.4,0.2,0.9,0.4,1.3,0.4c0.9,0,1.8-0.5,2.2-1.3l12.3-21c0.7-1.2,0.3-2.8-0.9-3.5c-1.2-0.7-2.8-0.3-3.5,0.9
		l-12.3,21C-666.4,701.9-666,703.4-664.7,704.2z"/>
	<path d="M-671.2,714.2c0,1.4,1.2,2.6,2.6,2.6h43c1.4,0,2.6-1.2,2.6-2.6s-1.2-2.6-2.6-2.6h-43C-670,711.7-671.2,712.8-671.2,714.2z"
		/>
	<path d="M-691.4,716.8h12.7c1.4,0,2.6-1.2,2.6-2.6s-1.2-2.6-2.6-2.6h-12.7c-1.4,0-2.6,1.2-2.6,2.6S-692.8,716.8-691.4,716.8z"/>
	<path d="M-635.4,724.1h-55.9c-1.4,0-2.6,1.2-2.6,2.6s1.2,2.6,2.6,2.6h55.9c1.4,0,2.6-1.2,2.6-2.6S-634,724.1-635.4,724.1z"/>
	<path d="M-625.6,724.1c-0.7,0-1.3,0.3-1.8,0.8c-0.5,0.5-0.8,1.1-0.8,1.8c0,0.7,0.3,1.3,0.8,1.8c0.5,0.5,1.1,0.8,1.8,0.8
		c0.7,0,1.3-0.3,1.8-0.8c0.5-0.5,0.8-1.1,0.8-1.8c0-0.7-0.3-1.3-0.8-1.8S-624.9,724.1-625.6,724.1z"/>
</g>
<g>
	<rect x="-662.6" y="1013" class="st55" width="17.2" height="11.3"/>
	<path class="st56" d="M-673.5,1032.2h39v-1.6c0-3.4-2.8-6.2-6.2-6.2h-26.5c-3.4,0-6.2,2.8-6.2,6.2L-673.5,1032.2L-673.5,1032.2z"/>
	<path class="st34" d="M-612.2,944c3.4,0,6.2,2.8,6.2,6.2v55c0,4.3-3.5,7.8-7.8,7.8h-80.4c-4.3,0-7.8-3.5-7.8-7.8v-55
		c0-3.4,2.8-6.2,6.2-6.2H-612.2z"/>
	<polygon class="st62" points="-674.2,997.4 -674.2,955.1 -682.9,936.2 -691.5,955.1 -691.5,997.4 	"/>
	<polygon class="st65" points="-674.2,955.1 -682.9,936.2 -691.5,955.1 	"/>
	<path class="st56" d="M-702,997.4v7.9c0,4.3,3.5,7.8,7.8,7.8h80.4c4.3,0,7.8-3.5,7.8-7.8v-7.9H-702z"/>
	<polyline class="st61" points="-662.6,997.4 -662.6,966.8 -645.4,966.8 -645.4,997.4 	"/>
	<rect x="-632.1" y="936.2" class="st54" width="15.6" height="61.3"/>
	<polygon class="st56" points="-654,936.2 -654,936.2 -654,936.2 -654,936.2 -654,936.2 -665.8,957 -662.6,966.8 -645.4,966.8 
		-641.8,957 	"/>
	<polygon class="st67" points="-688.1,947.7 -677.6,947.7 -682.9,936.2 	"/>
	<path d="M-653.8,1003.3c-1.1,0-2,0.9-2,2c0,1.1,0.9,2,2,2h0c1.1,0,1.9-0.9,1.9-2C-651.9,1004.2-652.7,1003.3-653.8,1003.3z"/>
	<path d="M-612.2,942h-2.3v-5.9c0-1.1-0.9-2-2-2h-15.6c-1.1,0-2,0.9-2,2v59.3h-9.4v-28.4l3.4-9.4c0.2-0.5,0.1-1.2-0.1-1.7l-5.9-10.1
		h5.6c1.1,0,2-0.9,2-2c0-1.1-0.9-2-2-2h-7.9l-4-6.8c-0.4-0.6-1-1-1.7-1c-0.7,0-1.3,0.4-1.7,1l-11.8,20.9c-0.3,0.5-0.3,1-0.2,1.6
		l3.1,9.4v28.4h-7.8v-40.4c0-0.3-0.1-0.6-0.2-0.8l-3.8-8.4h8.8c1.1,0,2-0.9,2-2s-0.9-2-2-2h-10.3c-0.1,0-0.2,0-0.3,0l-3-6.7
		c-0.3-0.7-1-1.1-1.8-1.1c-0.8,0-1.5,0.4-1.8,1.1l-3,6.7h-8.1c-4.5,0-8.2,3.7-8.2,8.2v55c0,5.4,4.4,9.8,9.8,9.8h29.7v7.4h-2.7
		c-4.5,0-8.2,3.7-8.2,8.2v1.6c0,1.1,0.9,2,2,2h39c1.1,0,2-0.9,2-2v-1.6c0-4.5-3.7-8.2-8.2-8.2h-2.7v-7.4h29.7c5.4,0,9.8-4.4,9.8-9.8
		v-55C-604,945.7-607.7,942-612.2,942z M-630.2,992.7h4.1c1.1,0,2-0.9,2-2c0-1.1-0.9-2-2-2h-4.1v-3.9h1.7c1.1,0,2-0.9,2-2
		s-0.9-2-2-2h-1.7v-3.9h4.1c1.1,0,2-0.9,2-2s-0.9-2-2-2h-4.1v-3.9h1.7c1.1,0,2-0.9,2-2s-0.9-2-2-2h-1.7v-3.9h4.1c1.1,0,2-0.9,2-2
		s-0.9-2-2-2h-4.1v-3.9h1.7c1.1,0,2-0.9,2-2c0-1.1-0.9-2-2-2h-1.7v-3.9h4.1c1.1,0,2-0.9,2-2s-0.9-2-2-2h-4.1v-3.9h11.7v57.4h-11.7
		V992.7z M-656,943.5v6.9c0,1.1,0.9,2,2,2c1.1,0,2-0.9,2-2v-7l8.1,13.8l-2.8,7.6h-14.4l-2.5-7.6L-656,943.5z M-652.5,979.4
		c-1.1,0-2,0.9-2,2v14.1h-6.2v-26.8h13.3v26.8h-3.2v-14.1C-650.6,980.3-651.4,979.4-652.5,979.4z M-677.3,953.1h-11.2l1.6-3.5h8
		L-677.3,953.1z M-689.5,957h13.3v38.4h-13.3V957z M-682.9,940.9l2.2,4.8h-4.4L-682.9,940.9z M-700,950.2c0-2.4,1.9-4.3,4.3-4.3h6.3
		l-3.8,8.4c-0.1,0.3-0.2,0.5-0.2,0.8v40.4h-6.6C-700,995.5-700,950.2-700,950.2z M-640.7,1026.3c2.2,0,4.1,1.7,4.3,3.9h-35.1
		c0.2-2.2,2-3.9,4.3-3.9h4.7h17.2H-640.7z M-660.6,1022.4v-7.4h13.3v7.4H-660.6z M-608,1005.2c0,3.2-2.6,5.9-5.9,5.9h-31.6h-17.2
		h-31.6c-3.2,0-5.9-2.6-5.9-5.9v-5.9h67.9h15.6h8.6L-608,1005.2L-608,1005.2z M-608,995.5h-6.6v-49.6h2.3c2.4,0,4.3,1.9,4.3,4.3
		V995.5z"/>
	<path d="M-684.4,971c-1.1,0-2,0.9-2,2v14.2c0,1.1,0.9,2,2,2s2-0.9,2-2v-14.2C-682.4,971.9-683.3,971-684.4,971z"/>
	<path d="M-684.4,967.3c0.5,0,1-0.2,1.4-0.6c0.4-0.4,0.6-0.9,0.6-1.4c0-0.5-0.2-1-0.6-1.4c-0.4-0.4-0.9-0.6-1.4-0.6
		c-0.5,0-1,0.2-1.4,0.6c-0.4,0.4-0.6,0.9-0.6,1.4s0.2,1,0.6,1.4C-685.4,967.1-684.9,967.3-684.4,967.3z"/>
	<path d="M-654,959c0.5,0,1-0.2,1.4-0.6c0.4-0.4,0.6-0.9,0.6-1.4s-0.2-1-0.6-1.4c-0.4-0.4-0.9-0.6-1.4-0.6s-1,0.2-1.4,0.6
		c-0.4,0.4-0.6,0.9-0.6,1.4s0.2,1,0.6,1.4C-655,958.8-654.5,959-654,959z"/>
</g>
</svg>
